<?xml version="1.0" encoding="utf-8"?>
<!-- Generator: Adobe Illustrator 26.0.2, SVG Export Plug-In . SVG Version: 6.00 Build 0)  -->
<svg version="1.1" id="Слой_1" xmlns="http://www.w3.org/2000/svg" xmlns:xlink="http://www.w3.org/1999/xlink" x="0px" y="0px"
	 viewBox="0 0 875 1000" style="enable-background:new 0 0 875 1000;" xml:space="preserve">
<style type="text/css">
	.st0{fill:#DCBCB1;}
	.st1{fill:#2E2D2C;}
</style>
<g>
	<path class="st0" d="M452,0c-0.1,2.9,1.5,5,3.2,7c3,3.4,6.7,5.7,10.6,7.8c4.5,2.4,9.3,4.2,14.1,6c11.6,4.5,23.2,8.8,34.9,13.3
		c8.7,3.3,17,7.5,24.7,12.7c6.3,4.3,12.1,9.2,16.2,15.8c3,4.8,5.3,10,6.1,15.7c0.6,4,0.8,7.9,0,11.9c-0.4,2.3-0.4,4.7-0.9,7
		c-0.2,1,0.4,1.7,1.4,1.7c2.8,0.1,5.5,0.1,8.3-0.3c6.2-0.9,12.4-0.9,18.5,0.8c6,1.7,11.9,3.7,17.1,7.2c2.2,1.5,4.4,2.9,6.4,4.6
		c8.4,7.4,15.1,16.1,20.2,26.1c4.7,9.2,9.1,18.7,13.3,28.1c3.2,7.2,6.7,14.3,11.4,20.7c1.5,2,2.9,4,4.5,5.9c1.6,1.8,3.6,2.9,5.9,3.7
		c4.7,1.5,4.1,1.4,4.2,5.8c0,5.5,0,11.1,0,16.6c0,2-0.4,3.4-2.6,4c-2.5,0.7-4.6,2.5-6.5,4.3c-4.2,3.9-7.5,8.5-10.1,13.6
		c-3.3,6.3-6.3,12.6-9.3,19c-5.4,11.7-11.2,23.2-18.4,33.9c-2.5,3.8-5.5,7.3-8.6,10.6c-3.3,3.6-7.3,6.4-11.5,8.8
		c-5,2.9-10.3,5.3-16.1,6.4c-0.9,0.2-1.9,0.4-2.9,0.4c-5.4,0-10.8,0-16.2-0.1c-1.8,0-3.5-0.6-5.3-0.7c-3.6-0.2-4.3,0-3.5,3.9
		c0.6,3,0.6,6,1.2,9c0.7,3.7-0.3,7.4-1.1,11.1c-1.5,7.2-5,13.4-10.2,18.7c-6.4,6.5-13.7,11.6-21.7,15.8c-9.2,4.9-18.9,8.5-28.6,12.2
		c-9.5,3.7-19.1,7.2-28.6,11.1c-4.5,1.8-8.8,4-12.9,6.6c-2.7,1.7-4.7,3.9-5.9,6.7c-0.2,0.5-0.5,1-0.7,1.5c-0.6,1.4-1.5,2.1-3.2,2.1
		c-7.2-0.1-14.4-0.1-21.6,0c-1.9,0-3.2-0.7-4-2.3c-1-2-2.4-3.7-3.9-5.3c-1.7-1.7-3.5-3-5.6-4.2c-7.9-4.1-16-7.6-24.3-10.7
		c-11-4.1-22.1-8.1-32.9-12.7c-8.9-3.8-17.5-8.2-25.3-14.2c-6.2-4.8-11.6-10.3-15-17.5c-2.3-4.9-3.8-10.1-3.7-15.6
		c0-4.6,0.2-9.1,1.5-13.6c0.1-0.4,0.2-0.8,0.2-1.2c0.1-1-0.4-1.7-1.3-1.7c-1.5-0.1-3,0.1-4.5,0.4c-3.7,0.6-7.3,1.4-11.1,1.2
		c-9.2-0.6-18.2-2-26.3-6.7c-7.9-4.5-14.5-10.6-19.8-18c-3.5-5-6.8-10.1-9.5-15.6c-6.5-13-12.9-26-19.5-39c-2.5-5-5.5-9.6-9.4-13.6
		c-2.2-2.2-4.5-4.1-7.5-5c-1.7-0.5-2.5-1.5-2.5-3.3c0.1-6.5,0-13,0.1-19.5c0-1,0.2-1.9,1.4-2.3c6.9-2,10.9-7.3,14.3-13.1
		c4.8-8.2,8.9-16.9,13-25.5c4.8-10.3,9.7-20.5,15.9-30.1c4-6.3,8.7-12.2,14.4-17.1c4.8-4.2,10.4-7.3,16.3-9.7
		c3.6-1.4,7.3-2.6,11.2-3.1c4-0.5,8-0.6,12,0.1c3.5,0.6,6.9,0.5,10.3,0.5c1.3,0,1.8-0.5,1.8-1.7c0-1.7,0.1-3.4-0.2-5
		c-1.1-6.1-1-12.1,0.4-18.1c1-4.5,3.1-8.6,5.8-12.3c5.5-7.7,12.7-13.3,20.9-17.9c12.6-7.1,25.9-12.4,39.4-17.4
		c6.6-2.5,13.3-4.7,19.8-7.5c5.3-2.3,10.5-5,15.7-7.6c1-0.5,1.9-1.2,2.8-1.8c3.2-2.4,5.4-5.5,6-9.6C433.7,0,442.8,0,452,0z
		 M368.1,271c0.9,0,1.6-0.4,2.3-0.8c2.5-1.4,5.1-2.7,7.6-4.2c11.9-7.1,23.1-15.2,32.6-25.4c2.6-2.7,4.9-5.6,6.8-8.8
		c1.1-1.8,1.9-3.7,2.7-5.6c0.4-1-0.4-1.9-1.6-1.7c-0.3,0-0.6,0-0.8,0.1c-2.6,0.9-5.3,1.6-7.7,3c-6.7,3.7-12.7,8.2-18.3,13.4
		c-5.8,5.4-10.7,11.6-15.7,17.6c-2.5,3-4.6,6.2-7,9.3C368.4,268.9,367.9,269.8,368.1,271c-0.1,0-0.3,0-0.3,0.1c-0.1,0,0,0.2-0.1,0.2
		C367.8,271.2,368,271.1,368.1,271z M421.3,194.5c-2.4-6.9-6.5-12.8-11.3-18.2c-3.1-3.5-6.8-6.4-10.4-9.4c-6-4.9-12.3-9.3-18.9-13.5
		c-2.9-1.9-6-3.3-9.1-4.9c-0.7-0.4-1.6-0.9-2.3-0.1c-0.5,0.6,0.1,1.3,0.4,1.9c0.3,0.6,0.7,1.2,1.1,1.7c3.9,6.2,9.1,11.5,13.9,17
		c3.1,3.5,6.6,6.7,9.9,10c2.5,2.4,5.3,4.5,8,6.6c5.6,4.3,12.1,6.5,18.6,8.9c0.6,1.2,1.5,2.4,1.6,3.8c0.1,2.6,0.2,5.2,0.8,7.8
		c0.2,0.8-0.5,1.3-1.2,1.2c-5.5-0.7-10.8-2.1-15.9-4.5c-9-4.2-16.7-10.2-23.9-16.9c-5.4-5-10-10.7-14.8-16.2
		c-5.4-6.3-10.3-13-15.2-19.7c-6.5-9-13.3-17.7-21.3-25.4c-7.4-7.1-15.9-11.9-25.9-13.9c-5.1-1-10.5-0.9-15.6,0.2
		c-7.1,1.6-13,5.3-18.3,10.1c-4.6,4.2-8.4,9.2-11.8,14.4c-5.5,8.5-10,17.6-14.2,26.7c-4,8.7-8,17.3-12.9,25.5
		c-3.2,5.4-6.9,10.4-11.6,14.6c-2.2,2-4.5,3.7-7.3,4.6c-1.2,0.4-2.3,1-3.4,1.6c-0.4,0.2-0.7,0.5-0.5,1c0.1,0.2,0.4,0.4,0.6,0.5
		c3.4,1,6.3,2.7,9.1,4.8c3.6,2.7,6.3,6.2,9,9.7c3.9,5.2,7.1,10.9,10,16.7c4.7,9.6,9.3,19.2,14,28.7c2.7,5.6,6.1,10.9,9.5,16
		c3,4.4,6.5,8.2,10.4,11.8c2.1,2,4.6,3.7,7.2,4.8c7.8,3.4,15.8,5.5,24.5,4.2c4.7-0.7,9.2-2,13.4-4.1c7-3.5,12.8-8.7,18.2-14.3
		c3.2-3.4,6.3-7,9.2-10.7c7-8.9,13.8-18,20.7-26.9c3.4-4.4,6.8-8.8,10.7-12.7c2.6-2.7,5.3-5.3,7.9-8c6.5-6.6,14-11.7,22.4-15.5
		c4.8-2.2,10-3.2,15.1-4.3c1.4-0.3,2,0.5,1.7,2c-0.4,2.7-0.9,5.4-1.3,8.2c-0.2,1.5,0.5,2.3,1.9,1.9c3.4-1,6.9-0.1,10.3-1.2
		c1.1-0.4,2,0.5,1.7,1.6c-0.6,2.3-1.1,4.6-2,6.7c-2,4.9-4.7,9.4-7.9,13.6c-4.4,5.8-9.7,10.6-14.9,15.6c-0.5,0.5-1.1,0.9-1.6,1.3
		c-8,6.1-16.7,11.3-25.2,16.7c-8.7,5.4-17.6,10.5-26.4,15.7c-7.6,4.6-14.7,9.8-20.8,16.3c-2.8,2.9-5.1,6.2-7,9.7
		c-3.1,5.9-4.4,12.1-2.9,18.8c1.4,6.1,4,11.5,8.3,16c5.3,5.6,11.8,9.5,18.6,13.1c9.4,5,19.4,8.7,29.4,12.4
		c11.1,4.2,22.4,8,33.1,13.3c3.6,1.8,7.1,3.7,10.4,6.1c4.3,3,7.7,6.7,9.8,11.5c0.1,0.3,0.2,0.5,0.4,0.7c0.4,0.7,1.2,0.8,1.7,0.2
		c0.5-0.8,1-1.6,1.5-2.5c3.2-5.5,7.7-9.8,13.2-12.9c5.9-3.4,12.1-6.2,18.4-8.7c7.6-3,15.3-5.7,22.9-8.5c9.9-3.6,19.5-7.9,28.7-13
		c6.3-3.5,12.2-7.6,17.2-12.9c2.8-3,5-6.3,6.5-10c1.6-3.9,2.6-8,1.8-12.2c-1-5.6-3-10.9-6.2-15.7c-3.9-5.7-8.8-10.2-14.2-14.4
		c-7.5-5.7-15.7-10.3-23.8-15.2c-10.7-6.4-21.4-12.7-31.7-19.6c-6.1-4.1-11.8-8.6-16.9-14c-5.6-6-10.5-12.5-13.9-20
		c-1.1-2.4-1.9-4.9-2.5-7.4c-0.3-1.2,0.4-2,1.5-2c2.3,0,4.8-0.1,7,0.4c4.6,1,5.4,0.3,4.3-4.6c-0.1-0.3-0.2-0.5-0.2-0.8
		c-0.1-1.7-0.2-3.3-0.2-5c0-0.9,0.8-1.5,1.7-1.3c1.5,0.2,3,0.4,4.5,0.8c11.9,3.3,22.5,9.1,31.7,17.4c7.3,6.6,13.9,13.9,19.9,21.7
		c6.9,9,13.5,18.2,20.4,27.2c3.1,4.1,6.3,8.1,9.9,11.7c4.2,4.4,8.9,8.2,14.1,11.5c7.1,4.5,14.6,7.1,23.1,6.7c1,0,1.9-0.1,2.9,0
		c2.5,0.1,4.9-0.6,7.3-1.4c9.2-3,16.5-8.9,22.7-16.2c5.1-6,9.3-12.7,12.7-19.9c4.8-10,9.6-19.9,14.5-29.9c2.8-5.7,6-11.2,9.8-16.3
		c4.5-6,9.7-11,16.9-13.5c0.5-0.2,1-0.4,1.5-0.7c0.3-0.2,0.5-0.7,0-1c-0.7-0.4-1.5-0.6-2.3-0.9c-2.4-1-4.7-2.2-6.9-3.7
		c-4.9-3.4-8.3-8.1-11.5-13c-5.4-8.1-9.6-16.9-13.6-25.6c-4.7-10.2-9.5-20.3-15.5-29.8c-4.1-6.4-8.7-12.4-14.8-17.2
		c-8.8-6.9-18.8-9.1-29.7-7.7c-9.3,1.2-17.4,5.3-24.3,11.7c-7.5,6.8-14.3,14.3-20.5,22.3c-6.7,8.6-13.2,17.4-19.9,26
		c-3.7,4.8-7.4,9.7-11.9,13.8c-3.1,2.8-6.3,5.4-9.5,8c-7,5.7-14.9,10.1-23.4,13.2c-2.6,0.9-5.3,1.6-8.1,1.3c-1-0.1-1.5-0.6-1.6-1.6
		c-0.2-1.7,0.6-3.3,0.7-4.9c0.3-4.5,1-6-4.9-4.8c-2.2,0.5-4.4,0.4-6.6,0.4c-1.2,0-1.7-0.8-1.6-1.9c0.1-0.5,0.3-1.1,0.4-1.6
		c2-8.3,6.4-15.3,11.9-21.6c6.3-7.2,13.5-13.5,21.5-18.8c9.5-6.4,19.5-12.1,29.3-18c9.6-5.7,19.3-11.3,28-18.5
		c5.4-4.4,10.3-9.3,13.8-15.3c3.6-6.2,5.5-12.9,3.8-20.2c-1.8-7.4-5.8-13.4-11.3-18.4c-3.8-3.4-8.2-6.1-12.5-8.9
		c-2.1-1.4-4.3-2.5-6.6-3.5c-2.8-1.2-5.6-2.3-8.4-3.5c-10.9-4.7-22-8.9-33.1-13.1c-8.3-3.1-16.6-6.2-24-11.2
		c-4.8-3.3-9.6-6.5-12.3-12c-0.5-1.1-1.3-2.1-2.8-2.4c-0.7,1.3-1.3,2.8-2.2,4c-1,1.3-2.2,2.5-3.3,3.8c-3.9,4.4-8.9,7.4-14.1,10.1
		c-5.5,2.9-11.3,5.2-17.1,7.5c-12.1,4.8-24.4,8.8-36.3,14.1c-7.1,3.1-14.1,6.5-20.5,10.9c-3.7,2.5-7,5.5-9.9,8.8
		c-3.5,3.9-5.4,8.6-6.6,13.7c-0.9,3.5-0.9,7-0.2,10.7c1.5,7.5,5.2,13.6,10.4,19c4.8,5,10.4,9.1,16.1,13c10.2,6.9,20.9,13,31.6,19
		c11.3,6.5,21.9,14,31.6,22.6c2.5,2.2,4.8,4.6,6.9,7.2c4.7,5.9,8,12.6,10.7,19.6c0.5,1.3,1,2.6,1.5,3.9c0.2,0.6-0.2,1.1-0.8,1.3
		c-0.4,0.1-0.8,0.2-1.2,0.1C429.8,195.1,425.5,195.6,421.3,194.5z M456.5,193.6c1.4-0.2,3.4-1,5.2-1.8c8.3-3.9,15.7-9.1,22.3-15.6
		c3.4-3.4,6.8-6.9,9.9-10.6c2.8-3.4,5.7-6.7,8.4-10.3c1.4-1.9,2.7-3.8,4-5.8c0.4-0.6,0.7-1.2,0.2-1.9c-0.5-0.5-1-0.2-1.5,0
		c-3.2,1.6-6.6,3-9.6,4.9c-10.9,6.8-21.1,14.5-30,23.9c-2.6,2.7-4.9,5.6-6.9,8.8c-1.4,2.2-2.4,4.6-3.6,7
		C454.5,193,455.1,193.7,456.5,193.6z M457,224.6c-1.2-0.2-1.9,0.5-1.6,1.7c0.2,0.8,0.5,1.6,0.8,2.3c1.7,4,4.2,7.5,7.1,10.7
		c5.3,5.9,11,11.2,17.5,15.8c5.5,3.9,11.3,7.4,16.9,11.1c2.1,1.4,4.4,2.3,6.6,3.4c0.6,0.3,1.4,0.7,1.9,0.1c0.8-0.8,0-1.6-0.4-2.2
		c-0.7-1.2-1.6-2.3-2.4-3.3c-4.1-5.3-7.9-11-12.8-15.7c-3-2.9-5.8-5.9-8.8-8.8c-5.6-5.4-11.9-9.8-18.9-13.2
		C461,225.6,458.9,225.2,457,224.6z"/>
	<path class="st0" d="M203.6,1000c0-2.8-0.1-5.5,0-8.3c0-1.6,0.7-2.2,2.3-2.4c1.2-0.1,2.5-0.1,3.7-0.1c18.6,0,37.1,0,55.7,0
		c130.8,0,261.6,0,392.5,0c2.8,0,5.5,0,8.3,0c1,0,2-0.1,2.9,0.2c2.9,0.8,3.1,0.6,3.1,3.9c0,2.2,0,4.4,0.1,6.6
		C516,1000,359.8,1000,203.6,1000z"/>
	<path class="st1" d="M354.1,591c-2.4,0-4.4,0-6.5,0c-0.9,0-1.5-0.5-2-1.3c-1.1-1.8-2.2-3.5-3.2-5.3c-6.7-12.5-17.6-19.1-31.2-21.8
		c-4.8-0.9-9.6-1.2-14.5-1.3c-8.9-0.1-17.7,0-26.6,0c-2.6,0-5.3,0.2-7.9,0.6c-4.9,0.6-7.1,2.8-7.9,7.6c-0.2,1.5-0.3,3-0.3,4.6
		c-0.2,13.7-0.4,27.4-0.5,41.1c0,3.5,0.3,6.9,0.5,10.4c0,1,0.5,1.5,1.5,1.5c1.7,0,3.3,0.1,5,0.1c10.7,0.3,21.3,0.6,32,0.4
		c7.1-0.1,14.1-0.9,21-2.5c6.5-1.6,12.6-4.1,17.6-8.8c0.9-0.9,1.8-1.7,3.1-1.8c0.8,0.2,0.7,0.8,0.7,1.3c0,12.5,0,24.9,0,37.4
		c0,0.4,0,0.8-0.1,1.2c-0.1,0.7-0.6,0.8-1.2,0.7c-1.3-0.3-2.2-1.1-3.1-2c-4.2-4.4-9.4-6.7-15.1-8.1c-6.1-1.5-12.3-2.1-18.5-2.4
		c-13.4-0.7-26.8-0.2-40.3,0c-0.4,0-0.8,0-1.2,0.1c-0.6,0.1-1,0.4-1.1,1c-0.1,1.1-0.2,2.2-0.2,3.3c-0.5,10.8-0.3,21.6-0.3,32.4
		c0.1,10.1,0.1,20.2,0.2,30.3c0,2.6,0.1,5.3,0.3,7.9c0.1,1.1,0.2,2.2,0.4,3.3c0.9,4.3,3.3,7.2,7.7,8.3c3,0.8,6,1.2,9,1.3
		c12.9,0.3,25.7,0.4,38.6,0c5.4-0.2,10.7-0.8,16-2.1c8.4-2,15.8-5.9,22.2-11.5c4.5-3.9,8.4-8.4,12-13.2c0.7-0.9,1.3-1.8,2-2.7
		c0.5-0.7,1.1-1.2,2.1-1.2c1.8,0,3.6,0,5.4,0c0.6,0,1,0.4,1,1.1c-0.1,1.4-0.1,2.8-0.4,4.1c-1.3,5.5-2.6,11-4,16.5
		c-1.9,7.4-3.9,14.7-5.9,22c-0.6,2.3-0.1,2.6-3.3,2.6c-0.6,0-1.1,0-1.7,0c-51.8,0-103.5-0.1-155.3-0.1c-0.1,0-0.3,0-0.4,0
		c-1.2-0.2-3,0.6-3.4-0.6c-0.6-1.6,1.4-2,2.5-2.7c3.8-2.4,6-6,7.3-10.2c1-3.3,1.6-6.7,1.7-10.2c0.1-2.1,0.1-4.2,0.1-6.2
		c0-35.6,0-71.2,0-106.8c0-9,0-18-0.2-27c-0.1-5.8-0.4-11.6-0.7-17.4c-0.1-3-1-5.7-2.2-8.4c-1.4-3.2-3.8-5.4-6.7-7.2
		c-0.9-0.6-2.5-1.2-2.2-2.2c0.4-1.5,2.1-0.8,3.2-0.8c19.7-0.2,39.3-0.4,59-0.6c25.3-0.2,50.7-0.2,76,0.2c2.6,0,5.3,0.1,7.9,0.1
		c1.9,0.1,2.1,0.2,2.6,2c1.1,4.7,2.1,9.4,3.2,14.2c2,8.9,4.1,17.8,6.1,26.7C353.9,589.4,353.9,589.9,354.1,591z"/>
	<path class="st1" d="M691.9,594.4c1.5-5.4,2.8-10.3,4.2-15.2c2.8-10,5.5-20,8.3-30c0.2-0.7,0.3-1.3,0.6-2c0.3-0.7,0.8-1.1,1.6-1.1
		c1,0,1.9,0,2.9,0c49.6,0,99.1,0,148.7,0.1c4.6,0,4.1-0.8,5.4,4.2c3.4,12.7,6.9,25.4,10.3,38c0.5,1.8,1.2,3.7,0.9,5.8
		c-1.8,0.6-3.7,0-5.6,0.1c-0.9,0-1.5-0.6-2-1.3c-2-2.8-4.1-5.6-6.2-8.3c-3.6-4.7-7.7-9.1-12.4-12.8c-8.8-6.9-18.8-10.4-29.9-10.7
		c-1.5,0-3,0.1-4.5,0.5c-3.8,1-5.9,3.4-6.6,7.2c-0.4,2.2-0.5,4.4-0.6,6.6c-0.1,2.8,0,5.5,0,8.3c0,41-0.1,82-0.1,123
		c0,6.6,0,13.3,0.6,19.9c0.2,2.4,0.7,4.6,1.5,6.9c1.4,3.9,3.8,7,7.3,9.3c0.7,0.4,1.4,0.9,2.1,1.3c0.5,0.3,0.9,0.8,0.8,1.4
		c-0.1,1-1,0.8-1.6,0.8c-3.6,0-7.2,0-10.8,0c-18.5,0-37.1,0-55.6-0.1c-0.8,0-1.7,0.4-2.3-0.5c-0.4-0.5,0.2-1.6,1.5-2.2
		c5.6-2.6,8.1-7.2,9.2-13c0.9-4.4,1.3-8.8,1.4-13.2c0.1-3.5,0.2-6.9,0.1-10.4c-0.5-44.2-0.1-88.4-0.3-132.5c0-1.9-0.2-3.9-0.4-5.8
		c-0.3-3.3-2.3-5.2-5.3-6.2c-4-1.3-8.1-1.6-12.3-0.8c-9.7,1.7-18.1,6-25.5,12.2c-6.5,5.4-12.2,11.7-16.4,19.1
		c-0.7,1.3-1.6,1.8-2.9,1.7C696.1,594.4,694.3,594.4,691.9,594.4z"/>
	<path class="st1" d="M171.1,700.7c-2.1,9.9-4.1,19.3-6.1,28.6c-1,4.9-2.1,9.7-3.1,14.6c-0.4,2-0.7,2.2-2.8,2.3c-1,0-1.9,0-2.9,0
		c-50.7-0.1-101.3-0.2-152-0.3c-1.4,0-3,0.8-4.1-0.7c0.5-1.6,2-1.8,3.1-2.5c5.7-3.6,7.9-9.1,8.4-15.4c0.4-5.4,0.6-10.8,0.6-16.2
		c0.5-42.7,0.5-85.3,0-128c-0.1-6-0.4-11.9-0.6-17.9c-0.1-2.8-0.8-5.5-1.7-8.1c-1.1-2.9-3-5.3-5.7-7c-1.3-0.8-2.5-1.7-3.7-2.6
		c-0.2-0.1-0.3-0.5-0.2-0.7c0-0.2,0.3-0.5,0.5-0.5c0.8-0.1,1.7-0.2,2.5-0.2c21.2-0.6,42.3-0.7,63.5,0c0.3,0,0.6,0,0.8,0
		c0.9,0.2,2.2-0.4,2.5,0.8c0.2,1-1,1.5-1.8,2.1c-0.5,0.4-1.1,0.8-1.7,1.2c-2.8,1.8-4.6,4.4-5.8,7.4c-1,2.7-1.8,5.5-1.9,8.5
		c-0.1,3.7-0.3,7.5-0.3,11.2c0,39.3,0,78.7,0,118c0,6-0.3,11.9-0.4,17.9c-0.1,2.6,0.2,5.2,0.7,7.8c1.1,5.1,4.2,8.3,9.4,9.2
		c1.1,0.2,2.2,0.3,3.3,0.4c12.2,0.7,24.4,0.7,36.5-0.1c10.3-0.7,20.2-2.9,29.7-7.2c10.1-4.6,18.4-11.1,24.1-20.8
		c0.8-1.4,1.8-1.9,3.3-1.8C167.1,700.8,168.9,700.7,171.1,700.7z"/>
	<path class="st1" d="M481.2,746.1c-25.6,0-51.2,0-76.8,0c-1,0-2.6,0.7-3-0.5c-0.6-1.5,1.4-1.7,2.2-2.6c0.2-0.2,0.4-0.4,0.7-0.5
		c4.9-2.5,6.9-6.9,8-12c0.5-2.6,0.7-5.2,0.8-7.8c0.2-13.6,0.5-27.1,0.5-40.7c0-28.3-0.2-56.5-0.3-84.8c0-5.7,0.1-11.4,0.2-17
		c0.1-6.1,0.1-12.2-1.3-18.2c-0.4-1.7-1-3.5-1.6-5.1c-1.4-3.3-3.6-5.9-6.8-7.6c-0.8-0.5-1.7-1-2.4-1.5c-0.2-0.1-0.3-0.5-0.2-0.7
		c0-0.2,0.3-0.5,0.5-0.5c0.8-0.1,1.6-0.2,2.5-0.2c21.5-0.6,42.9-0.6,64.4,0c0.8,0,1.7,0.1,2.5,0.3c0.4,0.1,0.6,0.7,0.3,1
		c-0.5,0.6-1.1,1.3-1.8,1.7c-6.2,3.3-8.2,9-9.1,15.4c-0.6,4.5-0.8,9.1-0.8,13.7c0,37.5,0,75.1,0,112.6c0,6.6-0.1,13.3-0.2,19.9
		c0,2.4,0,4.7,0.1,7.1c0.1,1.5,0.4,3,0.8,4.5c1.2,4.1,3.9,6.6,8,7.6c1.5,0.3,3,0.6,4.5,0.7c12.2,0.8,24.4,0.6,36.5-0.1
		c12-0.8,23.4-3.8,34.2-9.4c6.9-3.6,12.7-8.4,17-14.9c1-1.5,2-3,3.1-4.4c0.5-0.7,1.2-1.1,2.1-1.1c7.1,0.2,6.7-1.2,5.2,5.9
		c-2.8,12.4-5.5,24.8-8.3,37.3c-0.5,2.2-0.6,2.2-2.7,2.3c-1,0-1.9,0-2.9,0c-25.2,0-50.4,0-75.6,0
		C481.2,746.2,481.2,746.1,481.2,746.1z"/>
	<path class="st1" d="M608.9,643.6c0-19.1,0.1-38.2,0-57.4c0-7.1-0.5-14.1-0.7-21.2c-0.1-2.7-0.7-5.2-1.7-7.7
		c-1.1-3.1-3.1-5.5-5.9-7.3c-1.4-0.9-3.4-1.2-3.8-3.3c1.5-1.1,3.2-0.6,4.8-0.6c20.6-0.7,41.3-0.6,61.9,0.1c1,0,2.6-0.5,3,0.6
		c0.6,1.4-1.1,2-2.1,2.6c-6.4,4-8.7,10.2-8.9,17.3c-0.3,9.8-0.6,19.7-0.6,29.5c0,29,0.1,57.9,0.1,86.9c0,9.8,0.3,19.7-0.1,29.5
		c-0.2,6.1,0,12.2,1.4,18.2c0.4,1.6,0.9,3.2,1.6,4.7c1.2,2.9,3.1,5.2,5.8,6.9c0.9,0.6,1.9,1.2,2.8,1.8c0.5,0.3,1,0.8,0.8,1.3
		c-0.2,0.9-1,0.7-1.7,0.7c-6.4,0-12.7,0-19.1,0c-15.1,0-30.2-0.1-45.3-0.1c-1.2,0-2.5,0-3.7-0.1c-0.2,0-0.5-0.2-0.6-0.4
		c-0.1-0.2,0-0.6,0.1-0.7c0.7-0.7,1.4-1.4,2.2-1.9c5.9-3.1,8-8.5,9-14.6c0.7-4.4,0.8-8.8,0.8-13.3C609,691.3,609,667.5,608.9,643.6
		C609,643.6,608.9,643.6,608.9,643.6z"/>
	<path class="st1" d="M122.3,877.6c0.7,1.7,2,2.5,3.3,3.2c3.9,2,5.5,5.2,5.7,9.4c0.2,4.6-1.2,8.5-4.8,11.4c-1.7,1.4-3.7,2.3-5.9,3.1
		c-4.2,1.5-8.6,2-13,2.2c-6.8,0.3-13.6,0-20.3-0.6c-0.2,0-0.5-0.2-0.7-0.4c-0.5-1-0.2-2.1-0.2-3.2c0-14.8,0.1-29.6,0.1-44.4
		c0-1,0-1.9,0.1-2.9c0-0.4,0.3-0.7,0.8-0.8c0.3-0.1,0.5-0.1,0.8-0.1c8.7-0.2,17.4-0.9,26.1,0.2c1.8,0.2,3.6,0.4,5.3,1
		c6.3,1.9,10.2,8.5,8.7,14.6c-0.5,2.2-1.7,4.1-3.4,5.5C124,876.2,123.1,876.9,122.3,877.6z M104.1,881.6c-2.8,0.1-5.4,0.3-8.1,0.4
		c-1,0-1.5,0.6-1.5,1.5c-0.1,3.2-0.3,6.3-0.3,9.5c0,2.3-0.6,4.6,0.4,6.9c2.1,0.7,4.4,0.4,6.5,0.6c3.9,0.4,7.7,0.2,11.6-0.3
		c2.2-0.3,4.3-0.9,6.3-2c3.1-1.7,4.4-4.4,4.3-7.9c-0.1-3.3-1.9-5.4-4.7-6.7c-1-0.5-2.1-0.8-3.1-1.1
		C111.6,881.5,107.8,881.7,104.1,881.6z M103.9,860.4C103.9,860.4,103.9,860.4,103.9,860.4c-2.8,0-5.5,0-8.3,0c-1,0-1.5,0.6-1.5,1.6
		c0,3.9-0.1,7.8-0.1,11.6c0,1.9,0.7,2.6,2.5,2.6c4.8,0,9.7,0,14.5-0.1c1.8,0,3.6-0.4,5.2-1.3c2.8-1.4,4.6-3.6,4.4-6.9
		c-0.2-3.3-2-5.4-4.8-6.7c-1.5-0.7-3.2-1-4.9-1C108.6,860.4,106.3,860.4,103.9,860.4z"/>
	<path class="st1" d="M594.6,879.1c-0.2,9.1-0.3,16.4-0.5,23.7c0,0.7,0,1.4-0.1,2.1c0,0.8-0.5,1.3-1.3,1.3c-2.2,0-4.4,0-6.6,0
		c-0.7,0-1.3-0.3-1.8-0.9c-0.5-0.7-1-1.3-1.4-2c-7.9-11.2-15.7-22.4-23.6-33.6c-0.7-1-1.5-1.9-2.3-2.9c-0.3-0.3-0.7-0.6-1.1-0.3
		c-0.3,0.2-0.5,0.7-0.5,1c-0.1,1.1-0.1,2.2-0.1,3.3c-0.1,10.4-0.1,20.8-0.2,31.1c0,0.8,0,1.7,0,2.5c-0.1,1.7-0.1,1.8-2,1.8
		c-0.6,0-1.1,0-1.7,0c-3.4,0-3.5,0.5-3.8-3.7c-0.1-1.5-0.2-3-0.2-4.6c0-13,0-26,0-39c0-1.1,0.1-2.2,0.1-3.3c0-0.8,0.5-1.2,1.3-1.3
		c0.1,0,0.3,0,0.4,0c7.4-0.3,7.5-0.3,11.9,5.9c7.1,10.1,14,20.2,21.1,30.3c0.9,1.2,1.6,2.6,2.9,3.5c0.2,0.1,0.5,0.2,0.7,0.1
		c0.2-0.1,0.4-0.4,0.4-0.6c0.1-1.1,0.1-2.2,0.1-3.3c0.1-10.5,0.1-21,0.2-31.6c0-1.1,0-2.2,0.1-3.3c0-0.6,0.4-1,1-1.1
		c1.5-0.1,3-0.1,4.6-0.1c1,0,1.5,0.7,1.5,1.6c0.1,1.2,0.2,2.5,0.2,3.7C594.3,866.7,594.5,873.7,594.6,879.1z"/>
	<path class="st1" d="M782.1,854.8c2.2-0.8,4.5-0.7,6.9,0c0.1,1.1,0.1,2.2,0.1,3.3c0,14.8,0,29.6,0,44.5c0,0.8,0,1.7-0.1,2.5
		c-0.1,0.6-0.5,1-1.1,1c-2.5,0-5,0-7.5,0c-0.6,0-1-0.3-1.3-0.8c-0.4-0.7-0.9-1.4-1.4-2.1c-7.3-11.1-15-21.9-23-32.6
		c-1-1.3-2.1-2.6-3.1-3.9c-0.3-0.3-0.6-0.5-1-0.4c-0.5,0.2-0.4,0.7-0.4,1.1c0,10.5,0,21-0.1,31.6c0,1.8,0,3.6,0,5.4
		c0,1.6-0.3,1.9-2,1.8c-6.4-0.4-5.5,0.6-5.5-5.7c0-14,0-28,0-42c0-1,0-1.9,0-2.9c0-0.6,0.3-1.1,0.9-1.1c2.6,0,5.3,0,7.9,0.1
		c0.6,0,1,0.4,1.3,0.8c0.5,0.8,1.1,1.6,1.6,2.4c7.5,11.1,15.1,22.2,23,33c0.7,1,1.5,2,2.3,3c0.2,0.3,0.4,0.7,1,0.6
		c0.6-0.1,0.6-0.6,0.6-0.9c0.1-1.2,0.1-2.5,0.1-3.7c0.1-10.2,0.1-20.5,0.2-30.7C781.7,857.6,781.5,856.2,782.1,854.8z"/>
	<path class="st1" d="M277.8,906c-0.4-3.4-0.4-47,0-51.2c0.9-0.7,2.1-0.5,3.2-0.6c7.6-0.6,15.2-0.9,22.8,0.3
		c2.5,0.4,4.9,0.9,7.2,1.8c7.8,2.8,12.6,8.2,14.1,16.4c1.1,6.1,0.8,12.1-1,18c-1.9,6.2-6,10.5-11.9,13c-4,1.7-8.2,2.3-12.5,2.7
		C292.3,907.1,285.1,906.7,277.8,906z M285.4,880.1C285.4,880.1,285.4,880.1,285.4,880.1c0,5.3,0,10.5,0,15.8c0,1,0,1.9,0,2.9
		c0,1,0.5,1.5,1.5,1.5c4.7,0,9.4,0,14.1-0.1c1.4,0,2.7-0.4,4.1-0.7c6.1-1.4,9.9-5.2,11.5-11.2c1.3-4.9,1.3-9.9,0.4-14.8
		c-1.2-6.9-5.4-10.9-12.2-12.4c-6-1.3-12.1-0.8-18.2-0.7c-0.6,0-1,0.4-1.1,1c-0.1,1-0.1,1.9-0.1,2.9
		C285.4,869.6,285.4,874.8,285.4,880.1z"/>
	<path class="st1" d="M690.3,900.4c0.1,0.3,0.4,0.5,0.4,0.8c0.4,5.8,0.7,5-4.5,5c-11.3,0-22.7,0-34-0.1c-1.4,0-2.8,0.3-4-0.3
		c-0.6-0.9-0.4-1.9-0.4-2.9c0-15.1,0.1-30.2,0.2-45.3c0-0.7,0-1.4,0-2.1c0-0.8,0.5-1.2,1.3-1.2c0.3,0,0.6,0,0.8,0
		c12-0.4,24.1-0.7,36.1,0c1,0.1,1.9,0.1,2.9,0.2c0.8,0.1,1.3,0.6,1.3,1.3c0,4.8,0.5,4.5-3.9,4.5c-8.7,0-17.4,0.1-26.1,0.1
		c-1.1,0-2.2,0-3.3,0.1c-0.8,0-1.3,0.6-1.3,1.3c0,4.2,0,8.3,0.1,12.5c0,0.8,0.6,1.2,1.4,1.2c1.1,0.1,2.2,0.1,3.3,0.1
		c7.5,0,14.9,0,22.4,0c1.1,0,2.2,0,3.3,0c0.8,0,1.3,0.4,1.4,1.2c0.7,4.4,0.2,5-4.3,5c-7.7,0-15.5,0-23.2,0c-1.1,0-2.2,0-3.3,0.1
		c-0.6,0-1,0.5-1,1.1c-0.1,0.8-0.1,1.7-0.1,2.5c0,4.2-0.1,8.3,0,12.5c0,1.7,0.2,1.9,2,1.9c1,0,1.9,0,2.9,0c8.6,0,17.2,0,25.7,0.1
		C687.6,900.2,689,899.9,690.3,900.4z"/>
	<path class="st1" d="M183.2,855.6c0.9-0.5,1.9-0.3,2.9-0.3c11.8-0.1,23.5-0.1,35.3-0.1c0.7,0,1.4,0,2.1,0c0.8,0,1.2,0.5,1.3,1.3
		c0.1,0.7,0.1,1.4,0.1,2.1c0,0.8-0.4,1.3-1.2,1.4c-1,0.1-1.9,0.1-2.9,0.1c-8.6,0.1-17.2,0.1-25.7,0.2c-1.1,0-2.2,0-3.3,0
		c-0.7,0-1.3,0.4-1.5,1.2c-1.1,4.5-1,9,0,13.6c0.2,0.8,0.7,1.1,1.5,1.1c1,0,1.9,0,2.9,0c7.5,0,14.9,0.1,22.4,0.1
		c1.1,0,2.2,0,3.3,0.1c0.8,0,1.3,0.4,1.3,1.3c0,0.8,0,1.7-0.1,2.5c-0.1,1.5-0.5,1.8-2.1,1.9c-4.8,0-9.7,0-14.5,0
		c-3.9,0-7.7,0-11.6,0c-2.8,0-3.2,0.3-3.5,2.9c-0.5,4.7-0.3,9.4,0.4,14.1c0.2,1,0.7,1.4,1.7,1.4c1.1,0,2.2,0,3.3,0
		c8.7,0,17.4,0.1,26.1,0.1c1,0,1.9,0,2.9,0.1c0.4,0,0.8,0.3,0.8,0.8c0,0.8,0.1,1.7,0.1,2.5c-0.1,1.6-0.3,1.8-2,1.9
		c-0.8,0-1.7,0-2.5,0c-11.1,0-22.1,0-33.2,0c-1,0-1.9,0-2.9,0c-1,0-1.5-0.6-1.5-1.6c0-0.6,0-1.1,0-1.7c-0.1-14.8-0.1-29.6-0.2-44.4
		C182.9,857.2,182.8,856.3,183.2,855.6z"/>
	<path class="st1" d="M399.6,880c0-7.2,0-14.4,0-21.6c0-1,0-1.9,0.1-2.9c0-0.6,0.5-0.9,1.1-1c0.3,0,0.6-0.1,0.8,0
		c6.8,0.1,5.8-1.1,5.8,5.5c0.1,12,0,24.1,0.1,36.1c0,3.8,0,3.9,3.9,4.1c5.7,0.3,11.3,0.2,17-0.4c1.9-0.2,3.9-0.4,5.8,0
		c2.3,0.5,3,1.4,2.9,3.8c-0.1,1.8-0.5,2.3-2.5,2.5c-2.2,0.2-4.4,0.5-6.6,0.6c-8.7,0.3-17.4,0.2-26.1-0.5c-2.1-0.2-2.2-0.2-2.2-2.6
		c0-5.5,0-11.1,0-16.6C399.6,884.7,399.6,882.3,399.6,880C399.6,880,399.6,880,399.6,880z"/>
	<path class="st1" d="M486.3,905.9c0-17.1,0-34.1,0-51.1c0.6-0.1,1.2-0.4,1.7-0.4c7.4,0.3,6.1-1.2,6.2,6c0.1,13.7,0,27.4,0,41.1
		c0,1.1,0,2.2,0,3.3c0,0.8-0.4,1.3-1.2,1.3C490.7,906.2,488.5,906.5,486.3,905.9z"/>
</g>
</svg>
