<?xml version="1.0" encoding="utf-8"?>
<!-- Generator: Adobe Illustrator 25.0.0, SVG Export Plug-In . SVG Version: 6.00 Build 0)  -->
<svg version="1.1" id="Слой_1" xmlns="http://www.w3.org/2000/svg" xmlns:xlink="http://www.w3.org/1999/xlink" x="0px" y="0px"
	 viewBox="0 0 1000 443" style="enable-background:new 0 0 1000 443;" xml:space="preserve">
<style type="text/css">
	.st0{fill:#FEFEFE;}
	.st1{fill:#01A0E2;}
	.st2{fill:#02A0E2;}
	.st3{fill:#234082;}
	.st4{fill:#03A1E2;}
	.st5{fill:#07A2E3;}
	.st6{fill:#05A1E2;}
</style>
<g>
	<path class="st0" d="M233.34,420.98c-11.32,5.1-23.13,8.55-35.38,10.53c-8.05,1.31-16.17,1.75-24.31,1.56
		c-17.27-0.41-34.54-0.23-51.81,0.04c-27.61,0.44-55.23,0.7-82.84,0.24c-5.52-0.09-11.04-0.36-16.52-1.07
		c-9.4-1.22-15.93-6.11-19.27-15.08c-1.31-3.51-2.08-7.13-2.34-10.85c-0.24-3.5-0.41-7.01-0.45-10.52
		c-0.33-32.92-0.17-65.83-0.09-98.74c0.08-29,0.09-58,0.16-87c0.03-10.84-0.09-21.67-0.42-32.51c-0.13-4.01-0.05-8.03,0.24-12.04
		c0.3-4.01,0.88-7.99,2.36-11.75c3.49-8.88,9.67-14.58,19.34-16.12c1.89-0.3,3.78-0.53,5.69-0.56c3.31-0.05,6.62-0.07,9.94-0.07
		c11.45-0.01,22.9,0.03,34.34-0.02c5.52-0.02,11.04-0.22,16.57-0.3c2.5-0.03,5,0.22,7.43,0.6c0.42,0.92,0.01,1.64-0.3,2.37
		c-0.97,2.32-2.16,4.52-3.49,6.65c-2.93,4.69-6.37,9.01-9.5,13.55c-0.57,0.82-1.24,1.26-2.25,1.2c-0.8-0.04-1.6,0.01-2.4,0.01
		c-16.37,0.11-32.74,0.23-49.11,0.35c-3.96,0.03-3.7-0.29-4.17,3.72c-0.43,3.68-0.72,7.4-0.8,11.09
		c-0.17,7.73-0.11,15.45,0.17,23.18c0.27,7.32,0.36,14.65,0.42,21.97c0.24,34.11,0.43,68.24,0.66,102.35
		c0.15,22.68,0.32,45.35,0.52,68.03c0.04,4.71,0.24,9.43,0.39,14.14c0.04,1.5,0.23,1.78,1.67,1.98c2.29,0.32,4.58,0.6,6.88,0.73
		c12.64,0.73,25.29,0.83,37.94,0.46c6.82-0.2,13.65-0.19,20.45-0.92c0.6-0.07,1.2-0.13,1.8-0.17c0.24-0.02,0.4-0.11,0.41-0.36
		c0.01-0.19,0.03-0.42-0.07-0.55c-0.17-0.24-0.41-0.44-0.65-0.62c-9.12-7.14-17.45-15.11-24.92-23.95
		c-4.8-5.69-8.84-11.93-12.74-18.26c-3.53-5.73-6.91-11.53-9.49-17.76c-3.6-8.66-5.88-17.68-7.36-26.92
		c-1.76-10.94-2.22-21.96-1.68-33c0.78-15.92,3.52-31.47,9.57-46.33c6.74-16.55,16.69-30.81,30.38-42.4
		c3.69-3.12,7.63-5.9,11.95-8.07c4.34-2.18,8.88-3.69,13.77-4.06c5.12-0.39,9.99,0.45,14.7,2.44c5.54,2.34,10.28,5.83,14.62,9.93
		c7.08,6.68,12.68,14.47,17.39,22.95c5.22,9.4,9.54,19.22,13.54,29.18c5.73,14.23,10.85,28.7,16.19,43.08
		c4.85,13.08,9.98,26.04,16.32,38.48c4.16,8.15,8.81,16,14.46,23.22c3.85,4.92,8.12,9.43,13.1,13.23c3.77,2.88,7.83,5.24,12.27,6.96
		c9.02,3.47,18.03,3.4,27.06,0.06c5.32-1.97,10.13-4.85,14.57-8.34c8.86-6.97,16.06-15.42,21.85-25.06c3.1-5.15,6-10.43,9.02-15.64
		c1.04-1.8,2.17-3.55,3.88-5.76c0.22,3.2-0.38,5.54-0.97,7.87c-3.41,13.4-8.58,26.1-15.83,37.89
		C280.94,391.03,259.78,409.05,233.34,420.98z"/>
	<path class="st0" d="M353.71,202.87c-0.01,17.76-0.04,35.52-0.04,53.28c0,23.28,0.09,46.56,0.04,69.84
		c-0.05,23.08-0.19,46.16-0.35,69.24c-0.03,4.71-0.17,9.43-0.55,14.13c-0.63,7.69-3.87,14.05-10.34,18.53
		c-3.02,2.09-6.4,3.37-10.04,3.8c-3.69,0.45-7.38,0.85-11.09,1.07c-7.22,0.43-14.44,0.72-21.67,0.76
		c-17.98,0.11-35.95-0.41-53.91-1.07c-0.6-0.03-1.19-0.09-2.24-0.18c1.1-1.57,2.18-2.44,3.37-3.16c2.06-1.24,4.11-2.52,6.26-3.59
		c4.88-2.43,9.38-5.41,13.67-8.75c2.38-1.85,4.86-3.55,7.27-5.36c1.98-1.49,4.25-2.26,6.67-2.54c2.49-0.29,4.99-0.55,7.5-0.61
		c8.04-0.19,16.07-0.07,24.1,0.23c4.12,0.14,8.24,0.11,12.36,0.12c1,0,2-0.09,3-0.21c1.54-0.18,1.56-0.23,1.6-1.89
		c0.02-0.7,0.01-1.4,0.01-2.1c-0.05-79.78-0.1-159.56-0.15-239.33c0-0.9-0.01-1.81-0.02-2.71c-0.01-0.75-0.44-1.07-1.14-1.08
		c-0.7-0.02-1.41-0.02-2.11-0.02c-21.79-0.04-43.58-0.08-65.37-0.11c-0.6,0-1.21-0.01-1.81,0c-1.48,0.04-1.67,0.3-1.06,1.53
		c0.98,1.98,2.17,3.84,3.43,5.66c4.8,6.92,9.6,13.86,14.36,20.8c4.6,6.7,9.18,13.42,13.74,20.15c7.08,10.45,12.63,21.63,16.25,33.75
		c2.96,9.88,4.52,19.96,4.36,30.26c-0.27,16.9-4.53,32.7-13.5,47.13c-4.87,7.84-10.87,14.67-18.28,20.2
		c-5.93,4.43-12.41,7.78-19.68,9.39c-12.09,2.67-23.11,0.41-32.87-7.37c-4.83-3.85-8.8-8.5-12.39-13.49
		c-4.41-6.12-8.12-12.66-11.51-19.39c-5.78-11.48-10.57-23.39-15.09-35.4c-5.44-14.45-10.52-29.04-16.22-43.39
		c-4.75-11.94-9.84-23.71-16.12-34.94c-2.55-4.56-5.21-9.05-8.33-13.24c-2.53-3.39-5.32-6.54-8.48-9.35
		c-6.46-5.74-14.01-9.27-22.46-10.93c-4.15-0.81-8.33-1.29-12.56-1.31c-0.9,0-1.81-0.03-2.71-0.09c-0.5-0.04-0.67-0.46-0.54-0.87
		c0.29-0.85,0.61-1.7,1.01-2.49c1.03-2.07,2.27-4.03,3.69-5.85c6.37-8.19,11.59-17.1,16.77-26.05
		c16.97-29.3,31.76-59.65,43.91-91.28c2.81-7.3,5.46-14.65,7.66-22.17c1.01-3.47,2.13-6.9,3.82-10.12c0.36-0.68,0.61-1.82,1.37-1.81
		c1.09,0.03,0.99,1.33,1.27,2.1c2.35,6.4,4.68,12.81,6.92,19.25c4.43,12.69,9.57,25.11,14.87,37.45
		c7.67,17.88,15.69,35.61,24.58,52.92c3.03,5.9,6.2,11.7,9.62,17.37c0.88,1.46,1.83,2.88,2.86,4.23c1.53,2,3.56,3.17,6.1,3.5
		c1.7,0.23,3.39,0.38,5.1,0.36c18.47-0.27,36.95-0.5,55.42-0.82c7.24-0.13,14.46-0.03,21.68,0.44c3.7,0.24,7.38,0.82,10.96,1.88
		c6.84,2.02,11.49,6.33,13.8,13.13c0.68,2,1.25,4.02,1.62,6.1c0.71,3.95,1.14,7.94,1.32,11.95
		C353.93,181.2,353.71,192.04,353.71,202.87z"/>
	<path class="st0" d="M440.17,425.68c-1.38,1.8-3.08,3.2-5.19,3.96c-5.68,2.02-11.44,2.18-17.08,0.04c-5.2-1.97-7.6-6.25-8.43-11.53
		c-0.09-0.6,0.26-0.95,0.83-1.01c1.99-0.22,3.99-0.41,5.98-0.61c0.72-0.08,1.1,0.34,1.32,0.96c0.24,0.66,0.45,1.33,0.71,1.98
		c0.5,1.23,1.27,2.27,2.34,3.07c3.18,2.4,8.73,1.81,10.89,0.42c0.85-0.55,1.58-1.23,2.08-2.13c1.22-2.18,0.65-4.44-1.47-5.73
		c-1.21-0.73-2.59-1.07-3.94-1.44c-2.32-0.63-4.66-1.2-6.97-1.86c-1.93-0.55-3.82-1.26-5.48-2.42c-3.38-2.35-5.2-5.63-4.9-9.73
		c0.31-4.34,2.63-7.48,6.65-9.29c1.47-0.66,3.03-1.1,4.62-1.27c3.3-0.37,6.61-0.39,9.86,0.5c4.87,1.34,8.01,4.38,9.11,9.38
		c0.06,0.3,0.12,0.59,0.15,0.89c0.14,1.1-0.17,1.52-1.23,1.56c-1.1,0.05-2.2,0.01-3.31,0.01v0.11c-0.3,0-0.61-0.04-0.9,0.01
		c-1.85,0.36-2.92-0.26-3.46-2.2c-0.52-1.85-2.02-2.87-3.93-3.33c-2.11-0.51-4.18-0.48-6.23,0.16c-0.75,0.24-1.51,0.59-2.13,1.05
		c-1.72,1.29-1.74,3.5-0.1,4.92c0.77,0.67,1.69,1.08,2.66,1.36c1.92,0.57,3.85,1.14,5.78,1.64c2.33,0.6,4.64,1.26,6.87,2.18
		C443.81,410.85,444.05,420.62,440.17,425.68z"/>
	<path class="st0" d="M473.62,424.8c-0.31-2.81-0.13-5.61-0.16-8.42c-0.03-2.81-0.01-5.62-0.09-8.43c-0.11-3.55-2.12-5.71-5.34-6.88
		c-0.75-0.28-1.54-0.5-2.33-0.59c-2.8-0.34-5.61-0.41-8.41-0.03c-4.12,0.57-7.01,2.78-8.52,6.71c-0.41,1.09-0.25,1.47,0.83,1.7
		c1.37,0.28,2.78,0.42,4.14,0.77c1.06,0.28,1.68,0.06,2.17-0.95c0.89-1.83,2.47-2.53,4.46-2.45c0.7,0.03,1.41,0,2.1,0.08
		c2.09,0.26,2.97,1.12,3.35,3.23c0.22,1.17-0.03,1.73-1.19,2.05c-1.93,0.53-3.89,0.97-5.86,1.38c-2.06,0.43-4.13,0.83-6.08,1.66
		c-3.55,1.49-5.43,4.51-5.22,8.31c0.19,3.55,2.41,6.45,5.91,7.56c3.65,1.16,7.12,0.67,10.43-1.26c0.85-0.5,1.49-1.35,2.52-1.57
		c1.31,2.71,1.31,2.71,4.41,2.71c1.3,0.01,2.6,0,4.34,0C474.4,428.29,473.82,426.6,473.62,424.8z M465.91,418.91
		c-0.03,0.24-0.05,0.84-0.14,1.43c-0.45,2.93-2.44,4.85-5.36,5.21c-1.24,0.15-2.4-0.07-3.42-0.82c-2.47-1.81-2.18-5,0.59-6.28
		c0.63-0.29,1.32-0.47,2-0.65c1.36-0.35,2.72-0.65,4.09-0.97C465.76,416.35,465.96,416.5,465.91,418.91z"/>
	<path class="st0" d="M524.31,411.56c0.05,5.41,0.03,10.83,0.02,16.24c0,0.6-0.03,1.2-0.11,1.8c-0.06,0.42-0.38,0.73-0.82,0.73
		c-2,0.02-4.01,0.02-6.01-0.01c-0.44-0.01-0.75-0.33-0.78-0.76c-0.07-0.8-0.09-1.59-0.09-2.4c-0.01-4.41,0.03-8.82-0.03-13.23
		c-0.01-1.5-0.13-3.01-0.36-4.49c-0.35-2.15-1.57-3.15-3.7-3.2c-2.43-0.06-4.46,1.32-5.26,3.7c-0.51,1.53-0.7,3.12-0.7,4.73
		c0.01,4.11-0.01,8.22-0.03,12.34c0,0.8,0,1.6-0.04,2.4c-0.03,0.58-0.38,0.92-0.95,0.94c-1.9,0.02-3.81,0.03-5.72,0.02
		c-0.73,0-1.07-0.45-1.08-1.14c-0.02-1.31-0.03-2.61-0.03-3.91c-0.01-4.41-0.01-8.82-0.04-13.23c-0.01-1.1-0.02-2.2-0.38-3.27
		c-0.59-1.75-1.48-2.46-3.28-2.56c-3.04-0.16-5.26,1.44-5.91,4.43c-0.35,1.66-0.53,3.36-0.51,5.07c0.03,3.91,0.01,7.82,0,11.73
		c-0.01,0.7-0.03,1.4-0.09,2.1c-0.04,0.44-0.34,0.74-0.78,0.75c-2,0.03-4.01,0.04-6.01,0.01c-0.58-0.01-0.87-0.44-0.91-0.99
		c-0.03-0.5-0.03-1-0.03-1.51c-0.01-8.12-0.01-16.24,0-24.36c0-0.6,0.01-1.21,0.08-1.8c0.04-0.43,0.36-0.73,0.79-0.75
		c1-0.06,2-0.07,3-0.07c3.21-0.01,3.21,0,3.45,3.08c0.77,0.32,1.06-0.36,1.48-0.72c2.36-2.08,5.07-3.12,8.26-2.98
		c2.54,0.11,4.68,0.95,6.43,2.81c0.41,0.43,0.79,0.9,1.37,1.56c0.9-0.78,1.63-1.46,2.41-2.07c3.3-2.55,6.97-2.92,10.81-1.59
		c2.9,0.99,4.59,3.16,5.14,6.14C524.19,408.55,524.3,410.06,524.31,411.56z"/>
	<path class="st0" d="M556,427.38c0,3.28,0.14,2.99-3.16,3.01c-1.21,0.01-2.4,0.03-3.6-0.02c-1.11-0.03-1.34-0.29-1.39-1.47
		c-0.04-1-0.02-2-0.02-3v-32.71c0-0.8,0.01-1.6,0.03-2.4c0.02-0.67,0.31-1.16,1.05-1.16c2-0.02,4.01-0.02,6.01-0.01
		c0.75,0,1.03,0.48,1.05,1.16c0.02,0.6,0.03,1.2,0.03,1.8V427.38z"/>
	<path class="st0" d="M582.37,402.62c-0.62,1.79-1.27,3.57-2,5.58c-1.16-0.36-2-0.7-2.87-0.89c-2.03-0.45-3.83,0.4-4.78,2.25
		c-0.79,1.54-1.12,3.21-1.16,4.93c-0.08,4.01-0.12,8.02-0.16,12.03c-0.04,4.38,0.49,3.87-3.82,3.87c-4.56-0.01-3.99,0.6-4-3.97
		c-0.03-7.41-0.01-14.83-0.01-22.25c0-0.8,0.02-1.6,0.06-2.4c0.02-0.43,0.24-0.82,0.69-0.82c1.9-0.04,3.8-0.03,5.71-0.01
		c0.45,0.01,0.68,0.33,0.75,0.77c0.13,0.74-0.14,1.55,0.4,2.4c0.6-0.65,1.1-1.25,1.64-1.8c2.27-2.32,6.38-2.76,9.12-0.99
		C582.43,401.63,582.55,402.1,582.37,402.62z"/>
	<path class="st0" d="M604.66,402.45c-0.65,1.88-1.32,3.75-1.95,5.55c-1.16,0.19-1.9-0.48-2.76-0.66c-2.33-0.48-4.14,0.37-5.15,2.57
		c-0.68,1.48-0.97,3.05-0.99,4.67c-0.06,4.11-0.1,8.21-0.15,12.31c-0.01,0.8,0,1.6-0.05,2.4c-0.03,0.53-0.29,1.02-0.87,1.03
		c-2,0.04-4.01,0.03-6,0.01c-0.45,0-0.75-0.29-0.8-0.73c-0.07-0.59-0.1-1.19-0.1-1.79c-0.01-8.11-0.01-16.22,0-24.33
		c0-0.6,0.03-1.21,0.08-1.8c0.03-0.45,0.3-0.75,0.75-0.76c1.8-0.03,3.6-0.05,5.41-0.04c0.55,0.01,0.9,0.3,1,0.9
		c0.1,0.65-0.24,1.38,0.49,2.05c0.68-0.69,1.32-1.43,2.05-2.07c2.1-1.88,6.44-2.05,8.7-0.38
		C604.67,401.65,604.79,402.05,604.66,402.45z"/>
	<path class="st0" d="M608.34,393.19c-0.01-4.07-0.41-3.58,3.7-3.62c1.09-0.01,2.18,0.03,3.28,0.06c0.45,0.01,0.76,0.31,0.77,0.75
		c0.03,1.88,0.03,3.77,0.01,5.65c-0.01,0.45-0.36,0.7-0.79,0.71c-1.09,0.03-2.19,0.01-3.28,0.01
		C607.85,396.77,608.34,397.28,608.34,393.19z"/>
	<path class="st0" d="M616.14,406.67c0.07,6.79,0.03,13.59,0.03,20.39c0,0.8-0.01,1.6-0.05,2.4c-0.04,0.58-0.41,0.89-0.98,0.9
		c-1.9,0.02-3.8,0.02-5.7,0.01c-0.74-0.01-1.06-0.46-1.07-1.16c-0.02-0.8-0.03-1.59-0.03-2.4v-22.49c0-0.7-0.01-1.4,0.02-2.1
		c0.05-1.12,0.25-1.29,1.48-1.36c0.1-0.01,0.2-0.01,0.3-0.01c1.88,0.11,3.78-0.26,5.65,0.23
		C616.61,402.9,616.12,404.81,616.14,406.67z"/>
	<path class="st0" d="M513.85,370.03c-11.87-0.16-23.65-1.25-35.23-4c-9.62-2.29-18.84-5.59-27.43-10.53
		c-15.56-8.95-26.85-21.78-34.51-37.9c-4.33-9.12-7.19-18.7-9.04-28.6c-0.57-3.05-0.99-6.14-1.43-9.22
		c-0.18-1.28-0.01-1.49,1.1-1.61c6.39-0.63,12.78-1.24,19.17-1.88c5.1-0.5,10.18-1.04,15.28-1.54c4.79-0.48,9.58-0.99,14.38-1.4
		c2.93-0.25,2.5-0.48,3.21,2.53c0.63,2.63,1.21,5.28,1.94,7.89c1.31,4.64,3.06,9.12,5.27,13.41c6.69,12.98,17.19,21.19,31.26,24.88
		c8.33,2.19,16.83,2.67,25.39,2.17c5.92-0.35,11.78-1.14,17.5-2.81c9.14-2.67,16.77-7.57,22.56-15.2c4.6-6.07,6.81-12.92,6.35-20.53
		c-0.46-7.51-3.55-13.7-9.64-18.28c-3.88-2.93-8.22-4.99-12.73-6.72c-6.47-2.49-13.17-4.26-19.86-6.02
		c-11.64-3.07-23.32-5.96-34.94-9.09c-10.37-2.81-20.52-6.28-30.3-10.77c-3.47-1.59-6.86-3.32-10.14-5.27
		c-13.6-8.1-23.74-19.32-30.22-33.77c-2.98-6.64-4.61-13.64-5.34-20.89c-1.34-13.21,0.8-25.78,6.52-37.74
		c6.73-14.05,17.1-24.6,30.78-31.97c9.09-4.9,18.77-8.09,28.87-10.06c12.57-2.45,25.28-3.15,38.06-2.67
		c7.43,0.27,14.83,0.85,22.17,2.07c9.64,1.61,19.04,4.06,27.91,8.23c22.71,10.69,36.96,28.3,42.92,52.64
		c1.22,4.98,1.8,10.06,2.27,15.16c0.08,0.9,0.08,1.81,0.08,2.71c0.01,0.74-0.45,1.06-1.13,1.11c-0.5,0.03-1,0.05-1.51,0.06
		c-8.32,0.27-16.66,0.54-27.33,0.89c-5.78,0.21-13.91,0.5-22.04,0.78c-0.4,0.02-0.8,0.04-1.2,0.04c-0.57,0.01-0.97-0.23-1.12-0.79
		c-0.17-0.68-0.31-1.37-0.45-2.06c-0.85-4.23-2.05-8.37-3.71-12.37c-4.57-11.02-12.58-18.12-24.13-21.24
		c-4.18-1.13-8.44-1.84-12.74-2.15c-10.38-0.73-20.67-0.26-30.71,2.76c-5.14,1.54-9.9,3.84-14.19,7.09
		c-7.38,5.6-9.27,14.08-7.28,21.75c0.85,3.26,2.58,6.06,4.88,8.53c2.64,2.83,5.82,4.9,9.25,6.62c5.39,2.71,11.06,4.75,16.79,6.6
		c9.45,3.06,19.09,5.45,28.75,7.77c13.76,3.3,27.39,7.03,40.64,12.04c5.92,2.24,11.72,4.73,17.23,7.86
		c8.37,4.76,15.69,10.78,21.8,18.26c8.07,9.88,12.84,21.21,14.86,33.74c0.85,5.25,1.24,10.55,1.28,15.88
		c0.15,15.68-4.12,30.09-12.41,43.35c-8.75,13.99-20.95,23.86-36.07,30.27c-7.98,3.38-16.28,5.67-24.79,7.21
		C538.53,369.45,526.22,370.2,513.85,370.03z"/>
	<path class="st0" d="M651.32,403.84c0,7.72,0.01,15.44-0.01,23.15c-0.01,1.8-0.04,3.62-0.24,5.41c-0.52,4.76-2.94,7.98-7.7,9.27
		c-0.85,0.23-1.83,0.14-2.53,0.83c0.09-1.55,1.49-1.42,2.42-1.77c4.92-1.86,6.92-4.46,6.97-9.69c0.09-8.73,0.04-17.45,0.01-26.18
		c-0.01-1.16,0.21-2.62-1.43-2.91c-1.54-0.26-3.33-0.72-4.16,1.28c-0.77,1.88-1.85,1.54-2.99,0.52c-3.71-3.34-7.87-3.35-12.03-1.3
		c-4.33,2.13-5.8,6.16-6.03,10.71c-0.24,4.98-0.17,9.83,4.08,13.55c3.87,3.39,8.85,3.76,12.92,0.67c0.92-0.7,1.8-1.99,3.11-1.2
		c1.22,0.74,0.77,2.14,0.63,3.32c-0.68,5.79-2,7.35-6.49,7.65c-1.88,0.13-3.72-0.18-5.01-1.58c-1.88-2.03-4.33-1.88-6.68-2.15
		c-1.64-0.18-1.91,0.78-1.46,2.08c1,2.96,3.35,4.34,6.13,5.27c1.02,0.34,2.53,0.05,2.77,1.71c-1.12-0.76-2.49-0.65-3.72-1.09
		c-1.64-0.58-3.13-1.36-4.3-2.65c-1.4-1.55-2.14-3.37-2.12-5.47c0.01-0.6,0.36-0.97,0.93-0.92c2.29,0.24,4.58,0.55,6.87,0.82
		c0.78,0.09,1.25,0.53,1.53,1.25c0.41,1.05,1.31,1.45,2.32,1.7c2.02,0.48,4,0.24,5.91-0.46c1.09-0.4,1.83-1.24,2.15-2.36
		c0.18-0.67,0.26-1.39,0.26-2.08c0.03-1.56,0.33-3.13,0.07-4.66c-1.08-0.12-1.36,0.66-1.85,1.1c-4.67,4.28-11.63,3.01-14.99-0.56
		c-1.84-1.96-3.12-4.2-3.66-6.79c-0.79-3.78-0.79-7.58,0.33-11.31c1.02-3.42,3.09-6.01,6.33-7.65c3.3-1.66,9-1.9,12.63,1.68
		c0.4,0.4,0.69,1.01,1.43,0.96c0.6-0.86-0.21-2.15,0.58-2.78c0.97-0.79,2.31-0.3,3.49-0.37c0.8-0.04,1.61,0.01,2.4,0.03
		c0.74,0.02,1.06,0.45,1.07,1.14C651.3,402.63,651.32,403.24,651.32,403.84z"/>
	<path class="st0" d="M684.25,429.06c-0.97-2.47-1.22-5.04-1.19-7.67c0.04-3.11,0.06-6.22,0.06-9.32c0-1.31,0-2.61-0.11-3.9
		c-0.31-3.89-2.03-6.17-5.74-7.19c-4.23-1.16-8.54-1.18-12.77,0.08c-3.21,0.95-5.16,3.31-6.22,6.43c-0.26,0.75-0.04,1.17,0.7,1.32
		c1.37,0.28,2.78,0.43,4.13,0.78c1.11,0.28,1.88,0.23,2.44-0.95c0.88-1.85,2.5-2.49,4.47-2.4c0.8,0.04,1.61,0.01,2.4,0.14
		c1.9,0.32,2.75,1.29,2.94,3.24c0.12,1.19-0.14,1.73-1.27,2.03c-1.93,0.51-3.89,0.94-5.85,1.36c-2.06,0.45-4.12,0.83-6.06,1.69
		c-3.47,1.53-5.19,4.27-5.07,8.07c0.11,3.57,2.27,6.56,5.71,7.68c3.85,1.26,7.51,0.74,10.95-1.41c0.74-0.46,1.27-1.31,2.27-1.34
		c1.16,2.67,1.16,2.68,4.11,2.68c1.39,0.01,2.79,0,4.05,0C684.52,429.82,684.4,429.43,684.25,429.06z M675.4,419.14
		c-0.01,0.17-0.02,0.57-0.06,0.97c-0.28,3.28-2.96,5.63-6.26,5.47c-1.49-0.07-2.68-0.7-3.52-1.93c-1.18-1.73-0.73-3.86,1.07-4.9
		c0.68-0.39,1.46-0.64,2.22-0.85c1.34-0.36,2.71-0.65,4.07-0.96C675.4,416.36,675.46,416.41,675.4,419.14z"/>
	<path class="st0" d="M704.8,427.63c0.24,2.35,0.62,2.43-2.36,3.12c-1.98,0.45-3.99,0.53-5.96,0.08c-3.08-0.7-4.65-2.46-5-5.6
		c-0.17-1.59-0.13-3.2-0.16-4.8c-0.03-1.3-0.01-2.61-0.01-3.9c0-2.4-0.01-4.81,0-7.21c0-1.74,0.1-2.42-2.08-2.31
		c-0.3,0.02-0.63,0.03-0.89-0.1c-0.23-0.11-0.51-0.39-0.53-0.62c-0.08-1-0.1-2-0.09-3c0.01-2.19,0.02-2.19,2.2-2.44
		c1.16-0.13,1.31-0.29,1.39-1.51c0.01-0.09,0-0.2,0.01-0.3c0.14-1.37-0.53-2.99,0.4-4.08c0.86-1.02,2.24-1.64,3.47-2.29
		c1.19-0.63,2.16-1.78,3.69-1.68c0.53,1.24,0.21,2.53,0.26,3.8c0.06,1.6,0,3.21,0.04,4.81c0.03,0.93,0.33,1.18,1.3,1.24
		c0.3,0.02,0.6,0.01,0.9,0.01c3.48-0.03,3.11-0.13,3.13,3.35c0.01,0.6-0.01,1.21-0.04,1.8c-0.03,0.58-0.35,0.94-0.92,0.97
		c-1,0.04-2,0.02-3.01,0.06c-1.17,0.04-1.37,0.21-1.37,1.45c-0.02,4.51,0,9.02,0.02,13.52c0,0.4,0.03,0.81,0.14,1.19
		c0.2,0.75,0.75,1.21,1.49,1.29c0.58,0.07,1.2,0,1.79-0.07c1.89-0.21,1.89-0.23,2.08,1.72C704.73,426.63,704.75,427.13,704.8,427.63
		z"/>
	<path class="st0" d="M717.83,393.82c0.03,3.08,0.22,3.01-2.89,3c-0.4-0.01-0.8-0.01-1.21,0c-4.21-0.06-3.72,0.49-3.74-3.64
		c-0.01-4.02-0.36-3.63,3.47-3.6C718.47,389.61,717.78,388.87,717.83,393.82z"/>
	<path class="st0" d="M717.8,406.98c0.11,6.72,0.03,13.45,0.02,20.17c0,0.8-0.03,1.6-0.08,2.4c-0.03,0.45-0.34,0.7-0.77,0.77
		c-0.3,0.05-0.6,0.08-0.9,0.06c-1.88-0.11-3.79,0.29-5.66-0.24c-0.9-1.81-0.32-3.72-0.39-5.59c-0.11-3.01-0.03-6.02-0.03-9.03
		c0-3.91,0-7.83,0.01-11.74c0-0.7,0.03-1.4,0.07-2.1c0.03-0.45,0.3-0.72,0.76-0.77c0.1-0.01,0.2-0.04,0.3-0.04
		C719.3,401.08,717.69,399.25,717.8,406.98z"/>
	<path class="st0" d="M722.58,361.12c0,4.53,0.54,4.08-3.94,4.08c-15.66,0.01-31.33,0.01-46.99,0c-3.65,0-3.46,0.3-3.46-3.37
		c0.01-87.08,0-174.16,0.01-261.24c0-3.68-0.32-3.48,3.35-3.48h47.59c0.7,0,1.41-0.02,2.11,0.02c0.97,0.06,1.28,0.33,1.32,1.24
		c0.04,0.9,0.03,1.8,0.03,2.71V231.1C722.59,274.44,722.59,317.78,722.58,361.12z"/>
	<path class="st0" d="M754.31,412.64c-1-5.61-4.08-9.62-9.41-11.47c-5.63-1.94-11.07-1.27-15.87,2.57c-1.1,0.88-1.96,1.99-2.68,3.21
		c-1.73,2.93-2.51,6.07-2.33,9.47c0.45,8.8,5.27,13,12.29,14.42c0.98,0.2,1.99,0.2,2.99,0.3c7.36,0.11,12.68-4.73,14.43-10.21
		C754.59,418.23,754.81,415.49,754.31,412.64z M745.57,420.55c-1.3,2.67-3.37,4.17-6.43,4.1c-3.06-0.07-5.14-1.64-6.25-4.38
		c-1.22-2.99-1.19-6.09-0.06-9.12c1.04-2.81,3.66-4.63,6.44-4.63c2.83,0.01,5.3,1.78,6.48,4.6c0.59,1.43,0.7,2.91,0.68,4.58
		C746.47,417.27,746.34,418.97,745.57,420.55z"/>
	<path class="st0" d="M787.71,411.13c0.05,5.71,0.03,11.42,0.03,17.13c0,0.4-0.01,0.8-0.05,1.2c-0.06,0.59-0.45,0.89-1,0.9
		c-1.9,0.01-3.81,0.01-5.71-0.01c-0.76-0.01-1.01-0.51-1.03-1.18c-0.02-0.8-0.03-1.61-0.03-2.4c-0.01-4.21,0.02-8.42-0.03-12.63
		c-0.02-1.39-0.13-2.81-0.38-4.18c-0.43-2.39-1.98-3.64-4.37-3.72c-3.21-0.1-5.62,1.7-6.3,4.86c-0.25,1.17-0.3,2.39-0.31,3.58
		c-0.04,4.11-0.03,8.21-0.04,12.32c-0.01,0.8-0.01,1.6-0.05,2.4c-0.03,0.58-0.4,0.93-0.96,0.94c-1.9,0.03-3.8,0.02-5.71,0.01
		c-0.75,0-1.06-0.44-1.09-1.14c-0.02-0.6-0.03-1.2-0.03-1.8v-23.74c0-0.5-0.01-1,0.02-1.5c0.06-1.05,0.24-1.26,1.21-1.3
		c1-0.04,2-0.06,3-0.02c0.89,0.03,1.9-0.31,2.63,0.28c0.78,0.64,0.24,1.7,0.43,2.55c0.04,0.18,0.16,0.33,0.27,0.57
		c0.88-0.09,1.23-0.92,1.84-1.39c3.95-2.99,8.21-3.45,12.74-1.55c2.5,1.05,3.96,3.03,4.47,5.65
		C787.53,408.33,787.7,409.74,787.71,411.13z"/>
	<path class="st0" d="M835.71,424.61c-0.81,1.91-2.18,3.36-3.92,4.44c-1.02,0.63-2.13,1.11-3.31,1.39
		c-3.77,0.9-7.57,0.97-11.31-0.06c-3.57-0.97-6.27-3.08-7.82-6.5c-0.65-1.43-0.43-1.87,0.97-2.05c1.39-0.18,2.77-0.41,4.16-0.63
		c1.76-0.27,1.79-0.3,2.71,1.31c0.85,1.49,2.08,2.35,3.75,2.74c1.93,0.45,3.8,0.24,5.61-0.41c1.1-0.4,1.86-1.19,1.88-2.47
		c0.02-0.88-0.3-1.61-1.12-1.95c-0.83-0.34-1.71-0.57-2.57-0.8c-2.32-0.62-4.66-1.19-6.98-1.84c-1.05-0.3-2.1-0.7-3.1-1.14
		c-2.91-1.29-4.6-3.57-4.83-6.72c-0.24-3.25,1.11-5.86,3.84-7.67c0.82-0.55,1.76-1,2.71-1.26c4.16-1.13,8.36-1.12,12.48,0.06
		c3.33,0.95,5.36,3.31,6.49,6.95c-2.3,0.46-4.26,0.85-6.22,1.24c-0.66,0.13-1.15-0.1-1.46-0.74c-0.78-1.58-2.15-2.4-3.82-2.58
		c-2-0.21-4.03-0.29-5.84,0.83c-1.17,0.72-1.17,2.27,0.01,2.96c0.68,0.4,1.45,0.68,2.22,0.9c2.22,0.61,4.46,1.16,6.7,1.73
		c1.76,0.44,3.45,1.05,5.09,1.81C836.88,416.43,837.03,421.46,835.71,424.61z"/>
	<path class="st0" d="M869.25,400.86c0.71,0.74,0.28,1.27,0.08,1.8c-3.86,10.54-7.73,21.08-11.61,31.62
		c-0.24,0.66-0.54,1.3-0.83,1.94c-1.25,2.8-3.21,4.82-6.25,5.64c-0.47,0.13-0.99,0.18-1.29,0.65c-0.06-1.41,1.22-1.41,2.03-1.83
		c2.33-1.19,4.09-2.92,5.03-5.36c4.01-10.38,7.78-20.86,11.61-31.31c0.58-1.56,0.18-2.18-1.52-2.28c-3.31-0.19-4.06,0.19-5.11,3.3
		c-1.58,4.65-3.1,9.33-4.68,13.98c-0.32,0.92-0.48,2.3-1.58,2.34c-1.29,0.04-1.54-1.39-1.89-2.4c-1.65-4.73-3.15-9.52-4.95-14.21
		c-1.03-2.67-3.57-3.92-6.19-2.9c-1.75,0.68-0.64,1.86-0.3,2.74c2.92,7.58,5.71,15.21,8.73,22.75c1.07,2.67,1,5.07-0.99,7.28
		c-1.04,1.17-2.29,1.86-3.89,2.03c-3.56,0.4-3.65,0.6-2.59,4.13c0.17,0.57,0.52,1.1,0.26,1.73c-0.64-0.59-1.43-1.02-1.38-2.12
		c0.04-0.79-0.24-1.58-0.31-2.38c-0.16-1.77-0.23-2.23,1.81-2c0.3,0.03,0.6,0.03,0.9,0.03c3.3,0,5.24-1.47,6.15-4.62
		c0.27-0.94,0.04-1.76-0.3-2.62c-1.41-3.64-2.8-7.3-4.19-10.96c-1.78-4.68-3.58-9.36-5.35-14.05c-0.31-0.83-0.81-1.62-0.72-2.72
		c2.35-0.4,4.73-0.16,7.1-0.16c0.54,0,0.94,0.29,1.12,0.83c0.22,0.67,0.45,1.32,0.68,1.99c1.75,5.12,3.5,10.25,5.24,15.37
		c0.23,0.66,0.4,1.34,1.04,1.98c0.34-0.93,0.66-1.74,0.94-2.56c1.78-5.33,3.53-10.66,5.32-15.98c0.55-1.64,0.58-1.66,2.35-1.68
		C865.61,400.83,867.51,400.86,869.25,400.86z"/>
	<path class="st0" d="M899.18,424.83c-1.12,2.36-2.93,4.1-5.38,5c-5,1.85-10.06,1.85-14.99-0.14c-3.23-1.31-5.39-3.75-6.34-7.08
		c0.34-0.82,1.03-0.68,1.57-0.78c1.08-0.21,2.2-0.24,3.26-0.53c1.73-0.48,3.04-0.44,3.74,1.62c0.35,1.05,1.41,1.68,2.48,2.06
		c2.17,0.77,4.35,0.7,6.49-0.09c0.54-0.2,1.06-0.59,1.45-1.02c1.07-1.17,0.73-2.84-0.72-3.49c-0.82-0.36-1.71-0.55-2.59-0.78
		c-2.23-0.59-4.47-1.13-6.69-1.77c-1.16-0.33-2.29-0.76-3.38-1.26c-5.81-2.62-6.02-9.94-1.93-13.53c1.07-0.94,2.27-1.67,3.65-2.03
		c4.26-1.14,8.54-1.1,12.78,0.08c1.68,0.46,3.1,1.46,4.19,2.81c0.95,1.16,1.86,2.36,1.9,3.99c-1.92,0.79-3.97,0.81-5.9,1.32
		c-0.65,0.18-1.15-0.04-1.49-0.67c-0.6-1.08-1.41-1.95-2.64-2.31c-2.18-0.64-4.36-0.61-6.5,0.19c-0.36,0.13-0.7,0.4-0.97,0.67
		c-0.68,0.66-0.6,1.76,0.1,2.4c0.62,0.57,1.39,0.81,2.16,1.02c2.32,0.62,4.66,1.21,6.99,1.8c1.76,0.45,3.48,0.99,5.1,1.81
		C899.64,416.23,901.16,420.64,899.18,424.83z"/>
	<path class="st0" d="M920.93,428.84c0.09,0.66-0.16,1.21-0.83,1.43c-2.83,0.94-5.68,1.22-8.57,0.29c-2.2-0.72-3.5-2.18-3.97-4.48
		c-0.25-1.19-0.33-2.38-0.34-3.58c-0.02-4.12-0.02-8.23-0.03-12.35c0-0.7,0-1.4-0.04-2.1c-0.03-0.56-0.31-0.9-0.9-1
		c-0.77-0.12-1.74,0.28-2.3-0.33c-0.73-0.8-0.28-1.91-0.36-2.89c-0.03-0.4-0.01-0.8,0-1.21c0.05-1.59,0.05-1.6,1.69-1.76
		c0.19-0.02,0.4,0.01,0.6-0.02c1.04-0.11,1.25-0.3,1.29-1.25c0.04-1.21,0.04-2.41,0.03-3.61c-0.01-0.67,0.25-1.19,0.81-1.5
		c2.17-1.22,4.22-2.66,7.01-3.94c0,2.75,0,5.04,0.01,7.33c0,0.6,0,1.21,0.02,1.81c0.02,0.7,0.35,1.13,1.09,1.15
		c1.1,0.03,2.21,0.02,3.31,0.06c0.57,0.03,0.9,0.38,0.92,0.96c0.02,0.5,0.04,1,0.04,1.5c-0.05,4.04,0.48,3.63-3.42,3.65
		c-0.2,0.01-0.4,0-0.6,0.01c-1.07,0.06-1.32,0.24-1.33,1.19c-0.02,4.62-0.04,9.24,0.03,13.85c0.03,2.01,0.85,2.62,2.91,2.42
		c0.7-0.06,1.38-0.23,2.26-0.38C920.49,425.71,920.73,427.27,920.93,428.84z"/>
	<path class="st0" d="M933.22,417.89c2.71-0.01,5.41-0.01,8.12-0.01c0-0.01,0-0.01,0-0.01c2.81,0,5.62,0.02,8.43-0.01
		c1.28-0.01,1.42-0.17,1.44-1.36c0.06-2.74-0.35-5.4-1.3-7.97c-1.59-4.28-4.68-6.92-9.09-7.95c-1.26-0.29-2.59-0.33-3.89-0.32
		c-5.73,0.04-9.77,2.84-11.95,8.03c-2.02,4.8-2,9.8-0.13,14.67c1.58,4.11,4.57,6.71,8.94,7.7c2.3,0.51,4.6,0.59,6.87,0.25
		c4.49-0.68,7.76-3.08,9.64-7.26c0.41-0.91,0.21-1.37-0.68-1.53c-1.68-0.29-3.37-0.53-5.04-0.81c-1-0.17-1.66,0.06-2.13,1.1
		c-0.8,1.78-2.24,2.73-4.28,2.74c-3.31,0.03-5.84-2.18-6.32-5.61C931.64,418.02,932.07,417.9,933.22,417.89z M936.47,406.33
		c2.93-0.53,5.42,0.87,6.43,3.67c0.24,0.65,0.35,1.35,0.45,2.04c0.08,0.56-0.19,0.99-0.8,1c-1.71,0.02-3.41,0.01-5.11,0.01
		c-0.01,0-0.01-0.01-0.01-0.01c-1.6,0-3.2,0.01-4.81-0.01c-0.45-0.01-0.71-0.33-0.73-0.78C931.79,409.45,933.84,406.8,936.47,406.33
		z"/>
	<path class="st0" d="M965.86,329.26c-8.42,13.68-20.15,23.54-34.76,30.06c-8.47,3.79-17.34,6.27-26.46,7.93
		c-12,2.18-24.11,2.93-36.28,2.79c-12.07-0.13-24.05-1.22-35.84-4.01c-9.12-2.17-17.91-5.25-26.12-9.81
		c-16.76-9.29-28.72-22.95-36.56-40.31c-4.07-9-6.76-18.44-8.49-28.15c-0.48-2.66-0.86-5.34-1.22-8.03
		c-0.16-1.2,0.09-1.44,1.22-1.56c3.99-0.41,7.99-0.8,11.98-1.21c7.59-0.75,15.18-1.52,22.77-2.27c4.99-0.5,9.99-0.98,14.99-1.42
		c1.54-0.14,1.7,0.01,1.99,1.54c1.12,5.82,2.7,11.51,4.95,17.01c2.58,6.27,5.96,12.05,10.66,16.99c6.4,6.74,14.28,10.96,23.21,13.27
		c8.34,2.16,16.83,2.65,25.4,2.12c5.83-0.36,11.58-1.13,17.21-2.76c7.68-2.22,14.41-6.01,19.91-11.9c4.41-4.72,7.58-10.1,8.71-16.54
		c0.75-4.29,0.73-8.6-0.43-12.83c-1.4-5.09-4.2-9.28-8.4-12.52c-3.53-2.72-7.46-4.71-11.56-6.39c-6.23-2.56-12.73-4.32-19.22-6.03
		c-11.64-3.06-23.32-5.97-34.95-9.08c-11.55-3.09-22.88-6.82-33.69-11.97c-2.71-1.29-5.41-2.66-8-4.17
		c-14.65-8.48-25.39-20.44-31.87-36.11c-2.94-7.11-4.38-14.55-4.81-22.24c-1.04-18.83,4.67-35.4,16.65-49.84
		c7.18-8.66,16.26-14.85,26.46-19.46c8.55-3.87,17.51-6.4,26.76-7.93c11.93-1.98,23.94-2.5,36.02-1.99
		c9.95,0.41,19.81,1.51,29.51,3.78c7.16,1.67,14.12,3.92,20.71,7.19c21.5,10.7,35.21,27.71,41.13,50.97
		c1.41,5.56,2.22,11.21,2.5,16.94c0.03,0.7,0.06,1.41,0.02,2.11c-0.02,0.42-0.3,0.76-0.74,0.82c-0.59,0.08-1.2,0.1-1.8,0.12
		c-8.32,0.27-16.66,0.54-26.54,0.86c-6.57,0.23-14.7,0.52-22.83,0.8c-0.5,0.02-1,0.03-1.5-0.01c-0.44-0.03-0.75-0.28-0.85-0.71
		c-0.23-0.98-0.42-1.96-0.62-2.94c-0.85-4.14-2.09-8.16-3.75-12.04c-4.6-10.77-12.57-17.64-23.88-20.71
		c-4.38-1.19-8.84-1.91-13.35-2.21c-9.46-0.62-18.87-0.21-28.09,2.23c-5.88,1.55-11.36,3.95-16.21,7.68
		c-3.43,2.64-5.98,5.93-7.15,10.16c-2.12,7.67-0.53,14.47,4.94,20.32c2.5,2.68,5.52,4.63,8.76,6.28c4.83,2.47,9.91,4.37,15.05,6.08
		c10.1,3.37,20.41,5.95,30.76,8.43c14.35,3.43,28.56,7.35,42.33,12.69c6,2.32,11.85,4.95,17.37,8.28
		c12.61,7.62,22.41,17.82,28.81,31.16c3.42,7.12,5.36,14.67,6.44,22.46c0.61,4.38,0.77,8.79,0.83,13.21
		C978.14,301.88,973.95,316.12,965.86,329.26z"/>
	<path class="st0" d="M997.5,429.61c0.91,0.09,1.79,0.21,2.5,0.85c-2-0.03-4.01-0.06-6.01-0.09c-0.7-0.01-1.14-0.33-1.16-1.07
		c-0.03-0.8-0.03-1.6-0.03-2.4c-0.01-4.82-0.01-9.62-0.03-14.44c0-1.2-0.01-2.4-0.4-3.57c-0.6-1.8-1.64-2.59-3.55-2.64
		c-2.37-0.07-4.01,1.06-5.06,3.11c-0.51,1-0.65,2.1-0.75,3.2c-0.43,4.4-0.17,8.81-0.26,13.23c-0.03,1.39,0.21,2.81-0.21,4.18
		c-1.4,0.85-2.94,0.26-4.4,0.4c-0.7,0.07-1.41,0.01-2.11-0.02c-0.57-0.02-0.95-0.32-1-0.9c-0.06-0.8-0.09-1.6-0.09-2.4
		c-0.01-4.61-0.01-9.23-0.03-13.84c-0.01-1.21-0.03-2.42-0.18-3.6c-0.3-2.34-1.5-3.35-3.81-3.38c-2.66-0.03-4.53,1.36-5.4,3.93
		c-0.46,1.36-0.51,2.76-0.52,4.16c-0.03,4.21-0.03,8.43-0.04,12.63c-0.01,0.8,0,1.61-0.04,2.4c-0.03,0.57-0.35,0.97-0.92,0.97
		c-2,0.02-4.01,0.01-6.01-0.01c-0.45-0.01-0.72-0.31-0.77-0.75c-0.05-0.5-0.08-1-0.08-1.5c-0.01-8.32,0-16.64,0-24.97
		c0-0.3-0.01-0.6,0.01-0.9c0.06-1.05,0.24-1.29,1.19-1.32c1.61-0.04,3.21-0.04,4.82-0.01c0.92,0.03,1.09,0.26,1.18,1.34
		c0.03,0.3-0.01,0.6,0.03,0.9c0.03,0.29,0.1,0.58,0.15,0.88c0.99,0.03,1.34-0.84,1.94-1.3c1.89-1.43,3.95-2.32,6.35-2.45
		c3.43-0.18,6.33,0.77,8.46,3.62c0.16,0.22,0.42,0.38,0.62,0.55c0.93-0.19,1.32-0.97,1.91-1.48c2.87-2.5,6.23-3.2,9.84-2.46
		c2.77,0.56,5.03,1.96,5.99,4.87c0.06,0.17,0.26,0.28,0.4,0.43c-1,0.13-1.34-0.72-1.86-1.29c-3.63-3.93-8.98-4.55-13.21-1.19
		c-2.13,1.7-3.57,1.76-5.64-0.12c-3.05-2.78-8.09-2.64-11.72-0.05c-1.61,1.15-2.99,2.61-4.34-0.41c-0.6-1.34-2.3-0.89-3.58-0.71
		c-1.29,0.18-1.49,1.22-1.51,2.25c-0.08,7.62-0.04,15.24-0.03,22.85c0.01,2.32,1.49,2.45,3.24,2.47c1.83,0.03,2.82-0.64,2.82-2.61
		c0-4.31-0.01-8.62,0.01-12.93c0.01-1.81,0.13-3.61,1.04-5.25c1.37-2.45,4.23-3.71,6.93-3.06c2.31,0.56,3.33,2.05,3.39,5.31
		c0.11,5.11,0.04,10.22,0.03,15.34c-0.01,2.07,0.77,3.15,2.98,3.2c2.12,0.04,3.13-0.69,3.11-2.94c-0.04-4.91-0.2-9.82,0.6-14.7
		c0.3-1.86,0.92-3.47,2.28-4.78c1.69-1.63,3.7-1.95,5.86-1.32c1.99,0.59,2.66,2.29,3.04,4.13c0.23,1.09,0.21,2.19,0.21,3.29
		c0.01,4.01-0.01,8.02,0.01,12.03C993.67,429.23,993.67,429.24,997.5,429.61z"/>
	<path class="st1" d="M1000,405.77v24.69c-2-0.03-4.01-0.06-6.01-0.09c-0.7-0.01-1.14-0.33-1.16-1.07c-0.03-0.8-0.03-1.6-0.03-2.4
		c-0.01-4.82-0.01-9.62-0.03-14.44c0-1.2-0.01-2.4-0.4-3.57c-0.6-1.8-1.64-2.59-3.55-2.64c-2.37-0.07-4.01,1.06-5.06,3.11
		c-0.51,1-0.65,2.1-0.75,3.2c-0.43,4.4-0.17,8.81-0.26,13.23c-0.03,1.39,0.21,2.81-0.21,4.18c-1.4,0.85-2.94,0.26-4.4,0.4
		c-0.7,0.07-1.41,0.01-2.11-0.02c-0.57-0.02-0.95-0.32-1-0.9c-0.06-0.8-0.09-1.6-0.09-2.4c-0.01-4.61-0.01-9.23-0.03-13.84
		c-0.01-1.21-0.03-2.42-0.18-3.6c-0.3-2.34-1.5-3.35-3.81-3.38c-2.66-0.03-4.53,1.36-5.4,3.93c-0.46,1.36-0.51,2.76-0.52,4.16
		c-0.03,4.21-0.03,8.43-0.04,12.63c-0.01,0.8,0,1.61-0.04,2.4c-0.03,0.57-0.35,0.97-0.92,0.97c-2,0.02-4.01,0.01-6.01-0.01
		c-0.45-0.01-0.72-0.31-0.77-0.75c-0.05-0.5-0.08-1-0.08-1.5c-0.01-8.32,0-16.64,0-24.97c0-0.3-0.01-0.6,0.01-0.9
		c0.06-1.05,0.24-1.29,1.19-1.32c1.61-0.04,3.21-0.04,4.82-0.01c0.92,0.03,1.09,0.26,1.18,1.34c0.03,0.3-0.01,0.6,0.03,0.9
		c0.03,0.29,0.1,0.58,0.15,0.88c0.99,0.03,1.34-0.84,1.94-1.3c1.89-1.43,3.95-2.32,6.35-2.45c3.43-0.18,6.33,0.77,8.46,3.62
		c0.16,0.22,0.42,0.38,0.62,0.55c0.93-0.19,1.32-0.97,1.91-1.48c2.87-2.5,6.23-3.2,9.84-2.46c2.77,0.56,5.03,1.96,5.99,4.87
		C999.66,405.52,999.86,405.63,1000,405.77z"/>
	<path class="st1" d="M651.32,403.84c0-0.6-0.01-1.21-0.03-1.81c-0.01-0.7-0.33-1.12-1.07-1.14c-0.8-0.02-1.61-0.07-2.4-0.03
		c-1.18,0.07-2.52-0.42-3.49,0.37c-0.79,0.63,0.01,1.92-0.58,2.78c-0.74,0.05-1.03-0.57-1.43-0.96c-3.64-3.58-9.34-3.33-12.63-1.68
		c-3.24,1.63-5.3,4.23-6.33,7.65c-1.12,3.72-1.12,7.53-0.33,11.31c0.54,2.59,1.82,4.83,3.66,6.79c3.36,3.57,10.31,4.83,14.99,0.56
		c0.48-0.44,0.77-1.22,1.85-1.1c0.26,1.53-0.04,3.1-0.07,4.66c-0.01,0.7-0.08,1.41-0.26,2.08c-0.32,1.12-1.06,1.96-2.15,2.36
		c-1.91,0.7-3.89,0.94-5.91,0.46c-1.01-0.24-1.91-0.65-2.32-1.7c-0.28-0.72-0.75-1.16-1.53-1.25c-2.29-0.27-4.58-0.57-6.87-0.82
		c-0.57-0.06-0.92,0.32-0.93,0.92c-0.02,2.1,0.72,3.92,2.12,5.47c1.17,1.29,2.66,2.07,4.3,2.65c1.22,0.44,2.6,0.33,3.72,1.09h7.23
		c0.7-0.69,1.68-0.61,2.53-0.83c4.76-1.29,7.18-4.51,7.7-9.27c0.19-1.79,0.23-3.6,0.24-5.41
		C651.33,419.28,651.32,411.56,651.32,403.84z M631.63,420.71c-0.19-0.35-0.35-0.72-0.46-1.1c-0.87-2.96-0.95-5.93-0.04-8.88
		c0.9-2.9,2.92-4.43,5.69-4.49c2.93-0.06,5.13,1.46,6.15,4.34c0.5,1.42,0.72,2.91,0.74,4.71c0.08,1.13-0.2,2.52-0.6,3.85
		c-0.85,2.87-3.14,4.67-5.86,4.82C634.64,424.11,632.83,422.93,631.63,420.71z"/>
	<path class="st2" d="M869.33,402.65c-3.86,10.54-7.73,21.08-11.61,31.62c-0.24,0.66-0.54,1.3-0.83,1.94
		c-1.25,2.8-3.21,4.82-6.25,5.64c-0.47,0.13-0.99,0.18-1.29,0.65h-6.03c-0.64-0.59-1.43-1.02-1.38-2.12
		c0.04-0.79-0.24-1.58-0.31-2.38c-0.16-1.77-0.23-2.23,1.81-2c0.3,0.03,0.6,0.03,0.9,0.03c3.3,0,5.24-1.47,6.15-4.62
		c0.27-0.94,0.04-1.76-0.3-2.62c-1.41-3.64-2.8-7.3-4.19-10.96c-1.78-4.68-3.58-9.36-5.35-14.05c-0.31-0.83-0.81-1.62-0.72-2.72
		c2.35-0.4,4.73-0.16,7.1-0.16c0.54,0,0.94,0.29,1.12,0.83c0.22,0.67,0.45,1.32,0.68,1.99c1.75,5.12,3.5,10.25,5.24,15.37
		c0.23,0.66,0.4,1.34,1.04,1.98c0.34-0.93,0.66-1.74,0.94-2.56c1.78-5.33,3.53-10.66,5.32-15.98c0.55-1.64,0.58-1.66,2.35-1.68
		c1.9-0.03,3.8,0,5.54,0C869.96,401.6,869.52,402.13,869.33,402.65z"/>
	<path class="st1" d="M312.01,328.38c-3.41,13.4-8.58,26.1-15.83,37.89c-15.23,24.75-36.39,42.78-62.84,54.71
		c-11.32,5.1-23.13,8.55-35.38,10.53c-8.05,1.31-16.17,1.75-24.31,1.56c-17.27-0.41-34.54-0.23-51.81,0.04
		c-27.61,0.44-55.23,0.7-82.84,0.24c-5.52-0.09-11.04-0.36-16.52-1.07c-9.4-1.22-15.93-6.11-19.27-15.08
		c-1.31-3.51-2.08-7.13-2.34-10.85c-0.24-3.5-0.41-7.01-0.45-10.52c-0.33-32.92-0.17-65.83-0.09-98.74c0.08-29,0.09-58,0.16-87
		c0.03-10.84-0.09-21.67-0.42-32.51c-0.13-4.01-0.05-8.03,0.24-12.04c0.3-4.01,0.88-7.99,2.36-11.75
		c3.49-8.88,9.67-14.58,19.34-16.12c1.89-0.3,3.78-0.53,5.69-0.56c3.31-0.05,6.62-0.07,9.94-0.07c11.45-0.01,22.9,0.03,34.34-0.02
		c5.52-0.02,11.04-0.22,16.57-0.3c2.5-0.03,5,0.22,7.43,0.6c0.42,0.92,0.01,1.64-0.3,2.37c-0.97,2.32-2.16,4.52-3.49,6.65
		c-2.93,4.69-6.37,9.01-9.5,13.55c-0.57,0.82-1.24,1.26-2.25,1.2c-0.8-0.04-1.6,0.01-2.4,0.01c-16.37,0.11-32.74,0.23-49.11,0.35
		c-3.96,0.03-3.7-0.29-4.17,3.72c-0.43,3.68-0.72,7.4-0.8,11.09c-0.17,7.73-0.11,15.45,0.17,23.18c0.27,7.32,0.36,14.65,0.42,21.97
		c0.24,34.11,0.43,68.24,0.66,102.35c0.15,22.68,0.32,45.35,0.52,68.03c0.04,4.71,0.24,9.43,0.39,14.14
		c0.04,1.5,0.23,1.78,1.67,1.98c2.29,0.32,4.58,0.6,6.88,0.73c12.64,0.73,25.29,0.83,37.94,0.46c6.82-0.2,13.65-0.19,20.45-0.92
		c0.6-0.07,1.2-0.13,1.8-0.17c0.24-0.02,0.4-0.11,0.41-0.36c0.01-0.19,0.03-0.42-0.07-0.55c-0.17-0.24-0.41-0.44-0.65-0.62
		c-9.12-7.14-17.45-15.11-24.92-23.95c-4.8-5.69-8.84-11.93-12.74-18.26c-3.53-5.73-6.91-11.53-9.49-17.76
		c-3.6-8.66-5.88-17.68-7.36-26.92c-1.76-10.94-2.22-21.96-1.68-33c0.78-15.92,3.52-31.47,9.57-46.33
		c6.74-16.55,16.69-30.81,30.38-42.4c3.69-3.12,7.63-5.9,11.95-8.07c4.34-2.18,8.88-3.69,13.77-4.06c5.12-0.39,9.99,0.45,14.7,2.44
		c5.54,2.34,10.28,5.83,14.62,9.93c7.08,6.68,12.68,14.47,17.39,22.95c5.22,9.4,9.54,19.22,13.54,29.18
		c5.73,14.23,10.85,28.7,16.19,43.08c4.85,13.08,9.98,26.04,16.32,38.48c4.16,8.15,8.81,16,14.46,23.22
		c3.85,4.92,8.12,9.43,13.1,13.23c3.77,2.88,7.83,5.24,12.27,6.96c9.02,3.47,18.03,3.4,27.06,0.06c5.32-1.97,10.13-4.85,14.57-8.34
		c8.86-6.97,16.06-15.42,21.85-25.06c3.1-5.15,6-10.43,9.02-15.64c1.04-1.8,2.17-3.55,3.88-5.76
		C313.19,323.72,312.6,326.06,312.01,328.38z"/>
	<path class="st3" d="M353.67,256.15c0,23.28,0.09,46.56,0.04,69.84c-0.05,23.08-0.19,46.16-0.35,69.24
		c-0.03,4.71-0.17,9.43-0.55,14.13c-0.63,7.69-3.87,14.05-10.34,18.53c-3.02,2.09-6.4,3.37-10.04,3.8
		c-3.69,0.45-7.38,0.85-11.09,1.07c-7.22,0.43-14.44,0.72-21.67,0.76c-17.98,0.11-35.95-0.41-53.91-1.07
		c-0.6-0.03-1.19-0.09-2.24-0.18c1.1-1.57,2.18-2.44,3.37-3.16c2.06-1.24,4.11-2.52,6.26-3.59c4.88-2.43,9.38-5.41,13.67-8.75
		c2.38-1.85,4.86-3.55,7.27-5.36c1.98-1.49,4.25-2.26,6.67-2.54c2.49-0.29,4.99-0.55,7.5-0.61c8.04-0.19,16.07-0.07,24.1,0.23
		c4.12,0.14,8.24,0.11,12.36,0.12c1,0,2-0.09,3-0.21c1.54-0.18,1.56-0.23,1.6-1.89c0.02-0.7,0.01-1.4,0.01-2.1
		c-0.05-79.78-0.1-159.56-0.15-239.33c0-0.9-0.01-1.81-0.02-2.71c-0.01-0.75-0.44-1.07-1.14-1.08c-0.7-0.02-1.41-0.02-2.11-0.02
		c-21.79-0.04-43.58-0.08-65.37-0.11c-0.6,0-1.21-0.01-1.81,0c-1.48,0.04-1.67,0.3-1.06,1.53c0.98,1.98,2.17,3.84,3.43,5.66
		c4.8,6.92,9.6,13.86,14.36,20.8c4.6,6.7,9.18,13.42,13.74,20.15c7.08,10.45,12.63,21.63,16.25,33.75
		c2.96,9.88,4.52,19.96,4.36,30.26c-0.27,16.9-4.53,32.7-13.5,47.13c-4.87,7.84-10.87,14.67-18.28,20.2
		c-5.93,4.43-12.41,7.78-19.68,9.39c-12.09,2.67-23.11,0.41-32.87-7.37c-4.83-3.85-8.8-8.5-12.39-13.49
		c-4.41-6.12-8.12-12.66-11.51-19.39c-5.78-11.48-10.57-23.39-15.09-35.4c-5.44-14.45-10.52-29.04-16.22-43.39
		c-4.75-11.94-9.84-23.71-16.12-34.94c-2.55-4.56-5.21-9.05-8.33-13.24c-2.53-3.39-5.32-6.54-8.48-9.35
		c-6.46-5.74-14.01-9.27-22.46-10.93c-4.15-0.81-8.33-1.29-12.56-1.31c-0.9,0-1.81-0.03-2.71-0.09c-0.5-0.04-0.67-0.46-0.54-0.87
		c0.29-0.85,0.61-1.7,1.01-2.49c1.03-2.07,2.27-4.03,3.69-5.85c6.37-8.19,11.59-17.1,16.77-26.05
		c16.97-29.3,31.76-59.65,43.91-91.28c2.81-7.3,5.46-14.65,7.66-22.17c1.01-3.47,2.13-6.9,3.82-10.12c0.36-0.68,0.61-1.82,1.37-1.81
		c1.09,0.03,0.99,1.33,1.27,2.1c2.35,6.4,4.68,12.81,6.92,19.25c4.43,12.69,9.57,25.11,14.87,37.45
		c7.67,17.88,15.69,35.61,24.58,52.92c3.03,5.9,6.2,11.7,9.62,17.37c0.88,1.46,1.83,2.88,2.86,4.23c1.53,2,3.56,3.17,6.1,3.5
		c1.7,0.23,3.39,0.38,5.1,0.36c18.47-0.27,36.95-0.5,55.42-0.82c7.24-0.13,14.46-0.03,21.68,0.44c3.7,0.24,7.38,0.82,10.96,1.88
		c6.84,2.02,11.49,6.33,13.8,13.13c0.68,2,1.25,4.02,1.62,6.1c0.71,3.95,1.14,7.94,1.32,11.95c0.5,10.83,0.28,21.67,0.28,32.51
		C353.7,220.63,353.66,238.39,353.67,256.15z"/>
	<path class="st3" d="M977.93,286.42c0.21,15.47-3.97,29.7-12.07,42.84c-8.42,13.68-20.15,23.54-34.76,30.06
		c-8.47,3.79-17.34,6.27-26.46,7.93c-12,2.18-24.11,2.93-36.28,2.79c-12.07-0.13-24.05-1.22-35.84-4.01
		c-9.12-2.17-17.91-5.25-26.12-9.81c-16.76-9.29-28.72-22.95-36.56-40.31c-4.07-9-6.76-18.44-8.49-28.15
		c-0.48-2.66-0.86-5.34-1.22-8.03c-0.16-1.2,0.09-1.44,1.22-1.56c3.99-0.41,7.99-0.8,11.98-1.21c7.59-0.75,15.18-1.52,22.77-2.27
		c4.99-0.5,9.99-0.98,14.99-1.42c1.54-0.14,1.7,0.01,1.99,1.54c1.12,5.82,2.7,11.51,4.95,17.01c2.58,6.27,5.96,12.05,10.66,16.99
		c6.4,6.74,14.28,10.96,23.21,13.27c8.34,2.16,16.83,2.65,25.4,2.12c5.83-0.36,11.58-1.13,17.21-2.76
		c7.68-2.22,14.41-6.01,19.91-11.9c4.41-4.72,7.58-10.1,8.71-16.54c0.75-4.29,0.73-8.6-0.43-12.83c-1.4-5.09-4.2-9.28-8.4-12.52
		c-3.53-2.72-7.46-4.71-11.56-6.39c-6.23-2.56-12.73-4.32-19.22-6.03c-11.64-3.06-23.32-5.97-34.95-9.08
		c-11.55-3.09-22.88-6.82-33.69-11.97c-2.71-1.29-5.41-2.66-8-4.17c-14.65-8.48-25.39-20.44-31.87-36.11
		c-2.94-7.11-4.38-14.55-4.81-22.24c-1.04-18.83,4.67-35.4,16.65-49.84c7.18-8.66,16.26-14.85,26.46-19.46
		c8.55-3.87,17.51-6.4,26.76-7.93c11.93-1.98,23.94-2.5,36.02-1.99c9.95,0.41,19.81,1.51,29.51,3.78
		c7.16,1.67,14.12,3.92,20.71,7.19c21.5,10.7,35.21,27.71,41.13,50.97c1.41,5.56,2.22,11.21,2.5,16.94c0.03,0.7,0.06,1.41,0.02,2.11
		c-0.02,0.42-0.3,0.76-0.74,0.82c-0.59,0.08-1.2,0.1-1.8,0.12c-8.32,0.27-16.66,0.54-26.54,0.86c-6.57,0.23-14.7,0.52-22.83,0.8
		c-0.5,0.02-1,0.03-1.5-0.01c-0.44-0.03-0.75-0.28-0.85-0.71c-0.23-0.98-0.42-1.96-0.62-2.94c-0.85-4.14-2.09-8.16-3.75-12.04
		c-4.6-10.77-12.57-17.64-23.88-20.71c-4.38-1.19-8.84-1.91-13.35-2.21c-9.46-0.62-18.87-0.21-28.09,2.23
		c-5.88,1.55-11.36,3.95-16.21,7.68c-3.43,2.64-5.98,5.93-7.15,10.16c-2.12,7.67-0.53,14.47,4.94,20.32
		c2.5,2.68,5.52,4.63,8.76,6.28c4.83,2.47,9.91,4.37,15.05,6.08c10.1,3.37,20.41,5.95,30.76,8.43c14.35,3.43,28.56,7.35,42.33,12.69
		c6,2.32,11.85,4.95,17.37,8.28c12.61,7.62,22.41,17.82,28.81,31.16c3.42,7.12,5.36,14.67,6.44,22.46
		C977.7,277.59,977.86,282,977.93,286.42z"/>
	<path class="st3" d="M624.01,286.4c0.15,15.68-4.12,30.09-12.41,43.35c-8.75,13.99-20.95,23.86-36.07,30.27
		c-7.98,3.38-16.28,5.67-24.79,7.21c-12.2,2.22-24.51,2.96-36.88,2.8c-11.87-0.16-23.65-1.25-35.23-4
		c-9.62-2.29-18.84-5.59-27.43-10.53c-15.56-8.95-26.85-21.78-34.51-37.9c-4.33-9.12-7.19-18.7-9.04-28.6
		c-0.57-3.05-0.99-6.14-1.43-9.22c-0.18-1.28-0.01-1.49,1.1-1.61c6.39-0.63,12.78-1.24,19.17-1.88c5.1-0.5,10.18-1.04,15.28-1.54
		c4.79-0.48,9.58-0.99,14.38-1.4c2.93-0.25,2.5-0.48,3.21,2.53c0.63,2.63,1.21,5.28,1.94,7.89c1.31,4.64,3.06,9.12,5.27,13.41
		c6.69,12.98,17.19,21.19,31.26,24.88c8.33,2.19,16.83,2.67,25.39,2.17c5.92-0.35,11.78-1.14,17.5-2.81
		c9.14-2.67,16.77-7.57,22.56-15.2c4.6-6.07,6.81-12.92,6.35-20.53c-0.46-7.51-3.55-13.7-9.64-18.28
		c-3.88-2.93-8.22-4.99-12.73-6.72c-6.47-2.49-13.17-4.26-19.86-6.02c-11.64-3.07-23.32-5.96-34.94-9.09
		c-10.37-2.81-20.52-6.28-30.3-10.77c-3.47-1.59-6.86-3.32-10.14-5.27c-13.6-8.1-23.74-19.32-30.22-33.77
		c-2.98-6.64-4.61-13.64-5.34-20.89c-1.34-13.21,0.8-25.78,6.52-37.74c6.73-14.05,17.1-24.6,30.78-31.97
		c9.09-4.9,18.77-8.09,28.87-10.06c12.57-2.45,25.28-3.15,38.06-2.67c7.43,0.27,14.83,0.85,22.17,2.07
		c9.64,1.61,19.04,4.06,27.91,8.23c22.71,10.69,36.96,28.3,42.92,52.64c1.22,4.98,1.8,10.06,2.27,15.16
		c0.08,0.9,0.08,1.81,0.08,2.71c0.01,0.74-0.45,1.06-1.13,1.11c-0.5,0.03-1,0.05-1.51,0.06c-8.32,0.27-16.66,0.54-27.33,0.89
		c-5.78,0.21-13.91,0.5-22.04,0.78c-0.4,0.02-0.8,0.04-1.2,0.04c-0.57,0.01-0.97-0.23-1.12-0.79c-0.17-0.68-0.31-1.37-0.45-2.06
		c-0.85-4.23-2.05-8.37-3.71-12.37c-4.57-11.02-12.58-18.12-24.13-21.24c-4.18-1.13-8.44-1.84-12.74-2.15
		c-10.38-0.73-20.67-0.26-30.71,2.76c-5.14,1.54-9.9,3.84-14.19,7.09c-7.38,5.6-9.27,14.08-7.28,21.75
		c0.85,3.26,2.58,6.06,4.88,8.53c2.64,2.83,5.82,4.9,9.25,6.62c5.39,2.71,11.06,4.75,16.79,6.6c9.45,3.06,19.09,5.45,28.75,7.77
		c13.76,3.3,27.39,7.03,40.64,12.04c5.92,2.24,11.72,4.73,17.23,7.86c8.37,4.76,15.69,10.78,21.8,18.26
		c8.07,9.88,12.84,21.21,14.86,33.74C623.57,275.77,623.96,281.07,624.01,286.4z"/>
	<path class="st3" d="M718.64,365.2c-15.66,0.01-31.33,0.01-46.99,0c-3.65,0-3.46,0.3-3.46-3.37c0.01-87.08,0-174.16,0.01-261.24
		c0-3.68-0.32-3.48,3.35-3.48h47.59c0.7,0,1.41-0.02,2.11,0.02c0.97,0.06,1.28,0.33,1.32,1.24c0.04,0.9,0.03,1.8,0.03,2.71V231.1
		c0,43.34,0.01,86.68-0.01,130.02C722.58,365.65,723.12,365.2,718.64,365.2z"/>
	<path class="st2" d="M524.33,427.8c0,0.6-0.03,1.2-0.11,1.8c-0.06,0.42-0.38,0.73-0.82,0.73c-2,0.02-4.01,0.02-6.01-0.01
		c-0.44-0.01-0.75-0.33-0.78-0.76c-0.07-0.8-0.09-1.59-0.09-2.4c-0.01-4.41,0.03-8.82-0.03-13.23c-0.01-1.5-0.13-3.01-0.36-4.49
		c-0.35-2.15-1.57-3.15-3.7-3.2c-2.43-0.06-4.46,1.32-5.26,3.7c-0.51,1.53-0.7,3.12-0.7,4.73c0.01,4.11-0.01,8.22-0.03,12.34
		c0,0.8,0,1.6-0.04,2.4c-0.03,0.58-0.38,0.92-0.95,0.94c-1.9,0.02-3.81,0.03-5.72,0.02c-0.73,0-1.07-0.45-1.08-1.14
		c-0.02-1.31-0.03-2.61-0.03-3.91c-0.01-4.41-0.01-8.82-0.04-13.23c-0.01-1.1-0.02-2.2-0.38-3.27c-0.59-1.75-1.48-2.46-3.28-2.56
		c-3.04-0.16-5.26,1.44-5.91,4.43c-0.35,1.66-0.53,3.36-0.51,5.07c0.03,3.91,0.01,7.82,0,11.73c-0.01,0.7-0.03,1.4-0.09,2.1
		c-0.04,0.44-0.34,0.74-0.78,0.75c-2,0.03-4.01,0.04-6.01,0.01c-0.58-0.01-0.87-0.44-0.91-0.99c-0.03-0.5-0.03-1-0.03-1.51
		c-0.01-8.12-0.01-16.24,0-24.36c0-0.6,0.01-1.21,0.08-1.8c0.04-0.43,0.36-0.73,0.79-0.75c1-0.06,2-0.07,3-0.07
		c3.21-0.01,3.21,0,3.45,3.08c0.77,0.32,1.06-0.36,1.48-0.72c2.36-2.08,5.07-3.12,8.26-2.98c2.54,0.11,4.68,0.95,6.43,2.81
		c0.41,0.43,0.79,0.9,1.37,1.56c0.9-0.78,1.63-1.46,2.41-2.07c3.3-2.55,6.97-2.92,10.81-1.59c2.9,0.99,4.59,3.16,5.14,6.14
		c0.27,1.48,0.38,2.99,0.4,4.49C524.36,416.97,524.34,422.39,524.33,427.8z"/>
	<path class="st1" d="M440.17,425.68c-1.38,1.8-3.08,3.2-5.19,3.96c-5.68,2.02-11.44,2.18-17.08,0.04c-5.2-1.97-7.6-6.25-8.43-11.53
		c-0.09-0.6,0.26-0.95,0.83-1.01c1.99-0.22,3.99-0.41,5.98-0.61c0.72-0.08,1.1,0.34,1.32,0.96c0.24,0.66,0.45,1.33,0.71,1.98
		c0.5,1.23,1.27,2.27,2.34,3.07c3.18,2.4,8.73,1.81,10.89,0.42c0.85-0.55,1.58-1.23,2.08-2.13c1.22-2.18,0.65-4.44-1.47-5.73
		c-1.21-0.73-2.59-1.07-3.94-1.44c-2.32-0.63-4.66-1.2-6.97-1.86c-1.93-0.55-3.82-1.26-5.48-2.42c-3.38-2.35-5.2-5.63-4.9-9.73
		c0.31-4.34,2.63-7.48,6.65-9.29c1.47-0.66,3.03-1.1,4.62-1.27c3.3-0.37,6.61-0.39,9.86,0.5c4.87,1.34,8.01,4.38,9.11,9.38
		c0.06,0.3,0.12,0.59,0.15,0.89c0.14,1.1-0.17,1.52-1.23,1.56c-1.1,0.05-2.2,0.01-3.31,0.01v0.11c-0.3,0-0.61-0.04-0.9,0.01
		c-1.85,0.36-2.92-0.26-3.46-2.2c-0.52-1.85-2.02-2.87-3.93-3.33c-2.11-0.51-4.18-0.48-6.23,0.16c-0.75,0.24-1.51,0.59-2.13,1.05
		c-1.72,1.29-1.74,3.5-0.1,4.92c0.77,0.67,1.69,1.08,2.66,1.36c1.92,0.57,3.85,1.14,5.78,1.64c2.33,0.6,4.64,1.26,6.87,2.18
		C443.81,410.85,444.05,420.62,440.17,425.68z"/>
	<path class="st1" d="M754.31,412.64c-1-5.61-4.08-9.62-9.41-11.47c-5.63-1.94-11.07-1.27-15.87,2.57c-1.1,0.88-1.96,1.99-2.68,3.21
		c-1.73,2.93-2.51,6.07-2.33,9.47c0.45,8.8,5.27,13,12.29,14.42c0.98,0.2,1.99,0.2,2.99,0.3c7.36,0.11,12.68-4.73,14.43-10.21
		C754.59,418.23,754.81,415.49,754.31,412.64z M745.57,420.55c-1.3,2.67-3.37,4.17-6.43,4.1c-3.06-0.07-5.14-1.64-6.25-4.38
		c-1.22-2.99-1.19-6.09-0.06-9.12c1.04-2.81,3.66-4.63,6.44-4.63c2.83,0.01,5.3,1.78,6.48,4.6c0.59,1.43,0.7,2.91,0.68,4.58
		C746.47,417.27,746.34,418.97,745.57,420.55z"/>
	<path class="st1" d="M684.25,429.06c-0.97-2.47-1.22-5.04-1.19-7.67c0.04-3.11,0.06-6.22,0.06-9.32c0-1.31,0-2.61-0.11-3.9
		c-0.31-3.89-2.03-6.17-5.74-7.19c-4.23-1.16-8.54-1.18-12.77,0.08c-3.21,0.95-5.16,3.31-6.22,6.43c-0.26,0.75-0.04,1.17,0.7,1.32
		c1.37,0.28,2.78,0.43,4.13,0.78c1.11,0.28,1.88,0.23,2.44-0.95c0.88-1.85,2.5-2.49,4.47-2.4c0.8,0.04,1.61,0.01,2.4,0.14
		c1.9,0.32,2.75,1.29,2.94,3.24c0.12,1.19-0.14,1.73-1.27,2.03c-1.93,0.51-3.89,0.94-5.85,1.36c-2.06,0.45-4.12,0.83-6.06,1.69
		c-3.47,1.53-5.19,4.27-5.07,8.07c0.11,3.57,2.27,6.56,5.71,7.68c3.85,1.26,7.51,0.74,10.95-1.41c0.74-0.46,1.27-1.31,2.27-1.34
		c1.16,2.67,1.16,2.68,4.11,2.68c1.39,0.01,2.79,0,4.05,0C684.52,429.82,684.4,429.43,684.25,429.06z M675.4,419.14
		c-0.01,0.17-0.02,0.57-0.06,0.97c-0.28,3.28-2.96,5.63-6.26,5.47c-1.49-0.07-2.68-0.7-3.52-1.93c-1.18-1.73-0.73-3.86,1.07-4.9
		c0.68-0.39,1.46-0.64,2.22-0.85c1.34-0.36,2.71-0.65,4.07-0.96C675.4,416.36,675.46,416.41,675.4,419.14z"/>
	<path class="st2" d="M473.62,424.8c-0.31-2.81-0.13-5.61-0.16-8.42c-0.03-2.81-0.01-5.62-0.09-8.43c-0.11-3.55-2.12-5.71-5.34-6.88
		c-0.75-0.28-1.54-0.5-2.33-0.59c-2.8-0.34-5.61-0.41-8.41-0.03c-4.12,0.57-7.01,2.78-8.52,6.71c-0.41,1.09-0.25,1.47,0.83,1.7
		c1.37,0.28,2.78,0.42,4.14,0.77c1.06,0.28,1.68,0.06,2.17-0.95c0.89-1.83,2.47-2.53,4.46-2.45c0.7,0.03,1.41,0,2.1,0.08
		c2.09,0.26,2.97,1.12,3.35,3.23c0.22,1.17-0.03,1.73-1.19,2.05c-1.93,0.53-3.89,0.97-5.86,1.38c-2.06,0.43-4.13,0.83-6.08,1.66
		c-3.55,1.49-5.43,4.51-5.22,8.31c0.19,3.55,2.41,6.45,5.91,7.56c3.65,1.16,7.12,0.67,10.43-1.26c0.85-0.5,1.49-1.35,2.52-1.57
		c1.31,2.71,1.31,2.71,4.41,2.71c1.3,0.01,2.6,0,4.34,0C474.4,428.29,473.82,426.6,473.62,424.8z M465.91,418.91
		c-0.03,0.24-0.05,0.84-0.14,1.43c-0.45,2.93-2.44,4.85-5.36,5.21c-1.24,0.15-2.4-0.07-3.42-0.82c-2.47-1.81-2.18-5,0.59-6.28
		c0.63-0.29,1.32-0.47,2-0.65c1.36-0.35,2.72-0.65,4.09-0.97C465.76,416.35,465.96,416.5,465.91,418.91z"/>
	<path class="st1" d="M933.22,417.89c2.71-0.01,5.41-0.01,8.12-0.01c0-0.01,0-0.01,0-0.01c2.81,0,5.62,0.02,8.43-0.01
		c1.28-0.01,1.42-0.17,1.44-1.36c0.06-2.74-0.35-5.4-1.3-7.97c-1.59-4.28-4.68-6.92-9.09-7.95c-1.26-0.29-2.59-0.33-3.89-0.32
		c-5.73,0.04-9.77,2.84-11.95,8.03c-2.02,4.8-2,9.8-0.13,14.67c1.58,4.11,4.57,6.71,8.94,7.7c2.3,0.51,4.6,0.59,6.87,0.25
		c4.49-0.68,7.76-3.08,9.64-7.26c0.41-0.91,0.21-1.37-0.68-1.53c-1.68-0.29-3.37-0.53-5.04-0.81c-1-0.17-1.66,0.06-2.13,1.1
		c-0.8,1.78-2.24,2.73-4.28,2.74c-3.31,0.03-5.84-2.18-6.32-5.61C931.64,418.02,932.07,417.9,933.22,417.89z M936.47,406.33
		c2.93-0.53,5.42,0.87,6.43,3.67c0.24,0.65,0.35,1.35,0.45,2.04c0.08,0.56-0.19,0.99-0.8,1c-1.71,0.02-3.41,0.01-5.11,0.01
		c-0.01,0-0.01-0.01-0.01-0.01c-1.6,0-3.2,0.01-4.81-0.01c-0.45-0.01-0.71-0.33-0.73-0.78C931.79,409.45,933.84,406.8,936.47,406.33
		z"/>
	<path class="st1" d="M787.74,428.27c0,0.4-0.01,0.8-0.05,1.2c-0.06,0.59-0.45,0.89-1,0.9c-1.9,0.01-3.81,0.01-5.71-0.01
		c-0.76-0.01-1.01-0.51-1.03-1.18c-0.02-0.8-0.03-1.61-0.03-2.4c-0.01-4.21,0.02-8.42-0.03-12.63c-0.02-1.39-0.13-2.81-0.38-4.18
		c-0.43-2.39-1.98-3.64-4.37-3.72c-3.21-0.1-5.62,1.7-6.3,4.86c-0.25,1.17-0.3,2.39-0.31,3.58c-0.04,4.11-0.03,8.21-0.04,12.32
		c-0.01,0.8-0.01,1.6-0.05,2.4c-0.03,0.58-0.4,0.93-0.96,0.94c-1.9,0.03-3.8,0.02-5.71,0.01c-0.75,0-1.06-0.44-1.09-1.14
		c-0.02-0.6-0.03-1.2-0.03-1.8v-23.74c0-0.5-0.01-1,0.02-1.5c0.06-1.05,0.24-1.26,1.21-1.3c1-0.04,2-0.06,3-0.02
		c0.89,0.03,1.9-0.31,2.63,0.28c0.78,0.64,0.24,1.7,0.43,2.55c0.04,0.18,0.16,0.33,0.27,0.57c0.88-0.09,1.23-0.92,1.84-1.39
		c3.95-2.99,8.21-3.45,12.74-1.55c2.5,1.05,3.96,3.03,4.47,5.65c0.27,1.37,0.44,2.77,0.45,4.17
		C787.76,416.85,787.74,422.55,787.74,428.27z"/>
	<path class="st1" d="M835.71,424.61c-0.81,1.91-2.18,3.36-3.92,4.44c-1.02,0.63-2.13,1.11-3.31,1.39
		c-3.77,0.9-7.57,0.97-11.31-0.06c-3.57-0.97-6.27-3.08-7.82-6.5c-0.65-1.43-0.43-1.87,0.97-2.05c1.39-0.18,2.77-0.41,4.16-0.63
		c1.76-0.27,1.79-0.3,2.71,1.31c0.85,1.49,2.08,2.35,3.75,2.74c1.93,0.45,3.8,0.24,5.61-0.41c1.1-0.4,1.86-1.19,1.88-2.47
		c0.02-0.88-0.3-1.61-1.12-1.95c-0.83-0.34-1.71-0.57-2.57-0.8c-2.32-0.62-4.66-1.19-6.98-1.84c-1.05-0.3-2.1-0.7-3.1-1.14
		c-2.91-1.29-4.6-3.57-4.83-6.72c-0.24-3.25,1.11-5.86,3.84-7.67c0.82-0.55,1.76-1,2.71-1.26c4.16-1.13,8.36-1.12,12.48,0.06
		c3.33,0.95,5.36,3.31,6.49,6.95c-2.3,0.46-4.26,0.85-6.22,1.24c-0.66,0.13-1.15-0.1-1.46-0.74c-0.78-1.58-2.15-2.4-3.82-2.58
		c-2-0.21-4.03-0.29-5.84,0.83c-1.17,0.72-1.17,2.27,0.01,2.96c0.68,0.4,1.45,0.68,2.22,0.9c2.22,0.61,4.46,1.16,6.7,1.73
		c1.76,0.44,3.45,1.05,5.09,1.81C836.88,416.43,837.03,421.46,835.71,424.61z"/>
	<path class="st1" d="M899.18,424.83c-1.12,2.36-2.93,4.1-5.38,5c-5,1.85-10.06,1.85-14.99-0.14c-3.23-1.31-5.39-3.75-6.34-7.08
		c0.34-0.82,1.03-0.68,1.57-0.78c1.08-0.21,2.2-0.24,3.26-0.53c1.73-0.48,3.04-0.44,3.74,1.62c0.35,1.05,1.41,1.68,2.48,2.06
		c2.17,0.77,4.35,0.7,6.49-0.09c0.54-0.2,1.06-0.59,1.45-1.02c1.07-1.17,0.73-2.84-0.72-3.49c-0.82-0.36-1.71-0.55-2.59-0.78
		c-2.23-0.59-4.47-1.13-6.69-1.77c-1.16-0.33-2.29-0.76-3.38-1.26c-5.81-2.62-6.02-9.94-1.93-13.53c1.07-0.94,2.27-1.67,3.65-2.03
		c4.26-1.14,8.54-1.1,12.78,0.08c1.68,0.46,3.1,1.46,4.19,2.81c0.95,1.16,1.86,2.36,1.9,3.99c-1.92,0.79-3.97,0.81-5.9,1.32
		c-0.65,0.18-1.15-0.04-1.49-0.67c-0.6-1.08-1.41-1.95-2.64-2.31c-2.18-0.64-4.36-0.61-6.5,0.19c-0.36,0.13-0.7,0.4-0.97,0.67
		c-0.68,0.66-0.6,1.76,0.1,2.4c0.62,0.57,1.39,0.81,2.16,1.02c2.32,0.62,4.66,1.21,6.99,1.8c1.76,0.45,3.48,0.99,5.1,1.81
		C899.64,416.23,901.16,420.64,899.18,424.83z"/>
	<path class="st2" d="M702.44,430.75c-1.98,0.45-3.99,0.53-5.96,0.08c-3.08-0.7-4.65-2.46-5-5.6c-0.17-1.59-0.13-3.2-0.16-4.8
		c-0.03-1.3-0.01-2.61-0.01-3.9c0-2.4-0.01-4.81,0-7.21c0-1.74,0.1-2.42-2.08-2.31c-0.3,0.02-0.63,0.03-0.89-0.1
		c-0.23-0.11-0.51-0.39-0.53-0.62c-0.08-1-0.1-2-0.09-3c0.01-2.19,0.02-2.19,2.2-2.44c1.16-0.13,1.31-0.29,1.39-1.51
		c0.01-0.09,0-0.2,0.01-0.3c0.14-1.37-0.53-2.99,0.4-4.08c0.86-1.02,2.24-1.64,3.47-2.29c1.19-0.63,2.16-1.78,3.69-1.68
		c0.53,1.24,0.21,2.53,0.26,3.8c0.06,1.6,0,3.21,0.04,4.81c0.03,0.93,0.33,1.18,1.3,1.24c0.3,0.02,0.6,0.01,0.9,0.01
		c3.48-0.03,3.11-0.13,3.13,3.35c0.01,0.6-0.01,1.21-0.04,1.8c-0.03,0.58-0.35,0.94-0.92,0.97c-1,0.04-2,0.02-3.01,0.06
		c-1.17,0.04-1.37,0.21-1.37,1.45c-0.02,4.51,0,9.02,0.02,13.52c0,0.4,0.03,0.81,0.14,1.19c0.2,0.75,0.75,1.21,1.49,1.29
		c0.58,0.07,1.2,0,1.79-0.07c1.89-0.21,1.89-0.23,2.08,1.72c0.05,0.5,0.07,1,0.12,1.49C705.04,429.98,705.42,430.06,702.44,430.75z"
		/>
	<path class="st2" d="M920.1,430.26c-2.83,0.94-5.68,1.22-8.57,0.29c-2.2-0.72-3.5-2.18-3.97-4.48c-0.25-1.19-0.33-2.38-0.34-3.58
		c-0.02-4.12-0.02-8.23-0.03-12.35c0-0.7,0-1.4-0.04-2.1c-0.03-0.56-0.31-0.9-0.9-1c-0.77-0.12-1.74,0.28-2.3-0.33
		c-0.73-0.8-0.28-1.91-0.36-2.89c-0.03-0.4-0.01-0.8,0-1.21c0.05-1.59,0.05-1.6,1.69-1.76c0.19-0.02,0.4,0.01,0.6-0.02
		c1.04-0.11,1.25-0.3,1.29-1.25c0.04-1.21,0.04-2.41,0.03-3.61c-0.01-0.67,0.25-1.19,0.81-1.5c2.17-1.22,4.22-2.66,7.01-3.94
		c0,2.75,0,5.04,0.01,7.33c0,0.6,0,1.21,0.02,1.81c0.02,0.7,0.35,1.13,1.09,1.15c1.1,0.03,2.21,0.02,3.31,0.06
		c0.57,0.03,0.9,0.38,0.92,0.96c0.02,0.5,0.04,1,0.04,1.5c-0.05,4.04,0.48,3.63-3.42,3.65c-0.2,0.01-0.4,0-0.6,0.01
		c-1.07,0.06-1.32,0.24-1.33,1.19c-0.02,4.62-0.04,9.24,0.03,13.85c0.03,2.01,0.85,2.62,2.91,2.42c0.7-0.06,1.38-0.23,2.26-0.38
		c0.23,1.6,0.47,3.16,0.67,4.73C921.02,429.5,920.76,430.04,920.1,430.26z"/>
	<path class="st1" d="M552.83,430.39c-1.21,0.01-2.4,0.03-3.6-0.02c-1.11-0.03-1.34-0.29-1.39-1.47c-0.04-1-0.02-2-0.02-3v-32.71
		c0-0.8,0.01-1.6,0.03-2.4c0.02-0.67,0.31-1.16,1.05-1.16c2-0.02,4.01-0.02,6.01-0.01c0.75,0,1.03,0.48,1.05,1.16
		c0.02,0.6,0.03,1.2,0.03,1.8v34.82C556,430.67,556.14,430.38,552.83,430.39z"/>
	<path class="st2" d="M582.37,402.62c-0.62,1.79-1.27,3.57-2,5.58c-1.16-0.36-2-0.7-2.87-0.89c-2.03-0.45-3.83,0.4-4.78,2.25
		c-0.79,1.54-1.12,3.21-1.16,4.93c-0.08,4.01-0.12,8.02-0.16,12.03c-0.04,4.38,0.49,3.87-3.82,3.87c-4.56-0.01-3.99,0.6-4-3.97
		c-0.03-7.41-0.01-14.83-0.01-22.25c0-0.8,0.02-1.6,0.06-2.4c0.02-0.43,0.24-0.82,0.69-0.82c1.9-0.04,3.8-0.03,5.71-0.01
		c0.45,0.01,0.68,0.33,0.75,0.77c0.13,0.74-0.14,1.55,0.4,2.4c0.6-0.65,1.1-1.25,1.64-1.8c2.27-2.32,6.38-2.76,9.12-0.99
		C582.43,401.63,582.55,402.1,582.37,402.62z"/>
	<path class="st4" d="M604.66,402.45c-0.65,1.88-1.32,3.75-1.95,5.55c-1.16,0.19-1.9-0.48-2.76-0.66c-2.33-0.48-4.14,0.37-5.15,2.57
		c-0.68,1.48-0.97,3.05-0.99,4.67c-0.06,4.11-0.1,8.21-0.15,12.31c-0.01,0.8,0,1.6-0.05,2.4c-0.03,0.53-0.29,1.02-0.87,1.03
		c-2,0.04-4.01,0.03-6,0.01c-0.45,0-0.75-0.29-0.8-0.73c-0.07-0.59-0.1-1.19-0.1-1.79c-0.01-8.11-0.01-16.22,0-24.33
		c0-0.6,0.03-1.21,0.08-1.8c0.03-0.45,0.3-0.75,0.75-0.76c1.8-0.03,3.6-0.05,5.41-0.04c0.55,0.01,0.9,0.3,1,0.9
		c0.1,0.65-0.24,1.38,0.49,2.05c0.68-0.69,1.32-1.43,2.05-2.07c2.1-1.88,6.44-2.05,8.7-0.38
		C604.67,401.65,604.79,402.05,604.66,402.45z"/>
	<path class="st2" d="M616.14,406.67c0.07,6.79,0.03,13.59,0.03,20.39c0,0.8-0.01,1.6-0.05,2.4c-0.04,0.58-0.41,0.89-0.98,0.9
		c-1.9,0.02-3.8,0.02-5.7,0.01c-0.74-0.01-1.06-0.46-1.07-1.16c-0.02-0.8-0.03-1.59-0.03-2.4v-22.49c0-0.7-0.01-1.4,0.02-2.1
		c0.05-1.12,0.25-1.29,1.48-1.36c0.1-0.01,0.2-0.01,0.3-0.01c1.88,0.11,3.78-0.26,5.65,0.23
		C616.61,402.9,616.12,404.81,616.14,406.67z"/>
	<path class="st4" d="M717.8,406.98c0.11,6.72,0.03,13.45,0.02,20.17c0,0.8-0.03,1.6-0.08,2.4c-0.03,0.45-0.34,0.7-0.77,0.77
		c-0.3,0.05-0.6,0.08-0.9,0.06c-1.88-0.11-3.79,0.29-5.66-0.24c-0.9-1.81-0.32-3.72-0.39-5.59c-0.11-3.01-0.03-6.02-0.03-9.03
		c0-3.91,0-7.83,0.01-11.74c0-0.7,0.03-1.4,0.07-2.1c0.03-0.45,0.3-0.72,0.76-0.77c0.1-0.01,0.2-0.04,0.3-0.04
		C719.3,401.08,717.69,399.25,717.8,406.98z"/>
	<path class="st5" d="M714.94,396.82c-0.4-0.01-0.8-0.01-1.21,0c-4.21-0.06-3.72,0.49-3.74-3.64c-0.01-4.02-0.36-3.63,3.47-3.6
		c5,0.03,4.31-0.72,4.36,4.24C717.85,396.9,718.05,396.83,714.94,396.82z"/>
	<path class="st6" d="M616.09,396.04c-0.01,0.45-0.36,0.7-0.79,0.71c-1.09,0.03-2.19,0.01-3.28,0.01c-4.16,0.01-3.67,0.52-3.68-3.57
		c-0.01-4.07-0.41-3.58,3.7-3.62c1.09-0.01,2.18,0.03,3.28,0.06c0.45,0.01,0.76,0.31,0.77,0.75
		C616.11,392.27,616.12,394.15,616.09,396.04z"/>
</g>
</svg>
