<?xml version="1.0" encoding="utf-8"?>
<!-- Generator: Adobe Illustrator 26.0.2, SVG Export Plug-In . SVG Version: 6.00 Build 0)  -->
<svg version="1.1" id="Слой_1" xmlns="http://www.w3.org/2000/svg" xmlns:xlink="http://www.w3.org/1999/xlink" x="0px" y="0px"
	 viewBox="0 0 1000 319" style="enable-background:new 0 0 1000 319;" xml:space="preserve">
<style type="text/css">
	.st0{fill:#010101;}
	.st1{fill:#23912F;}
</style>
<g>
	<path class="st0" d="M999.8,198.1c-1-2.6-2.9-4.1-5.6-4.7c-1.6-0.4-3-1.1-4.6-1.8c-2.4-1-3.9-2.7-4.6-5.2c-0.4-1.6-0.8-3.2-1.1-4.8
		c-0.6-3.1-1-6.3-1.6-9.4c-1-5.1-2.3-10-4.5-14.7c-2.5-5.5-6.3-9.8-11.4-12.9c-2-1.3-4.2-2.3-6.5-3.2c-0.9-0.3-1.8-0.6-2.6-1.1
		c-0.9-0.5-1.8-1-2.6-1.6c-2.2-1.9-2.2-4.3,0-6.1c0.7-0.6,1.6-1,2.4-1.5c6.1-3.2,10.7-7.9,13.9-14.1c3.7-7.2,4.7-14.8,3.7-22.8
		c-1.2-8.9-5.2-16.2-12.2-21.9c-4-3.2-8.3-5.7-13.1-7.7c-10.3-4.2-21.1-5.5-32.1-4.9c-7.6,0.4-15.1,0.9-22.7,1.5
		c-11.3,0.8-22.7,0.5-34-0.4c-6.2-0.5-12.4-0.6-18.5,0.3c-2.9,0.4-5.7,1.2-8.3,2.6c-2,1.1-3.7,2.4-5,4.3c-3,4.3-2,9.5,2.3,12.4
		c0.9,0.6,1.9,1.2,2.9,1.7c0.5,0.3,1.1,0.5,1.6,0.8c3.4,1.8,5.6,4.5,6.6,8.2c0.4,1.6,0.7,3.2,0.9,4.8c0.6,5,0.6,9.9,0.6,14.9
		c0,16.2-0.1,32.5-0.2,48.7c0,4.1-0.2,8.2-0.5,12.4c-0.2,3.1-0.7,6.1-1.3,9.2c-0.9,4.5-3.3,7.8-7,10.4c-1,0.7-2,1.3-3,2.1
		c-0.8,0.6-1.6,1.3-2.4,2c-1.1,1-1.7,2.3-1.9,3.8c-0.4,3.2,0.5,5.9,2.6,8.3c1.3,1.5,3,2.6,4.8,3.5c2.3,1.2,4.7,2,7.2,2.6
		c6.3,1.6,12.7,2.2,19.2,2.4c9.8,0.4,19.6,0.2,29.4-0.9c3.3-0.4,6.6-1,9.8-2c2-0.7,3.8-1.5,5.5-2.8c4.4-3.5,5-9.6,1.4-13.9
		c-1.1-1.3-2.5-2.3-4-3.2c-1.1-0.7-2.2-1.3-3.3-2.1c-1.4-0.9-2.4-2.3-2.8-3.9c-0.4-1.5-0.7-3-0.9-4.5c-1.1-7.7-1.3-15.4-1-23.1
		c0.1-1.6,0.2-3.3,0.5-4.9c0.5-3.2,2.1-4.6,5.4-4.8c1.3-0.1,2.6,0.2,3.8,0.4c4.2,0.8,7.6,2.8,9.8,6.5c0.8,1.3,1.5,2.7,2.1,4.1
		c1.4,3.1,2.3,6.5,3.1,9.8c1.8,7.3,3.7,14.6,6.2,21.8c1.5,4.4,3.5,8.6,6.2,12.4c3.2,4.5,7.4,7.9,12.5,10c3.3,1.4,6.8,2.3,10.4,2.8
		c9.2,1.2,18.4,0.9,27.5-1c2.6-0.5,5.2-1.3,7.6-2.4c4.3-2,7.7-4.8,9.4-9.3c0,0,0.2,0,0.2,0v-6.7
		C999.9,198.2,999.8,198.2,999.8,198.1z M918,114c-0.2,0.9-0.5,1.8-0.8,2.7c-1.7,4.6-4.8,7.6-9.6,9c-3.1,0.9-6.3,1.1-9.4,0.8
		c-2.3-0.2-3.4-1.2-3.8-3.5c-0.2-0.8-0.2-1.7-0.2-2.6c0-2.7,0.1-5.3,0.3-8c0.1-1.8,0.2-3.6,0.3-5.4h0c0.2-4.7,0.4-9.4,0.6-14.2
		c0.1-1.7,0.3-3.4,0.9-5.1c0.7-1.9,2-3.1,4-3.7c6.3-1.8,13,1.1,16,6.8c0.9,1.8,1.6,3.8,1.9,5.8C919.2,102.6,919.2,108.3,918,114z"/>
	<path class="st1" d="M1000,224.5v10.8c-0.7-0.4-1.5-0.2-2.3-0.2c-26.2,0-52.4,0-78.5,0c-0.9,0-1.7,0.1-2.6,0.1
		c-2.2-1.6-4.7-2.6-7.3-2.9c-3.7-0.4-7.5-0.4-11.3,0c-4.4,0.6-8.7,1.5-12.9,3.2c-0.4-0.4-0.9-0.5-1.4-0.5c-0.8,0-1.5,0-2.3,0
		c-118.3,0-236.6,0-354.9,0c-1.1,0-2.2-0.1-3.3,0.2c-0.6-1.8-1.9-2.7-3.7-3.1c-1.6-0.4-3.2-0.6-4.8-0.2c-0.5,0.1-1,0.1-1.5,0.2
		c-2.2,0.1-4.4,0.5-6.6,0.9c-4.2,0.7-8.4,1.6-12.5,2.6c-0.4-0.4-0.8-0.6-1.4-0.6c-0.9,0-1.9,0-2.8,0c-96.1,0-192.3,0-288.5,0
		c-1.2,0-2.6,0.5-3.5-0.3c-0.9-0.8-0.3-2.3-0.3-3.4c-0.1-1.9,0-3.8,0-5.7c0-0.6,0.4-0.9,1-0.9c0.9,0,1.9,0,2.8,0H942
		c18.4,0,36.8,0,55.2,0C998.1,224.7,999.1,224.9,1000,224.5z"/>
	<path class="st0" d="M969,268.9c-1.6,1.5-1.6,3.5-0.2,5c0.7,0.7,1.4,1.2,2.3,1.7c1.4,0.8,2.9,1.4,4.5,2c3.9,1.5,7.8,3.1,11.5,5.1
		c2.4,1.3,4.7,2.7,6.9,4.4c2.7,2.1,4.9,4.5,5.8,7.9c0,0,0.1,0.1,0.2,0.1v8.2c-0.1,0.1-0.3,0.2-0.4,0.3c-0.5,2.8-2.3,5-4.3,6.8
		c-4.1,3.8-8.9,6.1-14.3,7.2c-4.6,1-9.2,1.3-13.8,0.8c-4.2-0.5-8.4-0.8-12.6-1.2c-1.7-0.2-3.4-0.2-5.1,0.1c-0.7,0.1-1.4,0.2-2.1,0.2
		c-3.4,0.2-6.2-0.9-8.4-3.6c-2.6-3.1-4.6-6.6-5.7-10.5c-0.4-1.5-0.5-3-0.3-4.6c0.3-2.2,1.5-3.6,3.7-4.1c2.1-0.5,4.1-0.1,5.9,1.2
		c1.7,1.2,3.2,2.5,4.8,3.8c1.9,1.5,3.7,3.1,5.6,4.6c1.6,1.2,3.4,2,5.4,2.3c1.3,0.2,2.6,0,3.8-0.4c0.7-0.2,1.4-0.7,1.9-1.2
		c1.1-1.2,1.2-2.9,0.2-4.2c-0.7-0.9-1.6-1.5-2.6-2c-1.2-0.6-2.5-1.1-3.8-1.7c-3.9-1.6-7.7-3.4-11.3-5.7c-2-1.2-3.8-2.6-5.5-4.2
		c-7.3-6.9-6.5-17.5-0.4-23.8c3.3-3.4,7.2-5.8,11.8-7c4.6-1.3,9.3-1.7,14-1.2c2.8,0.3,5.6,0.6,8.4,1.1c2.5,0.4,5,0.4,7.4-0.4
		c0.6-0.2,1.3-0.3,2-0.6c2.4-0.8,4.6-0.2,6.6,1.1c0.8,0.5,1.5,1.1,2.2,1.8c2.1,2,3.9,4.3,5.3,7c0.6,1.1,1.2,2.3,1.3,3.6
		c0,0.3,0.2,0.5,0.4,0.6v3.1c-0.1,0-0.2,0.1-0.2,0.1c-0.8,2.5-2.7,3.6-5.1,4.1c-2.7,0.6-5.3,0.2-7.7-1.3c-1.8-1.1-3.5-2.4-5.3-3.7
		c-1.2-0.8-2.4-1.7-3.6-2.5c-1.1-0.8-2.4-1.3-3.7-1.7C972.4,267,970.5,267.4,969,268.9z"/>
	<path class="st0" d="M184.4,41.3c0-2.2-0.3-4.5-0.7-6.7c-1.5-7.6-5.2-13.9-10.9-19.1c-4.3-3.9-9.2-6.8-14.6-9
		c-10-4.1-20.4-6.1-31.1-6.3c-3.1,0-6.2,0.1-9.3,0.1c-0.2,0-0.5-0.1-0.7-0.2c-5.6,0-11.1,0.7-16.7,1.6c-12.7,2-24.9,5.7-36.6,11
		C50.2,18.9,38,27,27.6,37.6C16.2,49.2,8.1,62.7,3.6,78.4C1.1,87.6,0,97,0,106.4c0,2.2,0.2,4.5,0.3,6.7c0,0.1,0.1,0.3,0.2,0.4
		c0.1,0,0.2,0.1,0.2,0.1c0.2,0,0.3,0,0.5-0.1c17.9-7.9,35.8-15.7,53.7-23.6c0.1,0,0.2-0.1,0.2-0.1c0.2-0.3-0.4,0,0-0.3
		c-0.5-0.3-1-0.7-1.5-1c-1.5-1-2.7-2.4-3.5-4c-1.2-2.2-1.3-4.3-0.4-6.7c0.9-2.4,2.3-4.4,4.1-6.2c2.5-2.5,5.3-4.6,8.4-6.4
		c5.1-3.1,10.6-5.6,16.3-7.7c13.6-5,27.7-8,42.2-8.6c7.1-0.3,14.1,0.2,21,1.9c4.5,1.1,8.8,2.8,12.7,5.4c5.5,3.8,9,8.9,10.2,15.5
		c0.6,3.6,1.1,7.3,1,11c0,1-0.2,2.1-0.3,3.1c-0.8,4.8-3,8.9-6,12.7c-2.5,3.1-5.4,5.8-8.5,8.2c-4.6,3.5-9.5,6.5-14.7,9.1
		c-15.7,7.8-32.4,12.8-49.5,16.4c-0.5,0.1-1,0.4-1.5-0.2c0.4-0.7,0.8-1.5,1.2-2.2c4.8-8.7,9.6-17.5,14.4-26.2
		c4.9-8.9,9.8-17.7,14.6-26.6c0.3-0.5,0.8-1.1,0.6-1.9c-1.5,0.2-3,0.4-4.4,0.7c-5.5,1.2-10.6,3.5-15.2,6.8c-4.2,3-7.8,6.5-11.1,10.3
		c-5.2,5.9-9.5,12.4-13.6,19c-4.7,7.6-9,15.4-13,23.4c-1,1.9-2.4,3.1-4.3,3.8c-1.7,0.6-3.4,1.1-5.2,1.3c-4.2,0.7-8.5,1.3-12.7,2
		c-4,0.7-7.9,1.7-11.6,3.5c-5.9,2.8-9.6,7.3-11.1,13.7c-1,4.4,0,8,3.3,11c1.7,1.6,3.7,2.8,5.8,3.8c2.7,1.3,5.5,2.3,8.4,3.2
		c2,0.6,3.9,1.2,5.9,1.7c0,1-0.5,1.7-0.9,2.5c-2.7,5.2-5.4,10.3-8.1,15.5c-4.5,8.5-9,17-12.8,25.8c-4.4,10.1-7.9,20.5-9.3,31.5
		c-0.5,3.9-0.8,7.9-0.6,11.8c0.1,1.7,0.2,3.4,0.2,5.1C5.4,275.8,6,279.9,7,284c4.8,20,22.7,33.7,43.2,33.3
		c8.9-0.2,17.6-1.4,26.2-3.7c20-5.3,36.6-15.8,49.6-31.9c6.8-8.5,12.1-17.9,16.3-27.9c3.1-7.5,5.6-15.1,6.3-23.2
		c0.4-4.7,0.4-9.3-0.4-13.9c-1.5-8.9-5.5-16.5-11.8-23c-4-4.1-8.5-7.5-13.4-10.3c-6.2-3.7-12.9-6.5-19.7-8.8
		c-10.4-3.5-21-5.9-31.7-7.8c-2.8-0.5-2.8-0.1-2.1-3.3c0.3-1.4,1.1-2.5,2-3.6c1-1.2,2.3-2.1,3.6-2.9c1.9-1.2,3.9-2.1,6-3
		c4.4-1.8,8.9-3.2,13.4-4.6c8-2.5,16.1-4.8,24-7.8c9.2-3.4,18.1-7.5,26.3-12.9c13-8.5,23.2-19.6,29.9-33.7c4.3-8.9,6.9-18.3,8.4-28
		C184.2,58.4,184.6,49.9,184.4,41.3z M92,188.7c6.7,2.7,13,6.1,18.8,10.6c2.4,1.9,4.7,4,6.7,6.4c1.1,1.3,2.1,2.7,3,4.1
		c2.5,4,3.2,8.2,2.4,12.8c-1,5.7-3.1,11-6.3,15.9c-3.8,5.9-8.6,10.9-14.2,15.2c-7.9,6-16.5,10.4-26.2,12.7
		c-5.3,1.2-10.5,1.4-15.9,0.6c-3.6-0.6-7.1-1.3-10.4-2.8c-1.2-0.5-2.3-1.1-3.5-1.7c-6.6-3.9-10.2-9.7-11.1-17.3
		c-0.1-0.8-0.1-1.5-0.2-2.3c0-0.8,0-1.5,0-2.3c0-5.6,1.2-11.1,2.9-16.4c2.4-7.5,5.8-14.6,9.6-21.6c3.4-6.2,7.3-12.2,11.2-18.2
		c0.9-1.3,1.8-1.7,3.4-1.7C72.7,182.8,82.5,184.9,92,188.7z"/>
	<path class="st0" d="M629.3,81.4c-1.3,1-2.7,1.9-4.2,2.5c-1.1,0.5-2.2,1-3.2,1.6c-1.5,0.8-2.6,2-3.3,3.5c-0.7,1.6-1.2,3.2-1.6,4.9
		c-0.8,3.5-1.2,7.1-1.5,10.7c-0.3,4.9-0.5,9.8-0.5,14.7c0.1,19.4,0.1,38.8,0.2,58.2c0,6.4-0.1,12.9-0.8,19.3
		c-0.4,3.4-0.9,6.8-2,10.1c-0.5,1.4-1,2.7-1.7,4c-3.2,5.5-9.4,7.1-14.9,3.9c-0.8-0.5-1.6-1-2.3-1.6c-2.1-1.7-4.1-3.4-6.1-5.2
		c-21.8-19.5-43.6-39-65.3-58.4c-1.9-1.7-3.7-3.3-5.9-4.6c-1.6-1-3.3-1.8-5.2-2.2c-2-0.4-3.6,0.2-4.8,1.8c-0.8,1-1.3,2.2-1.7,3.4
		c-0.9,2.9-1.3,5.9-1.4,8.9c-0.3,6.6-0.2,13.2,0.5,19.8c0.2,1.7,0.5,3.4,0.9,5.1c0.9,4.2,3.3,7.3,7.1,9.3c1.8,0.9,3.5,1.9,4.9,3.3
		c1.9,1.8,2.9,4.1,2.8,6.7c-0.1,3.3-1.3,6.2-3.8,8.4c-1.5,1.4-3.3,2.4-5.2,3.2c-2.9,1.3-6,2-9.2,2.5c-8.6,1.3-17.3,1.5-26,0.5
		c-4-0.5-8-1.3-11.7-2.9c-2-0.9-3.9-1.9-5.5-3.3c-3.5-3.2-4.6-7.1-3.4-11.7c0.4-1.5,1.2-2.7,2.4-3.6c1.5-1.1,3-2.3,4.7-3.2
		c4.5-2.4,6.6-6.3,7.4-11.1c0.8-4.9,1.1-9.9,1.4-14.9c0.7-12.9,0.8-25.7,0.5-38.6c-0.2-7-0.6-14.1-1.5-21.1c-0.5-3.4-1-6.8-1.9-10.1
		c-0.2-0.6-0.4-1.1-0.5-1.7c-1.1-3.8-3.4-6.5-6.9-8.3c-1-0.5-2-1-3-1.6c-1.3-0.8-2.7-1.5-3.9-2.4c-4.5-3.4-5.2-9.2-1.9-13.7
		c1.2-1.6,2.8-2.8,4.5-3.7c2.7-1.5,5.7-2.4,8.7-3c3.1-0.6,6.3-1,9.5-1.1c5.2-0.1,10.5-0.3,15.7-0.4c3.4,0,6.9,0.2,10.3,0.8
		c2.3,0.4,4.4,1.3,6.4,2.5c2.2,1.4,4.2,3,6.1,4.7c11.8,10.3,23.6,20.6,35.3,30.9c6.7,5.9,13.5,11.8,20.2,17.6c1.8,1.5,3.5,3,5.5,4.3
		c1.1,0.8,2.3,1.5,3.6,2c2.9,1.1,5,0.2,6.4-2.5c0.9-1.7,1.2-3.6,1.4-5.5c0.1-0.9,0.1-1.9,0.1-2.8c0-5,0-10-0.6-14.9
		c-0.2-1.4-0.4-2.7-0.7-4.1c-0.9-3.9-3.2-6.8-6.7-8.7c-1.3-0.7-2.6-1.4-3.8-2.1c-5.2-3.2-5.4-8.7-4.3-12.4c0.8-2.5,2.4-4.3,4.6-5.7
		c1.9-1.2,4-2,6.2-2.5c2.2-0.6,4.5-1,6.9-1.1c4.5-0.3,8.9-0.5,13.4-0.5c5.8,0.1,11.5,0.2,17.2,0.9c2.8,0.3,5.6,0.9,8.2,2
		c1.3,0.5,2.5,1.2,3.6,2C634.4,68.1,635,77,629.3,81.4z"/>
	<path class="st0" d="M820.9,74.3c-0.2,1.3-0.9,2.4-1.9,3.2c-1,0.7-1.9,1.4-2.9,2.1c-1.2,0.8-2.5,1.5-3.8,2.2
		c-1.5,0.9-2.9,1.9-4.1,3.1c-1.3,1.3-2.2,2.9-2.3,4.8c-0.1,1.3-0.3,2.6-0.4,3.8c-0.4,8.6-0.6,17.2-0.6,25.8c0,8.2,0,16.5,0,24.7
		c0,5.9-0.2,11.9-0.6,17.8c-0.4,5-0.9,9.9-2.2,14.7c-2.5,9.1-7.6,16.6-14.8,22.7c-4.7,4-9.9,7-15.6,9.5c-9.3,4-19,6.5-29.1,7.5
		c-7.6,0.8-15.3,0.9-22.9,0.4c-10.9-0.7-21.5-2.8-31.5-7.1c-6.8-2.9-13.1-6.7-18.7-11.7c-7.8-6.8-12.5-15.4-14.3-25.5
		c-1.3-7.4-1.9-14.8-1.8-22.3c0-9.7,0.3-19.4,0.6-29.1c0.2-6.3,0.3-12.5,0.3-18.8c0-2.4-0.2-4.8-0.5-7.2c-0.4-3.2-1.7-5.9-4.2-8
		c-1-0.9-2.1-1.7-3.3-2.5c-1.6-1.1-3-2.3-4.2-3.7c-3.7-4.4-3.5-9.8,0.7-13.9c2.5-2.4,5.5-3.9,8.8-4.7c4.3-1.1,8.8-1.6,13.2-2.1
		c9.5-0.9,19.1-0.9,28.6-0.5c6.6,0.3,13.2,1.1,19.7,2.6c2.3,0.5,4.4,1.3,6.5,2.5c4.6,2.7,6,7.6,5.1,11.7c-0.5,2.7-1.9,4.8-4.4,6.1
		c-1.7,0.9-3.5,1.9-5.3,2.6c-3,1.3-4.7,3.6-5.4,6.8c-0.7,3-1,6.1-1,9.2c-0.1,4.7,0,9.4-0.2,14.2c-0.2,9.3-0.5,18.5-0.7,27.8
		c-0.1,4-0.2,8.1,0.3,12.1c0.6,4.1,1.5,8.1,3.4,11.8c3.8,7.6,9.7,12.9,17.8,15.4c9.4,2.9,18.7,2.5,27.7-1.4
		c9.8-4.2,14.8-11.8,16.1-22.2c0.5-3.7,0.6-7.4,0.6-11.1c0-7.9,0-15.8,0-25c-0.1-8.8-0.4-18.8-1.1-28.9c-0.1-1-0.3-2-0.4-3.1
		c-0.3-2.8-1.8-5-4-6.7c-1.2-0.9-2.6-1.6-4-2.3c-1.9-0.9-3.7-1.8-5.4-2.9c-5.8-3.5-4.5-10.6-0.9-13.6c1.7-1.4,3.6-2.4,5.6-3.1
		c3-1.1,6.1-1.7,9.3-2c8.8-1,17.7-1,26.5-0.5c4.1,0.2,8.2,0.8,12.2,2c1.8,0.5,3.6,1.2,5.2,2.3C820.9,66.9,821.5,70.3,820.9,74.3z"/>
	<path class="st0" d="M437.2,116.7c-3.7-17.2-12.4-31.3-26.1-42.3c-10.7-8.7-23-13.9-36.7-15.9c-3.3-0.5-6.7-0.6-10-1
		c-0.9,0-1.6,0.4-2.3,0.9c-3.3,2.3-6.5,4.8-9.6,7.3c-5.8,4.7-11.4,9.6-16.9,14.7c-6,5.5-11.6,11.5-17,17.6
		c-12.1,13.5-22.4,28.3-32.1,43.5c-0.5,0.8-0.7,1.7-0.9,2.6c0,1.2,0,2.4,0,3.6c-0.1,8.6,1.7,16.9,5.3,24.7
		c4.5,9.7,11.1,17.7,19.5,24.2c13.5,10.5,28.9,16.4,45.9,18.1c9.1,0.9,18,0.5,26.9-1.7c17.5-4.2,31.4-13.6,41.3-28.6
		c6-9.1,9.7-19.1,11.8-29.7c1.3-6.4,2-12.9,2.3-19.4C439,129.1,438.5,122.8,437.2,116.7z M383.8,159.7c-2,4.2-4.5,7.9-7.9,11
		c-2.9,2.6-6.2,4.5-10.1,5.4c-3.9,0.8-7.7,0.3-11.3-1.4c-3.4-1.5-6.1-3.8-8.5-6.6c-3.7-4.3-6.2-9.3-7.8-14.7
		c-3.9-13.1-3.5-26.1,1.7-38.8c1.6-4,3.9-7.6,6.8-10.8c2-2.2,4.2-4,6.9-5.4c5.8-2.9,11.5-2.9,17.3,0c3.2,1.6,5.8,4,8,6.7
		c3.9,4.7,6.3,10.2,7.9,16c1.4,5,1.9,10.1,2,15.2C388.6,144.6,387.3,152.4,383.8,159.7z"/>
	<path class="st1" d="M366.5,55.6c-0.4,0.9-1.6,1-2,1.9c-0.9,0-1.6,0.4-2.3,0.9c-3.3,2.3-6.5,4.8-9.6,7.3
		c-5.8,4.7-11.4,9.6-16.9,14.7c-6,5.5-11.6,11.5-17,17.6c-12.1,13.5-22.4,28.3-32.1,43.5c-0.5,0.8-0.7,1.7-0.9,2.6
		c-0.8,0.6-1.2,1.5-1.6,2.3c-11,18.1-20.4,37.1-28.7,56.6c-1.1,2.7-2.3,5.4-3.4,8.1c-0.3,0.7-0.7,1.1-1.5,1.1c-0.5,0-1,0-1.5,0H200
		c-0.5,0-1,0-1.5,0c-1,0-1.1-0.2-1.2-1.3c0-0.6,0-1.2,0-1.8c0-35.3,0-70.5,0-105.8c0-0.9,0.1-1.7,0.1-2.6c0.6,0.6,1.2,1.2,1.8,1.8
		c1.6,1.6,3.1,3.1,5,4.5c5.4,3.9,11.4,5.9,18.1,5.1c6.9-0.8,12.9-3.8,17.9-8.7c1.6-1.6,2.8-3.4,4.2-5.2c0.1,4,0.3,8.1,0.3,12.1
		c0.1,5.1,0.1,10.3,0.2,15.4c0,0.8,0,1.7,0,2.5c0.8,0.2,0.9-0.4,1.2-0.8c3.6-5.3,7-10.6,10.7-15.8c6-8.6,12.5-16.8,19.8-24.3
		c5.1-5.2,10.6-10.1,16.5-14.3c12.4-8.9,26.1-14.7,41.2-17.1c8.7-1.4,17.4-1.8,26.2-1.1c1.3,0.1,2.6,0.1,3.9,0.3
		C365.1,55.1,365.9,55,366.5,55.6z"/>
	<path class="st0" d="M346.2,312.7c-0.6,1.2-1.6,2-2.8,2.6c-1.7,1-3.6,1.6-5.6,1.9c-2.1,0.4-4.2,0.7-6.4,0.9
		c-6.8,0.4-13.6,0.5-20.3-0.8c-2-0.4-3.8-0.9-5.7-1.7c-1.1-0.5-2.2-1-3-1.9c-1.4-1.5-1.6-3.2-0.4-4.9c0.4-0.6,0.8-1.1,1.3-1.6
		c1.8-1.6,2.6-3.6,2.9-5.9c0.9-7.1,1.1-14.2,0.1-21.3c-0.1-1-0.5-2-0.9-3c-0.8-2.1-2.4-3.3-4.6-3.7c-1.2-0.2-2.4-0.3-3.6-0.1
		c-3.4,0.6-5.5,2.8-5.8,6.2c-0.4,4.3-0.6,8.6-0.4,12.9c0.1,2.2,0.3,4.5,0.3,6.7c0.1,2.7,0.9,5,2.5,7.1c0.5,0.7,1.1,1.4,1.6,2
		c1.4,2,1.3,4.1-0.5,5.8c-1.1,1-2.4,1.7-3.8,2.1c-2.5,0.9-5.2,1.3-7.8,1.6c-7.9,0.8-15.8,0.7-23.7,0c-1.9-0.2-3.8-0.5-5.6-1
		c-0.8-0.3-1.6-0.6-2.3-1c-1.9-1.2-2.7-3.2-2.1-5.4c0.2-0.6,0.5-1.1,1-1.5c0.8-0.7,1.5-1.4,2.4-1.9c2.1-1.4,3-3.4,3.2-5.9
		c0.1-2.1,0.4-4.1,0.4-6.2c0.1-3.4,0.1-6.9,0.2-10.3c0-2.2-0.4-4.3-1.2-6.3c-0.8-2-2.2-3.5-4.3-4.1c-1.9-0.5-3.8-0.4-5.5,0.4
		c-1.9,0.8-2.8,2.5-3.2,4.4c-0.2,1.1-0.4,2.2-0.5,3.3c-0.5,6.1-0.7,12.2-0.3,18.3c0.2,2.1,0.8,4,1.9,5.8c0.5,0.8,1,1.6,1.4,2.5
		c1.1,2.5,0.5,4.5-1.8,6c-1,0.7-2.1,1.1-3.3,1.4c-2.4,0.7-4.9,1.1-7.3,1.4c-6.7,0.8-13.4,0.8-20.1,0.3c-2.6-0.2-5.1-0.5-7.6-1.2
		c-1.3-0.4-2.6-0.8-3.8-1.6c-2.3-1.6-2.4-4.5-0.3-6.1c0.9-0.7,1.8-1.4,2.6-2.1c2.2-1.7,3.5-4,3.8-6.8c0.7-7.1,1.1-14.2,0.6-21.3
		c0-0.4-0.1-0.9-0.1-1.3c-0.3-2.4-1.3-4.2-3.4-5.5c-0.9-0.5-1.7-1.1-2.5-1.8c-1.2-1-1.4-2.3-0.9-3.7c0.4-1.2,1.2-2.1,2.2-2.8
		c1.3-1,2.8-1.7,4.4-2.2c6.8-2.1,13.7-3.9,20.7-5.2c2-0.4,4.1-0.6,6.1-0.8c1-0.1,2.1-0.2,3.1-0.2c3,0,4.4,1.4,4.5,4.4
		c0.1,1.1,0,2.2,0,3.3c0,0.8,0.1,1.5,0.5,2.2c0.5,0.8,1.5,1.3,2.4,0.9c0.5-0.2,1-0.4,1.4-0.7c0.6-0.4,1.2-1,1.8-1.5
		c5.2-4.9,11.5-7.3,18.5-8.4c4.5-0.7,8.9-0.5,13.3,0.6c4,1,7.2,3.1,9.6,6.6c0.5,0.8,1.1,1.5,1.8,2.2c0.8,0.7,1.4,0.8,2.3,0.2
		c1.2-0.7,2.3-1.6,3.4-2.4c2.9-2.2,6-4.1,9.4-5.3c7.5-2.7,15.1-3.1,22.8-0.8c1.5,0.4,2.9,1.1,4.3,1.8c5.3,2.9,8,7.4,8.2,13.4
		c0.1,2.8,0,5.7,0,8.5c0,1.7,0,3.4,0,5.2h0c-0.1,4.3-0.2,8.6-0.3,12.9c-0.1,2.9,0.8,5.4,2.8,7.5c0.6,0.6,1.2,1.2,1.8,1.8
		C346.9,309.4,347.1,311.1,346.2,312.7z"/>
	<path class="st0" d="M529.6,304.8c-0.6-0.6-1.4-1-2.1-1.5c-0.6-0.4-1.2-0.7-1.7-1.1c-1.4-0.9-2.2-2.1-2.2-3.8
		c0-2.1-0.2-4.1-0.2-6.2c0-17.7,0-35.4,0-53.1c0-1.3-0.1-2.6-0.2-3.8c-0.6-1.8-1.9-2.7-3.7-3.1c-1.6-0.4-3.2-0.6-4.8-0.2
		c-0.5,0.1-1,0.1-1.5,0.2c-2.2,0.1-4.4,0.5-6.6,0.9c-4.2,0.7-8.4,1.6-12.5,2.6c-2.6,0.4-5.1,1-7.5,1.8c-1.2,0.4-2.4,1-3.5,1.5
		c-0.7,0.4-1.5,0.9-2.1,1.5c-2,2-1.7,4.6,0.7,6.1c0.7,0.4,1.5,0.7,2.4,1c0.7,0.3,1.5,0.4,2.2,0.7c3.6,1.2,4.8,3.1,4.2,6.8
		c-0.1,0.6-0.2,1.2-0.4,1.8c-0.5,1.5-1.4,2-3,1.6c-0.5-0.1-1-0.4-1.4-0.5c-1-0.4-1.9-0.8-2.9-1.1c-14-4.2-26.7-1.5-38,7.6
		c-3.9,3.1-6.7,7.1-8.7,11.7c-3.1,7.2-3.1,14.3,0.1,21.4c2.6,5.8,6.5,10.5,11.6,14.2c8,5.9,17,8,26.8,6.3c4-0.7,7.7-2.3,11.1-4.5
		c1.1-0.7,2.1-1.4,3.4-1.8c1.4-0.4,2.6,0.1,3.2,1.4c0.2,0.4,0.3,0.8,0.3,1.2c0.1,0.6,0.2,1.2,0.3,1.8c0.2,1.2,1,1.8,2.1,1.9
		c0.8,0.1,1.5,0.1,2.3,0.1c7.2,0,14.2-0.8,21.2-2.2c2.6-0.5,5.2-1.2,7.6-2.3c1.2-0.5,2.3-1.1,3.3-2
		C531.9,309.6,531.9,306.9,529.6,304.8z M489.5,295.5c-0.3,1.4-0.8,2.8-1.5,4.1c-1.5,2.6-3.7,4-6.7,4c-3.6,0.1-6.5-1.4-8.4-4.5
		c-1.2-1.9-2-4-2.3-6.2c-0.7-5-0.5-9.9,0.9-14.7c0.7-2.3,1.7-4.5,3.3-6.4c2.5-3,5.6-4,9.4-3.1c2.3,0.6,3.9,2,4.9,4.2
		c1,2.2,1.3,4.6,1.4,7c0.1,1.5,0,3.1,0,4.6C490.6,288.2,490.4,291.9,489.5,295.5z"/>
	<path class="st0" d="M427.4,272.7c-1.8-3.7-4.4-6.7-7.7-9.3c-4.3-3.4-9.2-5.7-14.5-7c-7.7-1.9-15.5-2-23.3-0.4
		c-5.8,1.1-11.2,3.2-16.1,6.5c-4,2.6-7.4,5.8-10.1,9.8c-4.4,6.5-5.7,13.5-3.9,21.1c1.5,6.3,5,11.4,9.8,15.6c6.3,5.5,13.8,8.1,22,9.2
		c4.7,0.6,9.4,0.6,14.2,0.1c7.8-0.9,15.1-3.2,21.8-7.4c1.4-0.9,2.7-1.8,3.8-3c0.8-0.8,1.5-1.7,1.9-2.7c1.1-2.5,0.7-4.7-1.4-6.8
		c-2-2.1-3.8-2.4-6.5-1.2c-0.3,0.1-0.6,0.3-0.9,0.5c-3.5,2-7.2,3.1-11.2,3.8c-3.4,0.6-6.8,0.7-10.2-0.3c-3.4-1-6.3-2.6-8.9-5
		c-1.3-1.2-2.3-2.6-2.5-4.4c-0.3-1.9,0.2-2.6,2.1-2.7c0.7-0.1,1.4,0,2.1,0c5.4,0,10.8,0,16.3,0c5.3,0,10.7,0,16,0
		c0.9,0,1.7,0,2.6-0.1c1.7-0.1,3.1-0.9,4.2-2.2c1.4-1.6,2.1-3.5,2.3-5.6C429.4,278.2,428.7,275.4,427.4,272.7z M397.4,277.3
		c-0.7,0.2-1.5,0.2-2.3,0.2c-1.2,0-2.4,0-3.6,0c0,0,0,0,0,0c-1.3,0-2.6,0-3.9,0c-0.7,0-1.4-0.1-2-0.2c-2.1-0.5-2.9-1.6-2.6-3.7
		c0.4-3,2.1-5.2,4.9-6.5c2.8-1.3,5.7-1.2,8.5,0.1c2.6,1.3,4,3.4,4.1,6.3C400.5,275.7,399.6,276.9,397.4,277.3z"/>
	<path class="st0" d="M686.5,273.1c-1.7-3.6-4.2-6.7-7.3-9.2c-4.5-3.6-9.5-6.1-15.1-7.4c-6-1.4-12-1.8-18.2-1.1
		c-6.9,0.7-13.4,2.7-19.5,6.2c-4.9,2.9-9,6.6-12.1,11.3c-3.1,4.7-4.6,10-4.3,15.6c0.3,5.5,2.2,10.5,5.5,15c3.6,5,8.3,8.6,13.9,11.1
		c4.9,2.2,10.1,3.3,15.4,3.8c9.2,0.8,18-0.3,26.5-3.8c3.3-1.3,6.4-3,9.2-5.1c1.5-1.1,2.9-2.5,3.7-4.2c1-2.1,0.9-4.2-0.6-6
		c-0.5-0.7-1.2-1.3-1.8-1.8c-1.3-1-2.8-1.2-4.4-0.6c-1,0.4-1.9,0.9-2.8,1.3c-4.7,2.4-9.6,3.6-14.9,3.8c-5.2,0.1-9.8-1.7-13.7-5
		c-1-0.8-1.9-1.8-2.5-2.9c-0.6-1-0.9-2.1-0.9-3.2c0-0.9,0.5-1.5,1.3-1.6c0.8-0.1,1.7-0.2,2.6-0.2c5.5,0,11,0,16.5,0
		c5.4,0,10.8,0,16.3,0c0.9,0,1.7,0,2.6-0.1c1.5-0.1,2.8-0.8,3.8-1.9c1-1.1,1.7-2.3,2.1-3.8C688.8,279.7,688.1,276.3,686.5,273.1z
		 M659.4,274.2c-0.1,1.5-0.8,2.4-2.2,2.9c-0.8,0.3-1.7,0.4-2.5,0.4c-1.5,0-2.9,0-4.4,0c-1.2,0-2.4,0-3.6,0c-0.8,0-1.5-0.1-2.3-0.3
		c-2-0.4-2.8-1.9-2.5-3.8c0.6-3.1,2.4-5.3,5.3-6.5c2.5-1,5.1-0.9,7.6,0C657.9,268.1,659.7,271,659.4,274.2z"/>
	<path class="st0" d="M772,273.1c-1.8,5-5.5,8.2-10.4,9.9c-3.6,1.3-7.4,1.4-11.2,0.6c-1.4-0.3-2.8-0.9-4-1.7
		c-1.4-0.9-2.8-1.9-4.2-2.9c-0.6-0.4-1.1-0.9-1.7-1.2c-2.5-1.5-4.6-0.6-5.2,2.2c-0.1,0.3-0.1,0.7-0.1,1c-0.6,5.6-0.3,11.2,0.2,16.7
		c0.4,4.2,1.2,5.1,5.3,6.2c0.9,0.3,1.8,0.5,2.7,0.8c0.8,0.3,1.6,0.6,2.3,1.1c3,1.9,3.4,5.3,1,7.9c-1.4,1.5-3.1,2.4-5.1,2.9
		c-2.2,0.6-4.4,0.8-6.6,1c-4.2,0.3-8.4,0.7-11.8,0.6c-6.2,0-11.5,0.1-16.8-0.5c-2.9-0.3-5.8-0.7-8.6-1.5c-1.2-0.4-2.4-0.8-3.5-1.6
		c-2.9-2.1-3.3-5.4-0.8-8c0.7-0.8,1.5-1.4,2.4-1.9c0.6-0.3,1.2-0.7,1.8-1c1.8-1,2.7-2.5,3-4.5c0.5-3.2,0.8-6.5,0.9-9.7
		c0.1-3.6,0.1-7.2,0.1-10.8c0-0.3,0-0.7,0-1c0-2.4-1.1-4.1-3.5-4.8c-0.7-0.2-1.3-0.4-1.9-0.7c-0.8-0.4-1.5-0.8-2.2-1.3
		c-1.8-1.5-2.1-3.5-0.9-5.5c0.7-1.1,1.7-1.9,2.8-2.6c1.6-0.9,3.2-1.6,4.9-2.2c5.6-1.9,11.4-3.2,17.2-4.1c3.7-0.6,7.3-1,11-1
		c0.8,0,1.5,0,2.3,0.1c1.5,0.2,2.6,0.9,2.9,2.5c0.2,1.3,0.5,2.5,0.7,3.8c0.1,0.7,0.2,1.4,0.5,2c0.6,1.1,1.6,1.5,2.8,1
		c0.7-0.3,1.2-0.7,1.6-1.2c0.6-0.7,1.2-1.4,1.9-2.1c4.7-4.9,10.5-6.6,17.1-5.9c1.4,0.2,2.7,0.4,4,0.9c5.1,1.8,8.1,5.5,9.3,10.8
		C773,269.3,772.7,271.2,772,273.1z"/>
	<path class="st0" d="M601,307.7c-1.4,2-3.2,3.6-5.2,5c-4.3,3-9.1,4.8-14.3,5.5c-2.3,0.3-4.6,0.7-6.9,0.6c-2.8-0.2-5.7-0.4-8.5-0.7
		c-2.7-0.2-5.3-0.5-8-0.8c-1.9-0.2-3.8-0.2-5.7,0.1c-0.5,0.1-1,0.1-1.5,0.2c-3.6,0.2-6.6-0.9-8.9-3.7c-2.8-3.4-4.8-7.1-5.8-11.3
		c-0.4-1.5-0.4-3.1,0.1-4.6c0.5-1.6,1.5-2.6,3.1-3.1c2.2-0.6,4.3-0.2,6.1,1c1.3,0.9,2.6,2,3.9,3c2.1,1.7,4.1,3.4,6.1,5.1
		c1.7,1.4,3.6,2.3,5.8,2.6c1.3,0.2,2.6,0,3.8-0.4c0.8-0.2,1.4-0.6,2-1.2c1.1-1.2,1.2-3,0.2-4.2c-0.7-0.9-1.6-1.6-2.6-2.1
		c-1.2-0.6-2.5-1.2-3.8-1.7c-3.9-1.6-7.7-3.4-11.3-5.7c-2.2-1.4-4.2-2.9-6-4.8c-6.5-6.7-5.7-16.1-1.1-21.9c3.3-4.1,7.5-6.8,12.5-8.3
		c4.7-1.4,9.4-1.9,14.3-1.4c3,0.3,6,0.7,9,1.2c2.4,0.4,4.8,0.3,7.1-0.5c0.6-0.2,1.3-0.3,2-0.6c2.3-0.8,4.4-0.2,6.4,1
		c0.7,0.4,1.3,0.9,1.9,1.4c2.8,2.5,5,5.4,6.5,8.9c0.6,1.3,0.9,2.6,1,4c0.2,2.2-0.7,3.8-2.5,5c-1.7,1.1-3.7,1.5-5.7,1.3
		c-1.8-0.1-3.6-0.6-5.1-1.7c-1.8-1.2-3.5-2.5-5.2-3.7c-1.3-1-2.6-2-4-2.8c-1-0.5-2-1-3.1-1.2c-2.2-0.5-4.1,0-5.6,1.7
		c-1.3,1.4-1.3,3.2,0,4.6c0.7,0.8,1.6,1.3,2.5,1.8c1.4,0.8,2.9,1.4,4.5,2c4.6,1.7,9.1,3.7,13.3,6.2c2.2,1.3,4.2,2.6,6.1,4.3
		c2.2,1.9,3.9,4.1,4.7,6.9C604.4,299.5,603.7,303.8,601,307.7z"/>
	<path class="st0" d="M873.9,263.3c-0.8,0.8-1.8,1.3-2.9,1.7c-1,0.4-2,0.6-3,0.9c-3.1,0.8-5.5,2.4-7.1,5.1c-0.7,1.2-1.6,2.4-2.4,3.7
		c-6.5,10.3-13,20.6-19.5,30.9c-1.4,2.2-2.9,4.3-4.4,6.4c-0.7,1-1.5,1.9-2.3,2.8c-1.9,2.1-4.1,3.6-7,4.1c-0.9,0-1.8,0-2.7,0
		c-2-0.3-3.6-1.4-5.1-2.8c-3-2.9-5.7-6.2-8-9.8c-6.7-10.5-13.5-20.9-20.2-31.4c-0.7-1.2-1.5-2.3-2.4-3.4c-1.2-1.6-2.8-2.7-4.8-3.2
		c-1.1-0.3-2.1-0.6-3.2-0.9c-1-0.3-1.9-0.8-2.7-1.5c-1.9-1.7-1.9-4.4,0-6.1c0.9-0.8,2-1.3,3.1-1.8c2.1-0.8,4.3-1.2,6.5-1.5
		c3.2-0.5,6.3-0.7,9.5-0.8c7.6-0.3,15.3-0.4,22.9,0.4c2.5,0.3,4.9,0.7,7.3,1.5c1.1,0.4,2.1,0.8,2.9,1.6c1.4,1.2,1.7,3,0.7,4.6
		c-0.5,0.8-1.2,1.4-1.9,2c-0.7,0.6-1.5,1.2-2.2,1.8c-1,0.9-1.3,2-0.8,3.3c0.1,0.4,0.2,0.8,0.4,1.2c1.3,2.7,2.8,5.1,4.8,7.3
		c0.7,0.8,1.5,1.4,2.5,1.8c1.8,0.8,3.6,0.5,5-0.8c0.4-0.4,0.7-0.8,1-1.2c1.4-2,2.8-4.1,4.2-6.2c0.2-0.4,0.4-0.7,0.6-1.1
		c1.4-2.9,1.2-3.9-1.1-6.1c-0.7-0.7-1.5-1.4-2.1-2.2c-1.6-2.1-1.1-4.1,1.1-5.5c1.3-0.8,2.8-1.2,4.3-1.5c2.6-0.6,5.3-0.7,7.9-0.8
		c4.6-0.2,9.3-0.3,13.9,0.3c1.6,0.2,3.2,0.6,4.7,1.1c0.9,0.3,1.7,0.8,2.4,1.5C875.3,260,875.3,261.9,873.9,263.3z"/>
	<path class="st0" d="M244.4,98.1c-1.4,1.7-2.6,3.6-4.2,5.2c-5,4.9-11,7.9-17.9,8.7c-6.7,0.8-12.7-1.2-18.1-5.1
		c-1.8-1.3-3.4-2.9-5-4.5c-0.6-0.6-1.2-1.2-1.8-1.8c-2-3-3.5-6.2-4.4-9.8c-3.6-14.7,5.7-29.9,20.5-33.4c15.3-3.6,30.2,5.8,33.7,20.7
		C248.9,85.2,247.8,91.9,244.4,98.1z"/>
	<path class="st0" d="M925.7,314.4c-1.6,1.1-3.5,1.8-5.4,2.3c-3.8,1-7.6,1.3-11.5,1.5c-6.5,0.3-13.1,0.2-19.6-0.5
		c-2.3-0.2-4.6-0.6-6.9-1c-1.7-0.3-3.3-0.9-4.6-2.1c-0.9-0.8-1.6-1.8-1.7-3.1c-0.2-1.6,0.1-2.9,1.5-3.9c1-0.8,2.1-1.5,3.2-2.1
		c2-1.2,3.1-2.9,3.7-5c0.7-2.2,0.8-4.6,1-6.9c0.1-2.3,0-4.6-0.1-6.9c-0.2-3-0.5-6-0.6-9c-0.1-2-1.2-3.3-2.9-4.2
		c-0.7-0.3-1.4-0.6-2.1-0.9c-1-0.4-1.9-0.9-2.6-1.6c-1.7-1.6-1.9-4-0.5-5.8c1-1.3,2.3-2.1,3.8-2.6c2.4-0.8,4.9-1.6,7.4-2.3
		c6.6-1.8,13.2-3.1,19.9-4.1c2.1-0.3,4.3-0.4,6.4-0.6c0.7-0.1,1.4,0,2.1,0c2,0.3,3,1.3,3.3,3.3c0.1,0.7,0.1,1.4,0.1,2.1v18
		c0,5.2,0,10.5,0,15.7c0,1.4,0.1,2.7,0.2,4.1c0.2,2.6,1.4,4.6,3.5,6c0.9,0.6,1.7,1.1,2.6,1.7C929.2,308.5,928.5,312.5,925.7,314.4z"
		/>
	<path class="st0" d="M916.4,244.6c-1.1,1.1-2.4,1.9-3.8,2.6c-3.3,1.6-6.9,2.7-10.5,3.3c-5.1,0.9-10.2,1.3-15.4,0.8
		c-2.5-0.2-4.9-1-6.9-2.5c-1.3-0.9-2.3-2.1-2.7-3.7c-0.5-2.2-0.1-4.1,1.4-5.7c0.8-0.8,1.6-1.5,2.6-2.1c1.3-0.7,2.6-1.4,4-1.8
		c4.1-1.7,8.5-2.7,12.9-3.2c3.7-0.5,7.5-0.5,11.3,0c2.6,0.3,5.1,1.3,7.3,2.9c0.9,1.1,1.8,2.2,1.9,3.8
		C918.7,241.2,918,243.1,916.4,244.6z"/>
</g>
</svg>
