<?xml version="1.0" encoding="utf-8"?>
<!-- Generator: Adobe Illustrator 26.0.2, SVG Export Plug-In . SVG Version: 6.00 Build 0)  -->
<svg version="1.1" id="Слой_1" xmlns="http://www.w3.org/2000/svg" xmlns:xlink="http://www.w3.org/1999/xlink" x="0px" y="0px"
	 viewBox="0 0 1000 1000" style="enable-background:new 0 0 1000 1000;" xml:space="preserve">
<style type="text/css">
	.st0{fill:#844D15;}
</style>
<g>
	<path class="st0" d="M482.5,200.5c73.8,0,147.5,0.6,221.3-0.2c42.5-0.5,73.6,16.2,96.2,52.6C835.8,310.5,873.5,367,910.3,424
		c2.8,4.3,6,7.8,10.3,10.6c13.8,9.3,27.7,18.6,41.3,28.2c24.9,17.5,38,41.5,38,72.1c0.1,47.7,0.1,95.5,0,143.2
		c0,14.8-5.9,20.7-20.5,20.8c-16.7,0.1-33.4,0.6-50.1-0.2c-8.9-0.5-12.1,1.9-14,10.9c-11.1,52.5-54.9,88.3-109,90.1
		c-51.6,1.7-97.9-32.8-112.3-83.7c-4.8-17.1-4.8-17.1-22.7-17.1c-55.4,0-110.8,0.1-166.2-0.1c-6.1,0-9.2,0.8-10.5,7.9
		c-9.9,54.6-56.9,93.1-112.7,93c-54.1-0.1-101.5-39.2-111.2-92.5c-1.2-6.8-3.3-8.6-9.9-8.5c-25,0.4-50.1,0.2-75.1,0.1
		c-13.2,0-21.4-6.9-21.1-17.4c0.3-10.1,8.2-16.5,20.9-16.6c25.4-0.1,50.7-0.2,76.1,0.1c6.3,0.1,9-1.3,10.7-8
		c13-50.8,58.6-85.9,110.7-85.8c51.1,0,96.2,34.7,109.6,84.7c1.8,6.7,4.2,9.3,11.7,9.2c59.4-0.4,118.8-0.3,178.2,0
		c6.9,0,9.3-1.7,11.2-8.6c13.5-50.8,59.6-85.8,111.3-85.2s96.5,35.6,109.5,86.3c1.7,6.5,4.2,7.7,10,7.5c11.7-0.4,23.4-0.4,35,0
		c5.2,0.2,6.7-1.4,6.7-6.7c-0.2-41.1-0.1-82.1-0.2-123.2c-0.1-19.4-8.3-34.7-24.5-45.5c-15.2-10.2-29.3-24-46-29.5
		c-15.7-5.1-34.3-1.4-51.7-1.4c-70.1,0-140.2,0-210.3,0c-18.3,0-23.2-4.9-23.2-23c0-62.7-0.2-125.5,0.2-188.2
		c0.1-9.6-1.6-12.8-12.2-12.7c-114.8,0.5-229.6,0.3-344.5,0.3c-4.3,0-8.8,0.2-12.9-0.8c-8.6-2-13.1-8-12.8-16.7
		c0.5-8.2,4.9-13.9,13.1-15.6c4.2-0.9,8.6-0.8,13-0.8c76.1,0,152.2,0,228.3,0C482.5,201,482.5,200.8,482.5,200.5z M870,425
		c-36.8-56.6-72.3-112-108.8-166.7c-9.9-14.8-25.5-22.1-43.7-22.3c-22-0.2-44.1,0.1-66.1-0.3c-5.6-0.1-7.2,1.5-7.2,7.2
		c0.2,58.4,0.2,116.8,0,175.2c0,4.9,0.8,7,6.4,7C723.1,424.9,795.5,425,870,425z M462.8,685.7c-1.1-46.3-36.5-81.4-81.4-80.7
		c-44.7,0.7-80.1,38.1-79,83.4c1.1,43.2,38.6,78.8,81.8,77.6C428.6,764.8,463.8,728.9,462.8,685.7z M884.4,685
		c-1-48.9-41.4-82.1-84.5-79.7c-42.5,2.3-78.7,36.8-75.9,86c2.4,43.3,40.9,77.3,83.3,74.7C851.5,763.2,887.2,725.8,884.4,685z"/>
	<path class="st0" d="M122.1,480.9c-33.7,0-67.3,0-101,0c-13.5,0-21.3-6.5-21.1-17.1c0.2-10.2,8-16.6,20.8-16.6
		c67.6-0.1,135.3,0,202.9,0c8.2,0,15.1,2.3,18.6,10.6c3,7,1.2,13-3.7,18.4c-4.2,4.6-9.9,4.9-15.7,4.9
		C189.4,480.9,155.7,480.9,122.1,480.9z"/>
	<path class="st0" d="M217.4,358.5c-28,0-56,0.1-84.1,0c-12.7,0-20.5-6.5-20.5-16.8c-0.1-10.3,7.8-17.1,20.3-17.1
		c56.7-0.1,113.4-0.1,170.1,0c12.5,0,20.2,6.9,19.9,17.4c-0.2,10.1-7.5,16.4-19.7,16.5C274.8,358.5,246.1,358.5,217.4,358.5z"/>
	<path class="st0" d="M144.1,550c20,0,40-0.1,60,0c13.1,0.1,20.3,6.2,20.2,16.8c-0.1,10.6-7.2,16.7-20.4,16.7
		c-39.7,0.1-79.3,0.1-119,0c-12.7,0-20.5-6.7-20.4-16.9c0.1-10.2,7.8-16.6,20.6-16.6C104.7,549.9,124.4,550,144.1,550z"/>
</g>
</svg>
