<?xml version="1.0" encoding="utf-8"?>
<!-- Generator: Adobe Illustrator 26.0.2, SVG Export Plug-In . SVG Version: 6.00 Build 0)  -->
<svg version="1.1" id="Слой_1" xmlns="http://www.w3.org/2000/svg" xmlns:xlink="http://www.w3.org/1999/xlink" x="0px" y="0px"
	 viewBox="0 0 1000 1000" style="enable-background:new 0 0 1000 1000;" xml:space="preserve">
<style type="text/css">
	.st0{fill:#844D15;}
</style>
<g>
	<path class="st0" d="M475.7,646c1.3,3.1,3.8,3.8,5.7,5.1c10.6,7.6,21.5,14.6,31.7,22.7c11.2,8.9,22.7,16.5,36.3,22
		c38.9,15.7,52.3,63.2,28.8,97.9c-2.3,3.5-3.4,5.8-0.8,10c7.1,11,5.4,22.2-1.2,32.9c-27.5,44.6-68.3,65.7-119.9,67.6
		c-29.3,1.1-57.8-3.3-85.7-12c-5-1.6-9.9-2.4-15.1-2.3c-30,0.4-58.8-4.9-85.8-18.3c-11.2-5.6-21.9-12.2-30.6-21.3
		c-5.3-5.5-11.4-8.5-18.5-10.9c-47.6-16-85.5-43.9-108.2-90c-1.5-3.1-4.1-5.7-6.3-8.5c-22.9-29.7-36.5-70.6,3.7-113
		c5.2-5.5,4.4-7-2.2-9.9c-38.9-16.6-72.3-41.3-103-70c-4.8-4.4-5.3-9.6-4.4-15.6c9-58.6,39.3-104.5,85.8-140.5
		c20.5-15.9,42.8-28.6,66.9-38.1c6.3-2.5,7.4-4.4,4.2-10.8c-17.8-36.2-19.2-73.3-5.3-111.2c2.6-7,6.6-11.9,13.3-15.4
		c39.4-20.6,81-30.3,125.5-25.9c3.8,0.4,7,1,9.8-3.2c24.5-37.2,60.5-59,101.5-73.4c37.5-13.2,76.4-18.4,116-18.2
		c86.3,0.4,169.8,15.8,249.5,49.4c37.5,15.8,71.6,37.2,99.2,67.9c18,20.1,31.6,42.7,37,69.5c0.8,3.8,3.1,6.2,5.5,8.8
		c12.9,14.6,26.1,29,38.6,44c10.7,12.8,8.6,20.6-6.5,27.6c-2.9,1.4-5.8,3.1-8.9,4c-28.7,8.2-51.1,26.1-71.6,46.8
		c-1.1,1.1-3.2,1.9-2.6,3.7c0.7,2.2,3.1,1.8,4.9,1.9c13,0.7,26,1.1,39-0.2c18-1.8,34.5,2.7,49.4,12.7c20.4,13.7,34.9,32.5,44.3,54.9
		c8.1,19.3,4.5,38.3-4.9,56.4c-2.3,4.5-3.3,8.7-3.1,13.9c0.8,15-5.2,28.1-13.4,40.1c-4,5.8-7.5,11.7-10.3,18.3
		c-6.1,14.4-17.4,24.7-29.4,34.2c-70.3,56-149.3,92.5-238.6,106c-13.4,2-26.9,3.1-40.5,3.5c-22.3,0.7-38.5-9.4-49.9-27.8
		c-4-6.4-7.5-13.2-11-19.9c-4.4-8.5-9.2-16-18.3-20.8c-10.7-5.7-16-16.6-20.7-27.4c-3.8-8.7-6.5-17.8-8.5-27.1
		c-0.6-2.6-0.8-5.6-5.1-4c-20.6,7.4-42.1,10-63.6,13C477.7,645,476.9,645.5,475.7,646z M167.9,593.4c-1.3-1.1-1.7-1.5-2.1-1.8
		c-9.2-4.6-18.4-9.2-27.6-13.8c-11.9-5.9-13.8-11.6-7.4-23.3c13-23.8,30.5-44.1,49.8-62.8c2.7-2.7,5-5.4,6.4-9.2
		c6.6-18.6,17.1-35,29.9-49.9c32.6-37.8,74.1-63.1,119.3-82.5c64-27.5,131.1-43.3,200.2-50.5c41.8-4.4,83.5-3,124,9.9
		c48.1,15.3,84.6,44.2,104.5,91.8c2.2,5.2,2.6,12.3,6.3,15.5c4.4,3.6,11.4-1.2,17.3-0.2c21.9,3.5,38.6-6.4,53.9-20.3
		c4.2-3.8,9.7-6.6,13-11c15-20.6,37-29.8,59.7-38.1c5.9-2.2,7.2-4.3,2.4-9.3c-10.8-11.4-21.1-23.3-31.7-34.9
		c-2.8-3.1-5.3-6.1-5.9-10.4c-3-22.6-13.8-41.4-28.2-58.5c-27.8-33.1-64-53.9-103.3-69.9c-55.2-22.7-113-34.6-172-40.8
		c-49.7-5.2-99.1-4.6-147.7,8.3c-37.9,10.1-72.1,26.8-98.4,57c-6.5,7.5-6.4,7.6,2.9,10.6c48.4,15.4,89.1,42.7,124,79.3
		c6.9,7.3,7.2,14.8,1.5,20c-6,5.4-12.6,4.4-19.7-3.1c-12-12.6-25-24-39.1-34.3c-27.7-20.2-57.8-35.1-91.4-42.7
		c-6.5-1.5-8.3-0.3-6.3,6.6c3,10.2,4.2,20.7,4.5,31.3c0.3,9.8-3.6,15.2-11.3,15.8c-8,0.6-12.9-4.6-13.5-14.6
		c-0.9-12.5-2.4-24.8-7.3-36.5c-2.1-5-4.9-6.9-10.4-6.7c-22.2,0.8-43.5,5.4-64.1,13.6c-2.7,1.1-6.9,1.3-7.3,4.2
		c-0.5,3.2,3.8,4.1,6.1,5.6c40.4,25.9,80.8,51.7,121.2,77.6c2.3,1.5,4.7,2.9,6.6,4.7c4.7,4.6,5.3,10.2,1.8,15.5
		c-3.5,5.3-8.8,7.2-14.9,4.7c-2.7-1.1-5.2-2.9-7.7-4.5c-42.5-27.2-85-54.3-127.3-81.6c-5.3-3.4-7.3-2.7-8.4,3.4
		c-4.3,22.4-3.1,44.2,5.4,65.5c9.4,23.6,25.4,42,44.5,58.1c6.7,5.7,7.7,12.8,3.2,18.5c-4.7,6-12.2,6.3-19.4,0.4
		c-8.2-6.7-16.3-13.7-22.7-22.1c-4.3-5.6-8.2-5.9-14.4-3.3c-13.3,5.6-26.3,11.6-38.7,18.9c-42.8,25.5-76.3,59-93.9,106.5
		c-1.4,3.7-3.3,7.3-2.7,12.1c2.8-1,5-1.8,7.2-2.7c34.6-13.7,70.1-24.3,105.9-34.2c9.1-2.5,15.5,0.6,17.6,8.1
		c2.1,7.4-1.9,13.3-11,15.9c-9.4,2.7-18.8,5.3-28.1,8c-28.3,8.4-56.5,17.2-83.6,29c-3.6,1.6-7.9,2.7-2.3,7.4
		c29.8,24.8,61.3,46.6,98.8,58.1c2.8,0.9,5.7,2.2,8.7,1C152.3,600,159.7,596.9,167.9,593.4z M294.8,855.3c0.6-1,0.9-1.2,0.9-1.4
		c-0.4-4.6-1-9.1-1.3-13.7c-1.8-26,5.8-49.2,21.1-70.1c4.6-6.3,11.5-7.4,17.1-3.7c6,4,7.3,11,3.2,17.8c-1.8,3-3.9,5.9-5.7,8.9
		c-11.1,19.2-13.9,39.5-8.2,61.1c1.7,6.3,4.5,9.1,11.5,9.9c16,2,32.7-1.9,48.1,5.3c2,1,5.1,2.8,6.8,1.1c2.5-2.3-0.6-4.9-1.4-7.3
		c-8.8-24.4-7-48.5,2-72.3c2.8-7.5,9.5-10.6,16.2-8.1c6.3,2.3,9.2,8.6,7.2,15.9c-0.9,3.1-2,6.2-2.9,9.3
		c-6.3,23.6-3.9,45.7,11.9,65.3c2.3,2.8,4.7,5,8.6,5.3c50.8,4,94.8-7.3,124-53.7c3.7-5.9,2.9-9-2.6-12.4c-6.2-3.8-13.4-4.2-20.2-6
		c-11.4-3-23.1-6-30.1-16.1c-4.6-6.6-10.1-9.4-17.4-10.2c-4-0.5-8.1-0.6-12.1-1.4c-6.4-1.2-10-5.6-10.1-12c-0.1-6,3.1-11.4,9.1-11.8
		c16.9-1.3,34.1,0.3,45.5,14.2c7.2,8.8,15.6,11.8,25.4,14c11.9,2.7,17.3-0.1,20.3-12.1c7.4-29.4-2.8-48-30.5-55.6
		c-7.3-2-13.4-5.1-19-10.1c-13.4-11.9-27.7-22.7-42.8-32.3c-17.9-11.4-36.1-23.2-57.5-25.3c-13.9-1.4-26.7-4.7-39.8-8.9
		c-22.3-7.2-45.5-6.3-68.5-4.1c-6.8,0.6-11.8-1-16.9-5.5c-20.2-17.8-43.9-25.4-70.7-21.6c-16.7,2.4-32.7,7.4-48.6,12.9
		c-1.8,0.6-4.4,0.6-5.1,3.8c2.8,1,5.5,2,8.3,2.9c37.2,11.3,72.1,26.9,99.6,55.7c7.1,7.4,15.8,11,25.9,12c22.7,2.3,45.2,5.6,67.3,11
		c22.2,5.4,44,11.9,62.7,25.8c7.4,5.5,8.8,12.7,4.1,18.9c-4.4,5.8-11.6,6.5-18.7,1.3c-7-5.2-14.7-9.1-22.9-12.2
		c-29.4-11.3-60.1-16.3-91.2-19.4c-18.3-1.8-33.8-8.2-47-21.3c-13.9-13.9-29.4-25.7-47.7-33.3c-21.5-9-43.7-16.3-66.1-22.6
		c-2.4-0.7-5.1-2-6.9,0.1c-6.6,7.7-14,14.9-17.2,24.9c0.8,0.5,1,0.8,1.2,0.8c2.4-0.1,4.8-0.3,7.2-0.4c29.8-2.2,55.3,8.2,77.7,27
		c6.1,5.1,6.7,12.6,2.3,18.1s-11.6,5.9-18.1,1.1c-2.8-2.1-5.5-4.4-8.4-6.4c-17.5-11.5-36.3-18.1-57.7-14c-4.8,0.9-6.5,2.6-4.5,7.6
		c2.4,6.1,5.1,12,8.9,17.3c4.3,6.2,9.9,11.8,13.1,18.5c13.6,28.5,35.2,49,62.2,64.4c4.7,2.7,6.7,3,7.5-3.5
		c2.2-17.3,10.6-31.1,25.4-40.7c7.9-5.2,15.1-4.5,19.5,1.6c4.6,6.4,2.7,13.8-5.5,19.1c-11.2,7.3-14.9,17.9-15.2,30.6
		c-0.1,4.9,1.6,7.8,6.5,8.5c8,1.2,13.5,5.7,18.8,11.6C265,841.9,279.4,849.6,294.8,855.3z M601.5,676.2c2.7,3.5,4.6,6.1,6.5,8.6
		c2.9,3.7,4,8.8,10.4,9c19.6,0.6,39.1,0,57.9-6c9.7-3.1,18.5-7.5,23.4-17.4c2.5-5.1,7.3-6.8,12.9-6.7c8.4,0.1,16.9,0.4,25.2-0.4
		c13.9-1.4,28.4-1.8,38.3-14.4c1.3-1.7,4.2-2.2,6.5-3c5.4-1.8,11-3.1,16.3-5.1c13.8-5.3,28.7-8.7,37.3-22.7c1.4-2.3,4.4-2.9,7.1-3.6
		c3.9-1,7.9-1.9,11.7-3.3c23.6-8.3,45.8-18.5,58.8-41.8c4.3-7.8,10.9-10.2,17.5-6.8c6.8,3.5,8.6,11,4.4,18.9
		c-4.5,8.5-10.3,15.9-17.3,22.5c-16.8,15.7-37.1,25.2-58.8,31.9c-2.6,0.8-5.4,1-7.4,3.1c-14.5,15.5-34.1,21.5-53.4,28
		c-3.6,1.2-7.2,2-10.1,4.8c-7,6.8-15.9,10.2-25.1,12.6c-13,3.4-26.2,4-39.5,4.5c-2.9,0.1-5.9-0.3-8.2,2.5
		c-15.2,17.8-36.2,22.9-58,25.7c-9.5,1.2-19.1,1.6-29,2.4c5,9.4,10.9,13.4,20.6,14c16.9,1.1,33.5-1.3,50.1-4
		C782.4,716,855,680.3,920.3,628.6c8.3-6.6,16.9-13.5,20.5-23.7c2.7-7.9,7.3-14.3,11.9-21c6-8.8,11.8-18.2,9-29.4
		c-1.7-6.8-0.2-11.8,3.4-17.4c8.1-12.7,13.3-26.5,6.9-41.5c-7-16.5-17.6-30.5-32.1-41.2c-9.6-7.1-20.5-11.7-32.6-10.6
		c-28.3,2.6-56.3-0.8-84.4-2.5c-33.8-2.1-66.7,0.9-96.9,18c-13.7,7.7-27.9,14.4-42.2,21c-22.1,10.2-44.4,20.1-64.8,33.8
		c-47.2,31.6-58.7,75.1-44.7,128.4c1.5,5.7,4.7,7.6,10.3,8.1c24.8,2.2,44.3-4.4,56.7-28.4c11.3-22,29.5-36.7,55.2-39.5
		c5.1-0.6,8.3-2.5,11.6-6.1c10-10.9,18.6-24.1,32.4-30c14.2-6,26-15.4,39-23c13.2-7.8,27.1-10.3,42.2-6.9c8.5,1.9,17.1,2.6,25.9,2.3
		c3.8-0.1,7.2-0.7,10.3-3.7c4.9-4.7,10.9-4.9,16.2-0.6c5.8,4.6,6,10.7,2.5,16.8c-4.4,7.8-12,10.5-20.3,11.7
		c-13.1,1.9-26.1,0.7-38.8-2.1c-11-2.5-20.3,0.3-29.2,6.2c-7.7,5.1-14.7,12-23.1,15c-15.4,5.6-26.1,16.3-36,28
		c-8.6,10.1-16.4,17.9-31.8,17.9c-17.9,0-28.4,14.2-36.3,29.1c-11.7,22.1-29.9,34.4-54.4,37.8C605.5,675.4,604.3,675.7,601.5,676.2z
		 M434.4,623.8c34.4-2.9,65.2-5.2,95.1-14c9.4-2.8,17.1-6.4,15-18.5c-0.5-2.8,0.4-5.9,1-8.8c0.9-4.3-0.4-6.2-4.9-7.3
		c-10.5-2.5-21-5.3-31.2-8.9C450.6,546,405.7,510,380.5,451.8c-10.6-24.3-22.1-48.3-32.9-72.5c-2-4.4-3.9-5.4-8.5-3.3
		c-23.1,10.8-45.5,23-65.9,38.4c-24.7,18.7-46.2,40.2-59.5,68.8c-2.4,5.1-3.1,10.1-2.2,15.7c2.3,14.7,8,28,15.6,40.7
		c4.8,8,3.4,15.1-3.3,19c-6.4,3.7-13.1,1.5-17.9-5.9c-5.7-8.9-10.4-18.4-13.7-28.5c-1.4-4.2-2.6-6.4-6.6-1.9
		c-9.1,10.1-17.7,20.5-25.3,31.7c-2.6,3.9-2.2,5.9,2.1,8c13.7,6.5,27.3,13.3,40.8,20.1c2.9,1.5,5.6,1.3,8.6,0.9
		c31.3-4,59.8,3.1,85,22.1c4.8,3.6,9.2,4.5,14.9,4.1c24.8-1.9,49.5-1,73.1,7.4C402.1,622.9,419.9,623.6,434.4,623.8z M578.2,515.6
		c-4.3,0.4-6.2,0.5-8,0.8c-14.2,1.8-22.5-2.4-29.3-15.1c-4.7-8.7-7-18.2-8.1-27.9c-0.9-8,3.6-13.8,10.7-14.7
		c6.6-0.8,12,3.4,13.8,10.9c1.3,5.3,2.5,10.5,3.8,15.8c1.3,5.1,4.3,6.8,9.6,5.8c12.2-2.3,24.5-4.8,36.8-6.2
		c9.9-1.2,18.6-4.6,27.5-8.9c35.3-17.2,70.8-34,106.4-50.6c4.8-2.2,4.1-4.6,2.8-8.2c-8.6-24.8-23.5-45-44.5-60.6
		c-28.4-21-61.1-30.2-95.7-32.7c-79.9-5.7-156,12.9-231,38.2c-5.1,1.7-4.2,4-2.4,7.7c7.8,16.4,15.6,32.8,22.7,49.5
		c2.5,5.9,5.2,6.8,11,4.7c26.7-9.7,53-20.8,80.4-28.5c5.2-1.5,4.8-4,3.1-7.7c-2.9-6.3-7.4-11.2-12.2-16.1
		c-5.4-5.5-5.7-12.5-1.2-17.5c4.7-5.3,12.4-5.8,18.2-0.6c10.4,9.5,19,20.5,21.4,34.7c1.1,6.7,4.3,7.6,9.7,7.5
		c19.3-0.3,38.4-2.8,57.5-4.7c6.6-0.7,7.5-3.8,6.1-9.2c-2.2-8.9-7-16.4-12.7-23.3c-6-7.4-6.1-14.3-0.3-19.3
		c5.6-4.8,13.1-3.9,19.2,3.2c10.9,12.5,18.8,26.6,19.1,43.7c0.1,4.8,1.8,6.7,6.5,7.2c12.4,1.3,24.7,3.4,37.1,4.3
		c13.4,0.9,25.1-3,33.8-14c5.5-6.9,12.5-7.9,18.4-3.2c5.7,4.6,6.2,11.8,1,18.8c-9,12.1-21.3,18.9-35.8,22.1
		c-13.6,3-27.1,1.3-40.4-1.2c-25.8-4.9-51.4-5.4-77.4-1.4c-14.9,2.3-30.4,4.3-45.3,0.8c-9.1-2.2-17.2-1-25.4,1.9
		c-23.2,8.2-46.4,16.7-69.6,25c-9.1,3.3-9.1,3.2-4.3,11.9c12.5,22.7,29.5,41.4,50.6,56.4c11.8,8.3,30.9,1.3,35.2-12.9
		c2.1-6.9,6.8-10.5,14-9.4c6.9,1,10.3,5.7,10.5,12.5c0.3,8.4-3.1,15.3-9.1,21c-3.7,3.5-7.8,6.5-12.3,10.2
		c16.2,7.3,32.4,12.2,49.2,15.4c2.7,0.5,4.7-0.1,5.9-2.8C560.9,537.2,568.1,526.8,578.2,515.6z"/>
	<path class="st0" d="M582.7,154.6c75.4,3.7,145.9,22.8,208.7,66c22,15.1,41.9,32.6,58.8,53.3c1.4,1.7,2.7,3.4,3.9,5.2
		c4.6,6.8,3.9,13.7-1.7,18.1c-5.9,4.6-13.1,3.4-18.4-3.3c-17.5-22.5-38.7-40.8-62.4-56.4c-57.5-37.8-121.4-54.7-189.6-57.4
		c-7.6-0.3-15.2-0.2-22.7-0.5c-7.8-0.4-12.7-5.1-12.9-11.9c-0.2-7.1,4.9-12.3,12.8-13c0.8-0.1,1.6-0.1,2.4-0.1
		C568.6,154.6,575.6,154.6,582.7,154.6z"/>
	<path class="st0" d="M660.4,251.7c28,3.6,56.1,11.3,83.3,22.5c27.7,11.4,53.8,25.6,77.6,43.7c8.8,6.7,8.1,18.3-1.1,22.4
		c-4.7,2.1-9,1.1-13-1.8c-45.1-33.2-95.2-54.3-150.7-62.3c-7.7-1.1-12-6.6-11.4-13.3C645.6,255.7,651.2,251.3,660.4,251.7z"/>
	<path class="st0" d="M876.2,488.8c-30.4,0.3-60.5,2.4-90.6,7c-42.5,6.5-79.1,25.1-112.4,51.5c-24.9,19.7-48,41.4-69,65.2
		c-0.5,0.6-1.1,1.2-1.6,1.8c-6.1,6.2-13.2,7-18.6,2c-5.5-5.1-5.7-11.9,0.2-18.8c13.9-16.3,29.1-31.4,45-45.7
		c20.1-18.1,41.5-34.7,64.5-49.1c36.4-22.7,76.9-31.3,118.7-35.7c32.1-3.4,64.3-4.1,96.6-3.1c3.2,0.1,6.5,0.3,9.7,0.8
		c7.5,1.1,12.1,6.3,11.4,13.2c-0.8,7.3-5.1,11.2-12.4,11.4c-5.7,0.1-11.4-0.4-17.1-0.4C892.4,488.8,884.3,488.8,876.2,488.8z"/>
</g>
</svg>
