<?xml version="1.0" encoding="utf-8"?>
<!-- Generator: Adobe Illustrator 26.0.2, SVG Export Plug-In . SVG Version: 6.00 Build 0)  -->
<svg version="1.1" id="Слой_1" xmlns="http://www.w3.org/2000/svg" xmlns:xlink="http://www.w3.org/1999/xlink" x="0px" y="0px"
	 viewBox="0 0 1000 1000" style="enable-background:new 0 0 1000 1000;" xml:space="preserve">
<style type="text/css">
	.st0{fill:#844D15;}
</style>
<g>
	<path class="st0" d="M357.5,1000.1c-8.1-5.7-11.8-13.6-14.2-23.2c-7.8-30.8-16.6-61.4-24.5-92.2c-1.6-6.2-3-8.3-10.1-6.3
		c-32.8,9.2-65.8,17.5-98.7,26.5c-9.1,2.5-16.9,1.3-22.8-6.1c-6.3-7.8-5.2-16.1-0.3-24.5c29.9-51.7,59.8-103.4,89.6-155.2
		c1.7-3,3.4-6.1,5.5-10c-17.4-1.4-33.5-4.3-48-12.9c-30.8-18.2-47.5-45.5-47.6-80.9c-0.1-27.8-11.2-46.4-35.1-60.1
		c-43.5-24.9-59-81.3-34-124.7c14.4-24.9,14.2-47.3-0.1-72.2c-25-43.4-9.3-99.7,34.3-124.7c23.9-13.7,35-32.5,34.9-60.2
		c-0.3-50.8,41.7-92.9,92.5-92.7c27.7,0.1,47-10.5,60.3-34.7c11.8-21.4,30.6-34.8,53.9-42.2c3.2-1,7.2-0.3,9.4-3.8
		c10.4,0,20.8,0,31.2,0c16.5,4.2,31.3,12.2,46.5,19.4c13.5,6.4,28.2,6.1,41.4-0.6c14.6-7.4,29.1-14.4,44.9-18.9c9.1,0,18.2,0,27.3,0
		c4.8,3.6,10.9,2.7,16.2,4.6c22.3,8,40.3,21.5,51.6,42.2c12.9,23.6,31.8,34.1,58.7,33.9c51.4-0.4,93.7,41.4,93.4,92.7
		c-0.1,27.8,11.1,46.4,34.9,60.2c44.4,25.9,59.3,82,33.5,126.4c-13.6,23.5-13.8,45.1-0.2,68.6c26,44.8,11,101.2-33.9,127.1
		c-23.6,13.6-34.4,32.2-34.3,59.5c0.3,49.5-37.2,88.1-88.3,93.1c-2.2,0.2-4.3,0.4-7.6,0.7c11.9,20.7,23.3,40.6,34.8,60.5
		c19.8,34.3,39.6,68.6,59.5,102.8c5.1,8.8,7.6,17.5,0.7,26.2c-6.5,8.3-15.1,8.4-24.7,5.8c-32.2-8.9-64.6-17-96.8-26.2
		c-7.1-2-8.6-0.1-10.2,6.2c-8.1,31.4-16.9,62.6-24.9,94.1c-2.4,9.6-6.6,17.1-15.7,21.4c-3.9,0-7.8,0-11.7,0
		c-6.5-4.4-10.9-10.4-14.8-17.2c-36-62.7-72.2-125.3-108.4-187.9c-1.7-2.9-2.4-6.7-6.4-8.4c-1.7,2.9-3.4,5.6-5,8.3
		c-36.1,62.6-72.3,125.2-108.3,187.9c-3.9,6.8-8.4,12.8-14.8,17.2C366.6,1000.1,362,1000.1,357.5,1000.1z M144.6,474.8
		c0,20.4,10.1,37.9,29,48.6c34.9,19.8,51.9,49.3,51.6,89.5c-0.3,32.7,24,56.9,56.7,56.6c40.2-0.4,69.6,16.8,89.5,51.7
		c16.1,28.3,48.4,37.3,76.4,20.9c35.3-20.7,69.8-20.5,105.1,0.1c27.6,16.2,60,7.3,75.7-20.5c20-35.3,49.5-52.6,90.1-52.2
		c32.2,0.3,56.6-23.9,56.3-56c-0.4-41.1,17.2-70.7,52.7-90.8c27.3-15.5,36.1-48,20.2-75.1c-20.9-35.6-21-70.3-0.1-106
		c16.1-27.5,7-60-20.8-75.7c-34.9-19.7-52.3-49-52-89.3c0.3-33.4-23.8-57.3-57.2-57c-39.8,0.3-69.1-16.9-88.7-51.3
		c-16.7-29.1-48.9-37.7-78-20.7c-33.9,19.9-67.6,20-101.6,0.3c-29.9-17.3-61.5-9-78.6,20.7c-19.6,34-48.6,51.1-88,50.9
		c-34.1-0.2-58.1,23.5-57.8,57.4c0.3,39.8-17,69-51.4,88.6c-28.7,16.4-37.5,48.7-20.8,77.2c20.3,34.6,20.6,68.8,0,103.3
		C147.6,455,144.5,464.5,144.6,474.8z M320.8,720.5c-25.8,44.7-51.5,89.2-78.1,135.4c27.6-7.5,53.2-14.5,78.8-21.3
		c15.5-4.1,24.2,1,28.5,16.4c5.3,19.1,10.1,38.3,15.5,57.3c1.8,6.5,2.3,13.6,6.6,20.2c28.1-48.7,55.6-96.5,83.7-145.1
		c-2.7,0-3.7-0.3-4.6,0c-47.1,17.1-95.9-6.5-116-46.4C332,730.7,327.4,725.3,320.8,720.5z M679.3,720.5c-8.6,6.2-13,14.2-17.6,22
		c-20.2,34.2-58.1,51.5-97.2,45.1c-6.4-1-12.3-4.7-19.9-3.8c28,48.5,55.6,96.3,84,145.4c1.2-3.4,1.8-4.8,2.2-6.4
		c6.6-24.4,13-48.9,19.7-73.3c3.7-13.4,12.3-18.5,25.7-15.5c8.5,1.9,17,4.4,25.4,6.6c17.9,4.8,35.8,9.7,55.8,15.1
		C730.7,809.7,705.1,765.4,679.3,720.5z"/>
	<path class="st0" d="M499.8,105.6c148.8-0.2,273.6,113.2,287.8,261.7C802.8,526.1,686.3,667,527.1,682.2
		c-154.4,14.7-293.5-96-313.7-250c-7.4-56.2,1.3-110.1,25.4-161.4c6.1-13,16.4-17.9,27.2-13c11.3,5.1,14.5,16,8.1,29.7
		c-58.6,124.5-6.4,269.2,113.6,330.6c148,75.7,332.1-17,358.6-181.3c22.6-139.9-70.1-267.8-210.2-289.4c-47-7.2-92.6-0.8-136.3,18.4
		c-3.6,1.6-7.1,3.3-10.7,4.7c-11.3,4.4-21.5,0.5-26-9.9c-4.3-9.8-0.6-20.2,9.8-25.4c21.3-10.6,43.6-18.4,66.9-23.2
		C459.5,107.7,479.6,105.4,499.8,105.6z"/>
	<path class="st0" d="M583.9,337.9c12,0.6,22.8,0.4,33.4,1.7c31.2,4,54.2,29.9,54.6,61.3c0.3,28.9,0.4,57.9,0,86.9
		c-0.5,33.6-27.1,60.8-60.7,61.4c-36.7,0.7-73.5,0.2-110.3,0c-15.7-0.1-30.9-3.8-45.5-9.7c-4-1.6-6.8-1.7-10.3,1.6
		c-6.7,6.2-15.1,8.5-24.2,8.4c-18.5-0.1-37.1,0.1-55.6-0.1c-22.3-0.3-37.2-15.2-37.2-37.5c-0.1-52.4-0.1-104.8,0-157.1
		c0.1-22.2,15.2-37.5,37.2-37.8c18.5-0.3,37.1-0.2,55.6,0c4.5,0.1,9.8,0.1,13.2,2.4c7.5,5,12.3,1.6,18-2.8
		c19.1-14.7,34.1-32.7,47.1-52.9c12.6-19.5,31.6-27.1,54-23c22.2,4,36.1,18.3,41.6,40.2c2.6,10.3,1.6,20.6-2,30.7
		C589.7,320.1,587,328.7,583.9,337.9z M458.6,427.4c0,21.5,0.2,42.9-0.1,64.4c-0.1,5,1.6,7.6,6.2,9.5c13.6,5.7,27.7,9.1,42.6,9.1
		c32.9,0,65.7,0.1,98.6,0c17.8-0.1,27.1-9.4,27.2-27c0.1-25.4,0.1-50.7,0-76.1c0-20.5-9-29.5-29.8-29.6c-19.2-0.1-38.4,0.1-57.6-0.1
		c-9.6-0.1-15.9-5.1-18.5-14.3c-2.5-9.1,1.1-17.4,9.8-22.2c2.8-1.5,5.5-2.3,6.7-6.1c3.9-12.4,8.5-24.5,12.5-36.8
		c1.8-5.5,1.3-11-3.2-15.4c-4.2-4.1-9.3-4.6-14.5-2.9c-4.3,1.3-6.6,5.1-8.8,8.7c-16.9,27.2-38.6,49.8-65.4,67.3
		c-4.4,2.9-5.7,6.1-5.7,11.2C458.8,387,458.6,407.2,458.6,427.4z M419.5,433.7c0-23.4-0.2-46.8,0.1-70.2c0.1-6-1.5-7.9-7.6-7.7
		c-13,0.5-26,0.3-39,0c-4.8-0.1-6,1.5-6,6.1c0.1,47.5,0.2,94.9,0,142.4c0,5.7,2.4,6.2,6.9,6.1c12.3-0.2,24.7-0.4,37.1,0.1
		c6.7,0.3,8.9-1.5,8.8-8.5C419.2,479.2,419.5,456.5,419.5,433.7z"/>
	<path class="st0" d="M328.7,204.4c-0.2,10.7-8.5,18.9-19.2,19c-11,0-19.8-8.9-19.6-19.7c0.2-10.4,8.9-19.1,19.4-19.1
		C320.2,184.4,328.9,193.4,328.7,204.4z"/>
</g>
</svg>
