<?xml version="1.0" encoding="utf-8"?>
<!-- Generator: Adobe Illustrator 26.0.2, SVG Export Plug-In . SVG Version: 6.00 Build 0)  -->
<svg version="1.1" id="Слой_1" xmlns="http://www.w3.org/2000/svg" xmlns:xlink="http://www.w3.org/1999/xlink" x="0px" y="0px"
	 viewBox="0 0 1000 1000" style="enable-background:new 0 0 1000 1000;" xml:space="preserve">
<style type="text/css">
	.st0{fill:#FFFFFF;}
</style>
<g>
	<path class="st0" d="M498.9,1000c-155.6,0-311.1,0-466.7,0c-4.8,0-9.7,0.2-14.4-0.8c-16.7-3.5-23.3-22-12.8-35.4
		c2.3-2.9,5-5.4,7.7-8C326.5,642,640.3,328.3,954,14.6c2.9-2.9,5.7-5.9,8.7-8.5c6.7-5.7,14.2-7.8,22.7-4.5
		c8.3,3.3,12.9,9.7,14.1,18.4c0.5,3.6,0.4,7.4,0.4,11.1c0,312.6,0,625.1,0,937.7c0,24.3-6.8,31.2-31,31.2
		C812.3,1000,655.6,1000,498.9,1000z M954.3,79.8c-1,0-1.9-0.3-2.3,0c-41.2,41-82.3,82.1-123.6,123c-3.9,3.8-2.3,6.1,0.8,9
		c9.3,9.1,18.6,18.1,27.5,27.5c10.9,11.5,11.2,25,1.3,34.4c-8.6,8.2-22.5,6.9-32.9-3.2c-9.3-9-18.5-18.1-27.5-27.5
		c-3.7-3.9-6.1-3.8-9.9,0c-35,35.2-70.1,70.3-105.3,105.2c-3.8,3.8-3.8,6.1,0,9.8c9.4,8.9,18.5,18.1,27.5,27.4
		c10.7,11.1,11.7,24.4,2.5,33.4c-9.6,9.5-22.3,9.1-33.5-1.5c-9.4-9-18.5-18.1-27.4-27.6c-4.1-4.4-6.5-3.9-10.6,0.1
		c-34.7,35-69.5,69.8-104.5,104.4c-4.8,4.8-3.8,7.3,0.5,11.4c9.2,8.6,18.1,17.6,26.7,26.7c10.8,11.4,11.3,24,1.8,33.5
		c-9.4,9.4-22.2,8.6-33.4-2.2c-9.3-9-18.5-18.1-27.5-27.5c-3.6-3.8-5.9-4-9.8-0.1c-35,35.2-70,70.3-105.3,105.2
		c-4.3,4.3-3.9,6.7,0.2,10.6c9.7,9.2,19.1,18.6,28.3,28.3c10,10.6,10,23.4,0.6,32.6c-8.6,8.4-21.9,8-31.8-1.4
		c-9.4-8.9-18.6-18-27.5-27.5c-4.3-4.6-6.9-5.9-12.2-0.6c-34.3,34.8-68.9,69.3-103.7,103.7c-4.7,4.6-4.2,7.3,0.3,11.5
		c10.1,9.7,20.3,19.5,29.5,30.1c8.4,9.7,7.1,22.9-1.6,31.1c-8.3,7.8-22,7.2-31.1-1.6c-9-8.8-18.3-17.4-26.6-26.8
		c-5.7-6.5-9-5.5-14.7,0.2c-38,38.5-76.3,76.6-114.5,114.9c-2.1,2.2-5.7,3.7-5.4,7.8c3.5,2.2,7.2,1.1,10.8,1.1
		c284.4,0.1,568.8,0,853.2,0.3c10,0,12.1-2.6,12.1-12.3c-0.3-284.4-0.2-568.8-0.3-853.1C955.3,86.8,956.5,83,954.3,79.8z"/>
	<path class="st0" d="M794.9,638.6c0,42.2,0,84.4,0,126.7c0,21.8-7.7,29.7-29.3,29.7c-85.6,0-171.1,0-256.7,0.1
		c-11.6,0-21.4-2.7-26.2-14.4c-4.4-10.8-0.2-19.1,7.6-26.8c46.5-46.2,92.8-92.6,139.1-139c41.1-41.1,82.3-82.1,123.3-123.4
		c7.9-7.9,16.1-13.3,27.5-8.7c11.8,4.7,14.8,14.3,14.8,26C794.8,552,794.9,595.3,794.9,638.6z M750.4,560.2
		C686.7,624,623.7,686.9,560.5,750.2c0.2,0.5,1.8,0.3,3.2,0.3c59.6,0,119.3-0.1,178.9,0.2c7.9,0,7.9-3.9,7.9-9.6
		c-0.1-53.3-0.1-106.7-0.1-160C750.4,574.1,750.4,567.2,750.4,560.2z"/>
</g>
</svg>
