<?xml version="1.0" encoding="utf-8"?>
<!-- Generator: Adobe Illustrator 25.0.0, SVG Export Plug-In . SVG Version: 6.00 Build 0)  -->
<svg version="1.1" id="Слой_1" xmlns="http://www.w3.org/2000/svg" xmlns:xlink="http://www.w3.org/1999/xlink" x="0px" y="0px"
	 viewBox="0 0 1000 313" style="enable-background:new 0 0 1000 313;" xml:space="preserve">
<style type="text/css">
	.st0{fill:#00A0E3;}
	.st1{fill:#234182;}
	.st2{fill:#01A0E3;}
	.st3{fill:#01A1E3;}
</style>
<g>
	<path class="st0" d="M414.02,305.86c0.01,0.99-0.49,1.59-1.22,2.11c-2.43,1.7-5.14,2.76-7.98,3.57c-1.05,0.3-2.23,0.22-3.14,0.97
		h-5.69c-0.46-0.48-1.11-0.41-1.69-0.54c-2.03-0.44-3.98-1.08-5.79-2.13c-2.13-1.23-3.93-2.84-5.15-4.97
		c-3.57-6.27-3.93-12.77-0.79-19.28c2.2-4.55,6-7.24,10.93-8.26c4.03-0.84,8.07-0.74,11.99,0.6c3.92,1.34,6.55,4.01,7.74,8.03
		c0.2,0.67,0.03,1.02-0.6,1.14c-1.77,0.35-3.55,0.66-5.33,1c-0.59,0.11-0.99-0.12-1.25-0.65c-0.19-0.38-0.39-0.77-0.61-1.13
		c-0.99-1.62-2.45-2.69-4.27-3.13c-2.29-0.56-4.62-0.53-6.88,0.26c-3.3,1.17-5.24,3.6-5.91,6.95c-0.6,3.06-0.58,6.17,0.35,9.2
		c1.25,4.08,4.54,6.57,8.79,6.77c2.85,0.14,5.43-0.68,7.89-2.04c0.92-0.51,1.36-1.18,1.34-2.27c-0.07-3.17,0.3-2.92-2.92-2.93
		c-1.47,0-2.93-0.01-4.4-0.02c-0.63,0-0.94-0.34-0.94-0.95c0-1.29-0.01-2.58,0.01-3.87c0.01-0.65,0.4-0.9,1-0.9
		c4.48,0,8.96-0.01,13.44,0.01c0.82,0,1.05,0.24,1.05,1.11C414.02,298.28,413.99,302.07,414.02,305.86z"/>
	<path class="st1" d="M1000,220.48c-0.24,0.25-0.45,0.53-0.72,0.73c-9.68,7.23-19.68,13.95-30.31,19.73
		c-12.55,6.82-25.87,11.22-40.01,13.27c-11.39,1.64-22.82,2.22-34.3,1.76c-9.32-0.37-18.53-1.54-27.6-3.83
		c-23.48-5.93-41.13-19.53-53.34-40.32c-6.47-11.01-10.83-22.85-13.57-35.31c-1.72-7.84-2.75-15.76-3.25-23.78
		c-0.38-5.94-0.46-11.89-0.24-17.83c0.6-15.59,3.09-30.83,8.66-45.48c4.29-11.29,10.09-21.71,18.11-30.8
		c10.05-11.39,22.05-19.99,36.42-25.11c5.94-2.12,12.07-3.51,18.3-4.45c11.55-1.75,23.16-2.2,34.82-1.73
		c4.56,0.18,9.13,0.31,13.68,0.76c7.38,0.72,14.73,1.71,21.85,3.87c14.55,4.4,26.16,12.9,34.87,25.34
		c5.59,7.98,9.49,16.77,12.38,26.03c0.56,1.81,1.06,3.64,1.55,5.46c0.22,0.83,0.02,1.13-0.77,1.3c-2.44,0.51-4.89,1-7.35,1.49
		c-16.3,3.24-32.61,6.49-48.91,9.73c-0.33,0.07-0.67,0.14-1.01,0.19c-1.04,0.14-1.19,0.06-1.54-0.88c-0.33-0.89-0.62-1.79-0.96-2.68
		c-1.53-3.97-3.56-7.65-6.34-10.89c-4.09-4.78-9.18-8.08-15.25-9.73c-8.25-2.24-16.54-2.22-24.76,0.22
		c-10.48,3.12-17.97,9.92-23.26,19.3c-2.51,4.45-4.16,9.26-5.39,14.21c-1.45,5.87-2.25,11.83-2.72,17.86
		c-0.49,6.37-0.54,12.74-0.3,19.11c0.33,8.71,1.22,17.36,3.49,25.81c0.87,3.25,1.92,6.44,3.33,9.5
		c6.1,13.17,16.27,21.17,30.61,23.52c10.61,1.74,20.97,0.44,30.95-3.58c6.26-2.52,12.08-5.88,17.77-9.47
		c0.78-0.49,1.25-1.03,1.24-2.04c-0.04-6.04-0.02-12.07-0.02-18.1c0-0.17-0.01-0.35-0.02-0.52c-0.03-0.49-0.28-0.79-0.78-0.81
		c-0.78-0.02-1.55-0.03-2.33-0.03c-11.81,0-23.63,0-35.44-0.01c-3.09,0-2.8,0.24-2.8-2.75c-0.01-13.53-0.01-27.06-0.01-40.59
		c0-0.52-0.01-1.04,0.01-1.55c0.04-0.99,0.19-1.14,1.25-1.18c0.69-0.03,1.38-0.01,2.07-0.01c29.66,0,59.33,0,88.99,0.01
		c0.94,0,1.89,0.07,2.84,0.11v0.35c0,30.24,0,60.48,0.01,90.72c0,0.96,0.04,1.92,0.06,2.88C999.99,220.34,1000,220.41,1000,220.48z"
		/>
	<path class="st1" d="M546.67,224.5c-8.44,12.14-19.95,20.32-33.76,25.39c-6.33,2.32-12.87,3.81-19.55,4.77
		c-7.44,1.07-14.92,1.53-22.19,1.46c-8.35,0.01-16.44-0.5-24.48-1.6c-7.7-1.06-15.23-2.79-22.57-5.44
		c-12.07-4.36-21.68-11.79-28.97-22.36c-6.6-9.56-11.09-20-13.65-31.3c-1.12-4.97-1.91-9.98-2.29-15.06
		c-0.08-1.09,0.01-1.21,1.05-1.28c4.82-0.35,9.63-0.68,14.44-1.02c6.54-0.46,13.07-0.93,19.61-1.39c2.76-0.2,5.51-0.39,8.26-0.58
		c4.64-0.32,9.29-0.64,13.93-0.95c1.14-0.08,1.27,0.02,1.45,1.24c0.6,4.09,1.35,8.16,2.59,12.11c1.51,4.81,3.67,9.28,7.01,13.13
		c4.63,5.32,10.37,8.72,17.3,10.1c6.19,1.23,12.34,1.11,18.44-0.53c6.02-1.62,10.74-5.11,13.95-10.41
		c4.28-7.08,4.38-14.35,0.25-21.57c-1.96-3.43-4.69-6.14-8.13-8.13c-3.97-2.3-8.23-3.94-12.56-5.41
		c-6.04-2.06-12.24-3.53-18.41-5.15c-11.11-2.9-21.98-6.45-32.37-11.39c-5.54-2.64-10.86-5.64-15.77-9.33
		c-7.36-5.51-13.36-12.17-17.51-20.42c-3.1-6.15-4.89-12.66-5.67-19.49c-0.33-2.92-0.44-5.84-0.43-8.77
		c0.05-17.45,8.46-39.9,30.56-52.5c7.88-4.49,16.3-7.38,25.18-8.99c12.01-2.18,24.12-2.77,36.31-2.27
		c7.59,0.31,15.12,1.12,22.55,2.76c6.67,1.47,13.11,3.62,19.21,6.73c12.78,6.49,21.64,16.55,27.11,29.7
		c2.8,6.71,4.61,13.7,5.73,20.88c0.25,1.61,0.43,3.24,0.64,4.86c0.08,0.61-0.15,0.97-0.81,1.02c-1.72,0.13-3.44,0.3-5.16,0.41
		c-9.03,0.58-18.07,1.14-27.1,1.72c-7.57,0.49-15.14,1.01-22.71,1.48c-2.16,0.13-2.18,0.09-2.6-2.04c-0.56-2.88-1.26-5.72-2.28-8.47
		c-0.72-1.94-1.58-3.82-2.63-5.6c-2.95-5.03-7.15-8.59-12.67-10.48c-6.95-2.39-14.02-2.64-21.14-0.87
		c-3.42,0.85-6.36,2.58-8.73,5.24c-3.23,3.62-4.53,7.86-4.06,12.65c0.2,2.02,1.05,3.82,2.21,5.45c1.57,2.22,3.59,3.93,6.04,5.15
		c3.1,1.54,6.34,2.71,9.68,3.59c5.41,1.42,10.86,2.74,16.28,4.13c11.85,3.04,23.6,6.43,35.01,10.89c6.11,2.39,12.03,5.16,17.58,8.69
		c5.93,3.76,11.31,8.18,15.82,13.6c6.2,7.44,10.22,15.99,12.14,25.4C563.26,185.97,559.41,206.19,546.67,224.5z"/>
	<path class="st1" d="M789.02,250.62c-0.13-0.41-0.26-0.82-0.4-1.23c-22.19-65.49-44.38-130.99-66.57-196.48
		c-2.27-6.69-4.51-13.39-6.8-20.07c-0.64-1.87-0.4-1.94-2.73-1.93c-0.52,0.01-1.04,0-1.55,0h-55.89c-2.16,0-4.31,0.01-6.47,0
		c-1.5-0.01-1.9,0.01-2.34,1.75c-0.08,0.33-0.23,0.65-0.33,0.98c-17.7,52.01-35.4,104.02-53.1,156.04
		c-6.74,19.81-13.48,39.62-20.22,59.43c-0.19,0.57-0.4,1.14-0.58,1.72c-0.4,1.33-0.26,1.55,1.05,1.59c0.43,0.02,0.86,0.01,1.29,0.01
		h57.7c0.6,0,1.21-0.01,1.81-0.02c0.51,0,0.8-0.31,0.95-0.73c0.23-0.65,0.4-1.32,0.58-1.98c1.45-5.23,2.88-10.46,4.32-15.69
		c1.53-5.56,3.07-11.13,4.62-16.68c0.4-1.43,0.43-1.43,1.96-1.46c0.43-0.01,0.86,0,1.29,0h66.89c0.81,0.97,0.87,2.04,1.15,3.03
		c2.84,10.29,5.63,20.6,8.49,30.89c0.8,2.89,0.19,2.65,3.38,2.65c15.95,0.01,31.91,0,47.87,0c4.14,0,8.28,0.01,12.42-0.01
		C789.52,252.41,789.56,252.33,789.02,250.62z M699.24,167.92c-13.01-0.01-26.03,0-39.05-0.01c-0.59,0-1.2,0.12-2.15-0.36
		c7.19-26.15,14.39-52.27,21.65-78.5c0.71,0.76,0.79,1.54,0.99,2.27c6.79,24.73,13.58,49.47,20.38,74.2
		C701.75,168.01,701.71,167.92,699.24,167.92z"/>
	<path class="st0" d="M353.32,215.98c-0.02,0.08-0.06,0.16-0.12,0.22c-21.71,21.91-43.43,43.83-65.15,65.73
		c-0.24,0.24-0.53,0.43-0.81,0.63c-0.06,0.04-0.16,0.04-0.26,0.06c-0.93-0.48-1.55-1.33-2.27-2.06
		c-20.64-20.93-41.26-41.86-61.88-62.79c-0.42-0.43-0.84-0.87-1.27-1.29c-0.47-0.46-0.42-0.88,0.03-1.32
		c0.43-0.42,0.85-0.86,1.27-1.29c20.62-20.93,41.25-41.86,61.88-62.79c0.72-0.73,1.34-1.58,2.35-2.1c0.26,0.19,0.56,0.36,0.79,0.59
		c21.84,22.02,43.68,44.04,65.41,65.94C353.32,215.8,353.35,215.89,353.32,215.98z"/>
	<path class="st0" d="M279.39,142.58c-0.47,0.5-0.97,0.98-1.45,1.47c-20.75,20.93-41.5,41.85-62.26,62.77
		c-0.65,0.66-1.2,1.47-2.12,1.82c-0.84-0.38-1.35-1.1-1.95-1.71c-20.81-21.1-41.62-42.22-62.42-63.33l-0.18-0.18
		c-1.69-1.72-1.69-1.45,0-3.17c18.39-18.66,36.78-37.31,55.17-55.97c2.48-2.51,4.95-5.04,7.44-7.55c0.6-0.61,1.11-1.33,1.98-1.73
		c0.93,0.44,1.55,1.29,2.27,2.02c18.94,19.08,37.87,38.17,56.8,57.27c2.24,2.27,4.49,4.53,6.73,6.8
		C280.03,141.75,280.02,141.91,279.39,142.58z"/>
	<path class="st1" d="M205.96,67.46c-0.01,0.08,0,0.16-0.02,0.24c-0.03,0.08-0.07,0.16-0.13,0.22
		c-21.78,21.98-43.57,43.96-65.36,65.93c-0.18,0.18-0.41,0.31-0.62,0.44c-0.07,0.05-0.16,0.05-0.34,0.11
		c-21.86-22.19-43.77-44.41-65.72-66.69c0.32-0.97,1.13-1.5,1.76-2.15c18.87-19.16,37.75-38.32,56.63-57.48
		c2.11-2.15,4.23-4.3,6.36-6.43c0.36-0.36,0.64-0.82,1.19-0.93C141.26,1.9,204.28,65.39,205.96,67.46z"/>
	<path class="st1" d="M205.93,215.98c-0.02,0.08-0.08,0.15-0.14,0.22c-21.84,22.03-43.68,44.06-65.52,66.09
		c-0.11,0.11-0.3,0.16-0.76,0.4c-21.93-22.24-43.82-44.45-65.76-66.71c0.32-1,1.15-1.53,1.79-2.18
		c16.56-16.83,33.14-33.64,49.72-50.46c4.17-4.23,8.35-8.47,12.52-12.7c0.49-0.49,0.97-0.98,1.48-1.45
		c0.29-0.26,0.64-0.24,0.92,0.02c0.45,0.41,0.88,0.83,1.3,1.26c21.06,21.23,42.11,42.47,63.16,63.71c0.47,0.48,1.07,0.87,1.3,1.49
		C205.94,215.81,205.96,215.9,205.93,215.98z"/>
	<path class="st1" d="M131.63,142.49c-0.35,0.38-0.72,0.74-1.08,1.11c-20.88,21.06-41.77,42.12-62.65,63.18
		c-0.49,0.49-0.98,0.97-1.46,1.46c-0.48,0.49-0.9,0.36-1.32-0.08c-0.54-0.56-1.1-1.09-1.64-1.65
		c-20.64-20.94-41.27-41.87-61.91-62.82c-0.43-0.43-0.85-0.86-1.27-1.29c-0.46-0.47-0.36-0.9,0.08-1.33
		c1.04-1.04,2.05-2.09,3.09-3.14c20.03-20.32,40.06-40.64,60.1-60.97c0.54-0.56,1.09-1.11,1.65-1.64c0.18-0.17,0.37-0.38,0.98-0.16
		c-0.15-0.06,0.04-0.03,0.16,0.08c0.5,0.47,0.99,0.96,1.47,1.45c20.88,21.06,41.77,42.12,62.64,63.18c0.37,0.37,0.74,0.73,1.09,1.11
		C132.2,141.69,132.21,141.86,131.63,142.49z"/>
	<path class="st0" d="M353.35,67.3c-0.04,0.29-0.03,0.37-0.06,0.44c-0.03,0.08-0.07,0.16-0.13,0.22
		c-21.72,21.92-43.44,43.84-65.16,65.75c-0.24,0.24-0.51,0.45-0.87,0.77c-0.92-0.49-1.54-1.31-2.24-2.02
		c-15.99-16.2-31.96-32.4-47.93-48.61c-4.78-4.85-9.55-9.71-14.33-14.56c-0.48-0.49-0.95-0.99-1.45-1.5
		c0.13-0.88,0.84-1.29,1.36-1.82c11.36-11.55,22.74-23.09,34.11-34.63c9.44-9.57,18.88-19.15,28.32-28.73
		c0.66-0.67,1.33-1.32,2.11-2.1C309.28,22.86,331.36,45.12,353.35,67.3z"/>
	<path class="st0" d="M360.91,207.27c-0.01,0.32,0.08,0.68-0.44,1.02c-0.65-0.39-1.18-1.05-1.76-1.64
		c-5.2-5.27-10.4-10.56-15.6-15.84c-15.43-15.65-30.86-31.3-46.28-46.96c-2.31-2.35-2.28-1.72,0.05-4.08
		c20.44-20.76,40.88-41.51,61.33-62.26c0.72-0.73,1.45-1.45,2.44-2.45C361.03,77.95,361.21,196.89,360.91,207.27z"/>
	<path class="st0" d="M708.5,279.91v29.22c0,0.26,0,0.52-0.01,0.77c-0.04,1.63-0.11,1.72-1.77,1.75c-1.21,0.02-2.42,0.02-3.62-0.01
		c-1.13-0.03-1.26-0.18-1.29-1.4c-0.02-0.69-0.01-1.38-0.01-2.07v-21.73c-0.71,0.62-0.82,1.26-0.98,1.89
		c-1.86,7.08-3.76,14.15-5.55,21.24c-0.59,2.34-0.93,2.07-2.82,2.08c-1.12,0.01-2.24,0.02-3.37-0.01c-1.27-0.03-1.39-0.12-1.73-1.42
		c-1.55-5.92-3.09-11.83-4.63-17.75c-0.44-1.66-0.87-3.33-1.34-4.98c-0.08-0.28-0.08-0.71-0.7-0.82c0,0.85,0.01,1.66,0,2.48
		c0,6.47-0.01,12.93-0.01,19.39c0,0.68-0.01,1.38-0.02,2.07c-0.01,0.6-0.24,1.01-0.9,1.01c-1.63,0.01-3.27,0.02-4.91-0.01
		c-0.46-0.01-0.81-0.28-0.84-0.79c-0.03-0.52-0.04-1.04-0.04-1.55c-0.01-9.83,0-19.65-0.01-29.48c0-2.44-0.04-2.37,2.44-2.36
		c2.33,0.01,4.65-0.01,6.98,0.01c1.33,0.01,1.47,0.1,1.82,1.34c1.07,3.82,2.11,7.64,3.15,11.46c0.73,2.66,1.44,5.32,2.18,7.98
		c0.16,0.57,0.38,1.12,0.6,1.76c0.65-0.66,0.73-1.42,0.92-2.14c1.63-5.98,3.26-11.97,4.89-17.95c0.16-0.58,0.3-1.16,0.5-1.73
		c0.15-0.44,0.48-0.7,0.97-0.7c3.01-0.01,6.04-0.01,9.06-0.01c0.59,0,0.98,0.28,1.01,0.92C708.5,278.88,708.5,279.4,708.5,279.91z"
		/>
	<path class="st0" d="M939.64,304.69c-1.94-2.96-3.88-5.91-7.43-7.93c1.47-0.5,2.55-0.81,3.59-1.22c2-0.79,3.54-2.1,4.52-4.03
		c2.63-5.22,0.19-12.84-7.05-13.66c-1.88-0.21-3.76-0.43-5.67-0.42c-4.4,0.03-8.79,0.01-13.18,0.01c-0.52,0-1.04,0.01-1.55,0.04
		c-0.49,0.03-0.8,0.31-0.83,0.8c-0.04,0.69-0.04,1.38-0.04,2.07c0,8.53-0.02,17.05,0.01,25.58c0.01,1.79-0.24,3.6,0.21,5.38
		c1.9,0.79,3.89,0.23,5.83,0.33c1.02,0.05,1.17-0.15,1.18-1.23c0.02-3.27,0.01-6.55,0.02-9.82c0-0.77,0.01-1.55,0.04-2.32
		c0.01-0.37,0.18-0.68,0.58-0.72c2.85-0.28,5.54-0.06,7.43,2.51c1.02,1.39,2.07,2.76,3.06,4.16c1.45,2.04,2.9,4.07,4.26,6.16
		c0.64,0.99,1.42,1.36,2.56,1.32c1.81-0.06,3.62-0.01,5.43-0.03c0.38-0.01,0.88,0.15,1.16-0.59
		C942.44,308.99,941.05,306.84,939.64,304.69z M929.19,291.82c-1.46,0.02-2.92,0.01-4.38,0.01v0.08c-1.46,0-2.92,0.02-4.38-0.01
		c-0.97-0.02-1.15-0.22-1.16-1.26c-0.02-2.06-0.03-4.12,0-6.18c0.02-0.97,0.25-1.21,1.25-1.22c3.09-0.03,6.18-0.11,9.27,0.15
		c0.34,0.03,0.68,0.08,1.01,0.16c1.75,0.42,2.84,1.68,2.99,3.42c0.19,2.17-0.61,3.66-2.35,4.42
		C930.72,291.7,929.97,291.81,929.19,291.82z"/>
	<path class="st0" d="M863.88,309.14c-3.09-7.39-6.18-14.78-9.28-22.17c-1.16-2.78-2.35-5.55-3.49-8.34
		c-0.33-0.81-0.8-1.25-1.74-1.21c-1.38,0.05-2.76,0.01-4.14,0.01c-2.43,0.01-2.18-0.17-3.14,2.18c-3.83,9.41-7.64,18.83-11.46,28.25
		c-0.39,0.96-0.78,1.91-1.14,2.89c-0.2,0.53-0.01,0.85,0.54,0.86c1.81,0.03,3.62,0.01,5.43,0.05c0.9,0.02,1.43-0.32,1.74-1.18
		c0.64-1.79,1.38-3.53,2.01-5.32c0.33-0.95,0.91-1.34,1.91-1.33c3.8,0.04,7.59,0.05,11.39-0.01c1.12-0.02,1.73,0.35,2.1,1.42
		c0.61,1.79,1.38,3.53,2.08,5.29c0.28,0.71,0.71,1.12,1.53,1.11c2.07-0.03,4.13-0.01,6.36-0.01
		C864.59,310.52,864.17,309.84,863.88,309.14z M850.67,298.07c-2.75,0.02-5.5,0.01-8.33,0.01c-0.09-0.37-0.15-0.47-0.12-0.54
		c1.35-3.62,2.71-7.24,4.08-10.86c0.05-0.14,0.19-0.3,0.32-0.35c0.3-0.1,0.48,0.12,0.57,0.36c1.36,3.44,2.73,6.88,4.07,10.33
		C851.52,297.68,851.31,298.06,850.67,298.07z"/>
	<path class="st0" d="M626.58,310.76c-0.11-0.33-0.23-0.65-0.37-0.97c-4.03-9.61-8.03-19.24-12.11-28.83
		c-1.83-4.31-0.57-3.42-4.81-3.52c-1.46,0-2.41,0.02-3.35-0.01c-0.59-0.01-0.99,0.26-1.23,0.77c-0.25,0.54-0.45,1.12-0.68,1.68
		c-3.57,8.78-7.16,17.54-10.7,26.33c-0.66,1.66-1.56,3.26-1.83,5.06c1.8,0.81,3.69,0.18,5.53,0.37c0.34,0.04,0.68-0.02,1.03-0.02
		c0.49-0.01,0.8-0.28,0.98-0.7c0.24-0.56,0.46-1.12,0.67-1.68c0.56-1.45,1.13-2.89,1.66-4.35c0.28-0.77,0.79-1.06,1.57-1.05
		c1.04,0.03,2.07,0.01,3.1,0.01c2.85,0,5.7,0.04,8.54-0.02c1.14-0.03,1.74,0.42,2.09,1.47c0.35,1.06,0.81,2.09,1.24,3.12
		c1.57,3.8,0.61,3.16,4.73,3.23c1.12,0.02,2.24-0.01,3.36-0.04C626.55,311.6,626.75,311.27,626.58,310.76z M604.15,297.85
		c1.19-3.7,2.71-7.24,4.05-10.86c0.12-0.32,0.24-0.65,0.64-0.73c1.38,2.36,4.27,9.93,4.43,11.62
		C611.1,298.19,606.37,298.18,604.15,297.85z"/>
	<path class="st0" d="M546.38,310.93c-0.01,0.37-0.32,0.61-0.68,0.66c-0.42,0.06-0.86,0.06-1.28,0.06c-7.07,0.01-14.14,0.01-21.2,0
		c-0.43,0-0.86-0.03-1.28-0.07c-0.39-0.03-0.63-0.29-0.66-0.65c-0.05-0.69-0.06-1.38-0.06-2.07c-0.01-4.74-0.01-9.48-0.01-14.21
		c0-4.65,0-9.3,0.01-13.95c0-0.68,0.01-1.38,0.03-2.07c0.02-0.5,0.29-0.8,0.79-0.81c1.89-0.01,3.79-0.01,5.68,0.02
		c0.38,0.01,0.65,0.25,0.67,0.64c0.05,0.77,0.06,1.55,0.06,2.32v22.74c0,2.48-0.1,2.34,2.44,2.34c4.22,0.01,8.45,0,12.67,0
		c0.6,0,1.2,0.01,1.81,0.02c0.59,0.01,1.02,0.29,1.04,0.9C546.44,308.17,546.41,309.55,546.38,310.93z"/>
	<path class="st2" d="M780.1,311.65c-6.03,0.05-12.07,0.01-18.1,0.01c-0.68-0.01-1.38-0.03-2.06-0.06
		c-0.39-0.02-0.65-0.26-0.68-0.63c-0.05-0.69-0.07-1.38-0.07-2.07c-0.01-4.74,0-9.48,0-14.21c0-4.65-0.01-9.3,0-13.95
		c0-0.69,0.01-1.38,0.03-2.07c0.02-0.48,0.25-0.83,0.77-0.83c1.81-0.02,3.62-0.03,5.43-0.03c0.59,0.01,0.98,0.28,0.99,0.92
		c0.02,0.69,0.03,1.38,0.03,2.07v22.23c0,0.68,0.02,1.38,0.05,2.07c0.02,0.51,0.35,0.75,0.83,0.77c0.69,0.02,1.38,0.03,2.07,0.03
		c4.06,0.01,8.11,0,12.16,0c0.6,0.01,1.2,0.01,1.81,0.03c0.63,0.02,0.9,0.41,0.93,1c0.01,0.09,0.02,0.17,0.02,0.25
		C784.19,312.44,785.14,311.61,780.1,311.65z"/>
	<path class="st3" d="M470.93,280.36c0.01,4.73,0,9.46,0,14.19s0.01,9.46,0,14.2c0,0.68-0.02,1.38-0.04,2.06
		c-0.02,0.51-0.37,0.8-0.83,0.81c-1.89,0.02-3.79,0-5.67-0.03c-0.39-0.01-0.61-0.29-0.64-0.67c-0.04-0.51-0.06-1.02-0.06-1.54
		c-0.01-9.89-0.01-19.78,0-29.67c0-2.24,0.02-2.25,2.27-2.27c1.38-0.01,2.75,0.01,4.13,0.04c0.49,0.02,0.79,0.33,0.81,0.82
		C470.93,278.98,470.93,279.67,470.93,280.36z"/>
	<path class="st2" d="M998.36,279.99v29.17c0,0.35,0.01,0.69-0.01,1.04c-0.05,1.29-0.17,1.43-1.53,1.46
		c-1.55,0.02-3.1,0.02-4.65-0.02c-0.82-0.02-1.01-0.24-1.05-1.12c-0.03-0.6-0.02-1.2-0.02-1.81v-28.39
		c0.01-0.68,0.01-1.38,0.04-2.06c0.03-0.5,0.34-0.78,0.84-0.78c1.81-0.02,3.61-0.03,5.42-0.02c0.63,0.01,0.91,0.39,0.93,0.99
		C998.35,278.96,998.36,279.48,998.36,279.99z"/>
</g>
</svg>
