<?xml version="1.0" encoding="utf-8"?>
<!-- Generator: Adobe Illustrator 26.0.2, SVG Export Plug-In . SVG Version: 6.00 Build 0)  -->
<svg version="1.1" id="Слой_1" xmlns="http://www.w3.org/2000/svg" xmlns:xlink="http://www.w3.org/1999/xlink" x="0px" y="0px"
	 viewBox="0 0 1000 608.8" style="enable-background:new 0 0 1000 608.8;" xml:space="preserve">
<style type="text/css">
	.st0{fill:#FFFFFF;}
</style>
<g>
	<path class="st0" d="M924.7,574.7c12.4,7.7,24.2,14,38.1,13.4c6.3-0.3,13.9-0.2,15.2-8c1.2-7.3-5.8-9.4-11.3-11.4
		c-8.9-3.1-18.1-5.3-26.8-8.9c-10.3-4.2-18.1-11-18.2-23.6c-0.1-12.1,6.2-20.1,16.4-25.2c18.7-9.3,37.1-5.6,54.1,4.1
		c7.6,4.3,1.9,13.6,4,21.9c-9.1-3.3-17-6.2-24.9-8.8c-6.9-2.2-14-2.7-20.9-0.2c-3.8,1.4-7.2,3.5-7.1,8.4c0.1,4.3,3.3,6.2,6.7,7.3
		c7.1,2.3,14.3,4.4,21.5,6.3c7.4,1.9,14.1,5.1,19.8,10c13.2,11.4,11.5,32-3.1,41.6c-15.5,10.2-44.3,8.9-59.3-2.7
		C923.2,594.7,923.2,594.7,924.7,574.7z"/>
	<path class="st0" d="M888.2,579.9c0-21.3,0.5-42.5-0.2-63.8c-0.3-9.1,4-9.1,10.5-9c6.3,0.1,11-0.5,10.8,8.9
		c-0.7,27.5-0.4,55.1-0.1,82.7c0.1,6.2-1.8,7.9-8,8.1c-24.8,0.8-24.7,1-34.4-22.1c-7.6-18-15.4-35.8-25.3-53.4
		c0,21.8-0.4,43.5,0.2,65.3c0.3,8.7-2.9,10.3-10.7,10.3s-10.9-1.4-10.7-10.2c0.6-26.8,0.5-53.6,0-80.3c-0.1-7.1,1.6-9.3,9-9.3
		c24.9,0,24.8-0.3,34.4,22.1c7.3,17.2,14.8,34.4,22.3,51.5C886.7,580.5,887.5,580.2,888.2,579.9z"/>
	<path class="st0" d="M732,556c0-13.4,0.4-26.8-0.1-40.2c-0.3-6.8,2.1-8.6,8.6-8.4c18.1,0.4,36.3,0.7,54.4-0.1
		c9.1-0.4,8.9,4.1,9,10.6c0.2,7.1-1,11-9.5,10.5c-11.4-0.7-22.9,0.3-34.3-0.3c-8.9-0.4-6.8,5.5-6.8,10.2c0,4.8-1.9,10.7,6.9,10.2
		c9.8-0.5,19.7,0.3,29.6-0.3c8.2-0.5,8.6,3.9,8.7,10.2c0.1,6.3-1.2,9.5-8.4,9.1c-9.4-0.5-18.9,0.3-28.4-0.3c-8.3-0.5-8.4,4-8.5,10.2
		s0.9,9.4,8.2,9c11.4-0.6,22.9,0.3,34.3-0.3c10-0.5,7.7,6.1,8.2,11.7c0.5,5.9-0.2,9.5-7.9,9.3c-18.9-0.5-37.8-0.3-56.8,0
		c-5.6,0.1-7.5-1.4-7.3-7.2C732.3,585.1,732,570.5,732,556z"/>
	<path class="st0" d="M673.3,507.6c-11.4-0.6-22.9,0.2-34.3-0.3c-6.5-0.3-7.9,2.3-7.7,8.2c0.4,13.8,0.1,27.5,0.1,41.3
		s0.3,27.5-0.1,41.3c-0.2,6.5,1.6,9.1,8.5,8.7c10.6-0.5,21.3,0.1,31.9-0.2c26.7-0.8,48.1-22.2,48.5-48.1
		C720.7,531.7,700.1,509,673.3,507.6z M692.4,576.3c-9.3,11.2-22.3,10-34.9,9.7c-4.6-0.2-4.4-3.6-4.4-6.8c0-14.5,0.1-29.1-0.1-43.7
		c-0.2-11.4,8.3-6.1,12.7-7.4c14.1-0.8,25.1,3.5,30.9,16.1C701.6,555.4,700.4,566.6,692.4,576.3z"/>
	<path class="st0" d="M601.7,578.3c-2-3.2-5.6-6,0.7-9.9c14.1-8.8,18.4-21.1,14.4-36.2c-3.7-13.8-17.2-24.4-32.3-24.9
		c-12.6-0.4-25.2,0.4-37.8-0.3c-7.5-0.4-9.1,2.2-9,9.3c0.4,27.1,0.5,54.3,0,81.4c-0.1,7.5,2.3,8.9,9.3,9.2c9.4,0.4,14-1.6,12.4-12
		c-0.8-5,0-10.2-0.2-15.3c-0.2-4.4,1.5-5.6,6-6.3c10.8-1.8,14.4,5.5,18,12.9c7,14,14.5,26.8,35.7,18.5
		C613.1,595.8,607.2,587.1,601.7,578.3z M585.6,554.2c-3.8,0.6-7.8,0.1-13.2,0.1c-3.3-0.9-11,2.9-12.4-2c-2.1-7.6-0.6-16.2-0.6-24.4
		c0-0.3,0.4-0.6,0.7-0.8c6.1-6,33.8,0.5,36.7,8.6C599.7,543.5,594.4,552.7,585.6,554.2z"/>
	<path class="st0" d="M523.9,598.5c-7.9-22.6-15.2-45.4-22.9-68.1c-8.3-24.3-8.4-24.2-33.6-23.1c-4.5,0.2-6.7,1.2-8.3,5.8
		c-10.3,30.9-21,61.6-32,93.6c6.5,0,11.9-0.1,17.3,0c3.6,0.1,6.3-1,6.6-4.9c1.1-15.7,11.2-17.3,23.8-15.8c4.3,0.5,8.7,0.5,13,0
		c7.4-0.8,12.4,1.2,13,9.3c0.9,10.9,7.6,12.2,16.9,11.7C524.9,606.8,526.4,605.4,523.9,598.5z M484.3,567.4
		c-27.6-0.7-22.5,3.1-15.7-19.7c2.2-7.3,4.9-14.6,7.3-21.9c0.8,0,1.7,0,2.5,0.1c3.6,11.2,7.1,22.4,10.8,33.5
		C491,564.5,491.2,567.6,484.3,567.4z"/>
	<path class="st0" d="M405.2,569c-5.9,0-10.6-0.2-15.3,0.1c-6.6,0.4-10.6,0-10.7-9c-0.2-10,5.5-8.4,11.3-8.3c8.7,0,17.4,0.7,26-0.1
		c8.8-0.8,11.6,1.9,11,10.9c-1.3,20.1-14.1,37.9-32.6,43.6c-22,6.8-44.9-1.2-58.2-20.4c-11.9-17.1-11.4-41.8,1.2-58.7
		c19.8-26.7,57.7-28.6,78.7-3.6c2.8,3.3,10.1,8.4,4.7,12c-5.1,3.4-12.8,9.5-20.8,0.9c-12.7-13.6-30.8-13.3-42.6-0.5
		c-12,13-10.9,33.8,2.5,45.4C375,593.9,396.9,588.6,405.2,569z"/>
	<path class="st0" d="M260.2,568.9c-5.9,0-10.7-0.2-15.4,0c-6.5,0.4-10.8,0-11-8.9c-0.2-10,5.6-8.3,11.4-8.3c8.7,0,17.4,0.8,26-0.2
		c10.5-1.2,11.7,3.8,10.7,12.3c-2.8,25.2-19.1,41.9-44.1,44.6c-22,2.3-45.3-13.1-52.2-34.5c-7.8-24.3,1.9-49.7,23.8-61.9
		c20.8-11.6,46.7-7,62,11.6c2.7,3.3,9.9,8.4,4.6,11.8c-5.1,3.2-12.6,9.5-20.6,0.8c-15.3-16.6-39.4-12.1-48.6,8.2
		c-6.9,15.1,0.3,34.5,15.1,41.1C237.1,592.1,252.6,585.9,260.2,568.9z"/>
	<path class="st0" d="M181.7,599.8c-9.9-28.6-19.2-57.3-28.6-86c-1.2-3.6-2.1-5.8-6.8-6.3c-25.1-2.7-27.1-1.7-35,21.4
		c-8.7,25.6-17.3,51.2-26.6,78.6c9.2-3.1,21,5.8,23.7-6.3c3.3-14.9,11.8-16,23.6-15c5.1,0.4,10.2,0.4,15.3,0
		c6-0.4,10.1,1.2,10.7,7.8c1.1,11.6,7.9,14.4,18.5,13.2C182,606.6,183.9,606.2,181.7,599.8z M142.9,567.4c-0.8-0.1-1.6,0-2.3,0
		c-21.3,0.8-21.3,0.8-14.3-19.6c2.5-7.4,5-14.8,8.5-25.3c4.9,14.7,8.8,26.6,12.7,38.4C148.9,565.2,148.1,567.9,142.9,567.4z"/>
	<path class="st0" d="M1.8,574.1C12.3,580,21,585.7,31,587c9,1.2,21.7,4.5,24.5-6.8s-10.6-11.1-18-14.2c-6.9-2.8-14.4-4.2-21.1-7.2
		C6.9,554.5,0.2,547.6,0,536.3c-0.2-11.4,5.2-19.6,15-24.8c18.9-10,37.3-6,55.2,3c3.4,1.7,5.8,18.6,3.1,20.6c-2.7,2.1-5-0.3-7.5-1.4
		c-9-3.9-18.2-7.7-28.3-7.4c-6.9,0.2-14.8,0.7-15.7,8.9c-0.9,7.4,6.9,8.3,12.3,10.2c9.3,3.2,19.1,4.4,28,9.1
		c10.3,5.5,16.1,13.6,15.9,25.4c-0.1,11.5-6.3,19.1-16.5,23.5c-18.8,8.2-36.9,5.7-54.1-4.6C-2.4,593.2,3.4,583.9,1.8,574.1z"/>
</g>
<g>
	<path class="st0" d="M581.2,169.5c-26.7,65.1-37.4,129.4-36.1,195.8c0.7,35.8,3.4,37.9,34.9,19.8c57.9-33.4,85.2-87.2,92.9-150.9
		c9.7-80.2-8.7-151.6-74.9-204.9c-14.6-11.7-32.1-17.5-54.9-27.5c39.4-6.3,68.3,4.7,93.2,25c58.1,47.6,78.4,112.4,78.1,184.8
		c-0.2,77.8-24.3,146.4-84.2,199.2c-27.9,24.6-61,37.2-98.5,37.6c-9.4,0.1-17.7,0-18.4-12.6c-4.8-92,5.6-180.4,58.9-259.2
		C573.4,174.6,575.8,173.6,581.2,169.5z"/>
	<path class="st0" d="M488.5,58c0-6.9-1.6-14.1-3.8-20.5c-6.7-18.6-19-31.1-39.9-33.1c-21.2-2-35.7,6.9-43.3,26.5
		C393.4,51.6,380,63.5,356.4,64c-14,0.3-24.3,9.9-31.4,21.5c-13.1,21.3-11.9,44-2,65.6c8.5,18.5,7.5,30-13.3,39.4
		c-26.8,12-30.6,30.9-13.7,55.1c6,8.5,13.2,16.6,21.3,23c20.4,16.3,24.8,32.2,8.9,55.9c-18.3,27.2-4.1,57.1,28.3,59.9
		c23.5,2,34.8,9.3,37.2,33.2c1.6,14.9,13.1,24.7,29,26.3c15.4,1.6,23.2-8.2,30.5-20.4c4.9-8.1,5.3-19.4,14.8-25.8
		c7.2,15.5,7.1,32.3,22.8,46.2C488.7,312.3,488.8,185.2,488.5,58z M400,107.7c11.6-9.6,24.8-16,40.4-2.9
		c-37.7-2.4-46.6,21.2-46.9,53C383.4,137.2,386,119.3,400,107.7z M421,222.7c-31.8,35.2-31.9,35-29,79.6
		c-11.7-8.3-14.1-19.4-11.7-29.6c4.2-18.1,5.9-33.1-21.1-37.7c55,4,70.1-29.1,75-73.1C442.7,186.3,436.3,205.8,421,222.7z
		 M459.8,325.2c-2.9,17.1-11.5,29.7-31.1,32.8c28.2-23.6,30.6-50.3,6.5-83.7C459,290.5,463.7,301.4,459.8,325.2z"/>
</g>
</svg>
