<?xml version="1.0" encoding="utf-8"?>
<!-- Generator: Adobe Illustrator 26.0.2, SVG Export Plug-In . SVG Version: 6.00 Build 0)  -->
<svg version="1.1" id="Слой_1" xmlns="http://www.w3.org/2000/svg" xmlns:xlink="http://www.w3.org/1999/xlink" x="0px" y="0px"
	 viewBox="0 0 1000 325" style="enable-background:new 0 0 1000 325;" xml:space="preserve">
<style type="text/css">
	.st0{fill:#244183;}
	.st1{fill:#02A0E2;}
</style>
<g>
	<path class="st0" d="M291.3,324.8c0-0.7-0.7-1-1.1-1.4c-10.5-10.5-21.1-21-31.6-31.6c-1.2-1.2-2.3-1.5-3.9-1.5
		c-14.4,0-28.8,0-43.1-0.1c-3.5,0-3.2,0.5-3.2-3.2c0.1-14.7,0.2-29.4,0.2-44.2c0-1.4,0.3-2.4,1.3-3.5c6.9-6.7,13.7-13.4,20.5-20.1
		c0.2-0.2,0.4-0.4,0.6-0.5c0.5-0.5,0.9-0.4,1.3,0.1c2.8,2.8,5.5,5.6,8.3,8.4c0.6,0.6,0.6,1.2,0.7,1.9c0,2.3,0.1,4.5,0.2,6.8
		c0.1,6,0.1,12,0.2,18c0,0.7,0,1.4,0,2.1c0,0.5,0.3,0.8,0.8,0.8c0.7,0,1.4,0,2.1,0c7.8,0,15.7,0.1,23.5,0.1c1.8,0,3.2,0.5,4.4,1.8
		c5.2,5.2,10.4,10.3,15.6,15.5c0.9,0.9,1.7,1.7,2.6,2.6c0.5,0.5,0.9,0.4,1.3,0c0.5-0.5,1-1,1.5-1.5c5.8-5.7,11.6-11.3,17.4-17
		c1.1-1.1,2.2-1.5,3.7-1.5c8,0.1,16,0,24.1,0.1c0.7,0,1.4,0,2.1,0c1,0,1.2-0.2,1.2-1.3c0-0.7,0-1.4,0-2.1c0.1-7.7,0.1-15.3,0.1-23
		c0-1.3,0.4-2.3,1.3-3.2c5.8-6.1,11.6-12.3,17.4-18.5c1.7-1.8,1.7-1.6,0-3.3c-5.8-5.9-11.5-11.9-17.3-17.8c-1.1-1.1-1.5-2.2-1.5-3.7
		c0.1-8,0-16,0-24c0-0.7,0-1.4,0-2.1c0-1-0.2-1.2-1.3-1.2c-1,0-1.9,0-2.9-0.1c-7.7-0.1-15.3-0.2-23-0.2c-1.4,0-2.5-0.4-3.5-1.4
		c-2.2-2.2-4.6-4.3-6.8-6.5c-0.6-0.5-1.2-1-1.6-1.8c0.3-0.4,0.6-0.8,1-1.2c6-6.2,12-12.4,18.2-18.4c3.2-3.1,3.2-3.1,7.5-3.1
		c13.9-0.1,27.7-0.2,41.6-0.3c0.8,0,1.6,0,2.4,0c1,0,1.2,0.2,1.2,1.3c0,0.7,0,1.4,0,2.1c0.1,13.9,0.1,27.7,0.2,41.6
		c0,0.5,0.1,1.1,0,1.6c-0.2,1.5,0.4,2.6,1.5,3.7c10.1,10.2,20.1,20.5,30.2,30.8c0.4,0.4,0.7,0.7,1.1,1.1c1.2,1.2,1.2,1.3,0,2.5
		c-8.7,8.6-17.5,17.3-26.3,25.9c-1.7,1.7-3.4,3.5-5.2,5.1c-1.2,1.1-1.7,2.2-1.7,3.9c0.1,3.7,0,7.5,0,11.2c0,10.8,0,21.6,0,32.4
		c0,0.7,0,1.4,0,2.1c0,1.4-0.1,1.4-1.5,1.5c-0.3,0-0.5,0-0.8,0c-14.5,0.1-28.9,0.3-43.4,0.4c-0.4,0-0.9,0.1-1.3,0
		c-1.3-0.2-2.3,0.4-3.2,1.3c-10.5,10.5-21.1,21-31.7,31.5c-0.3,0.3-0.9,0.6-0.9,1.2C291.7,324.8,291.5,324.8,291.3,324.8z"/>
	<path class="st0" d="M1000,99c-1,0-1.9,0.1-2.9,0.1c-18.4,0-36.8,0-55.2,0c-0.7,0-1.4,0-2.1,0c-1.3,0-1.4,0.2-1.5,1.6
		c0,0.8,0,1.6,0,2.4c-0.1,56.1-0.1,112.2-0.2,168.3c0,0.8,0,1.6,0,2.4c0,0.6-0.4,0.9-1,0.9c-0.4,0-0.9,0-1.3,0
		c-12.6,0-25.3,0-37.9,0c-0.4,0-0.9,0-1.3,0c-0.5,0-0.8-0.3-0.8-0.8c0-0.9,0-1.7,0-2.6c0-56.2,0-112.4,0-168.5
		c0-4.2,0.6-3.6-3.6-3.6c-18.8-0.2-37.6-0.3-56.5-0.4c-0.5,0-1,0-1.6,0c-0.5,0-0.8-0.3-0.8-0.8c0-0.6,0-1.2-0.1-1.8
		c-0.1-10.1-0.2-20.2-0.3-30.3c0-0.4,0-0.9,0-1.3c0-0.7,0.4-0.9,1-0.9c0.7,0,1.4,0,2.1,0c53.8,0,107.5,0,161.3,0
		c0.9,0,1.7,0.1,2.6,0.1C1000,75.3,1000,87.1,1000,99z"/>
	<path class="st0" d="M585.4,124.5c-3.7,0.2-9.6,0.4-15.5,0.6c-0.5,0-1,0-1.6,0c-1.4,0-1.5,0-1.9-1.3c-0.5-1.6-1-3.2-1.5-4.7
		c-0.2-0.7-0.4-1.3-0.6-2c-2.4-8.4-7.7-14.3-15.4-18.2c-4.5-2.3-9.3-3.6-14.2-4.1c-8.9-1-17.6-0.1-26,3c-3.7,1.4-7.2,3.1-10.2,5.7
		c-1.7,1.4-3.2,3-4.3,4.9c-2.2,3.6-2.6,7.3-1.1,11.3c1.5,4,4,7.1,7.4,9.6c2.8,2,5.8,3.5,9,4.8c5.3,2.2,10.9,3.7,16.4,5.1
		c8.5,2.1,17.1,4.1,25.6,6.3c8.4,2.2,16.7,4.8,24.7,8.4c7.8,3.5,15.1,7.9,21.4,13.8c9.8,9.3,15.8,20.7,17.6,34.1
		c1.7,12.6-0.5,24.6-5.5,36.2c-2.6,6-6.1,11.6-10.1,16.7c-1.9,2.4-4.2,4.5-6.5,6.4c-6.2,5.1-13.2,9-20.8,11.9
		c-8.3,3.2-17,5.2-25.8,6.3c-7.5,1-14.9,1.2-22.4,0.9c-11.4-0.5-22.5-2.3-33.4-5.6c-11.3-3.5-20.4-10-27.6-19.3
		c-4.6-6-8.1-12.6-11-19.5c-3.7-9.1-6.1-18.5-7.9-28.1c-0.1-0.3-0.1-0.7-0.1-1c0-0.3,0.2-0.5,0.4-0.6c0.7-0.1,1.4-0.3,2.1-0.3
		c5.2-0.6,10.4-1.2,15.6-1.8c5.5-0.6,10.9-1.3,16.4-1.9c1.8-0.2,3.6-0.4,5.5-0.6c1-0.1,1.2,0,1.6,1c1,2.2,1.7,4.5,2.4,6.9
		c0.7,2.5,1.4,5,2.1,7.5c2.8,9.5,9,16,17.8,20.1c4.7,2.2,9.7,3.4,14.8,4.2c5.1,0.8,10.3,0.8,15.4,0.5c6.5-0.5,12.7-1.8,18.7-4.6
		c3.4-1.6,6.5-3.6,9.2-6.4c4-4.2,6.2-9.2,6.4-15c0.1-2,0-4-0.3-6c-0.8-4.7-3.1-8.5-6.7-11.5c-2.5-2.2-5.4-3.8-8.4-5.2
		c-4.8-2.2-9.9-3.9-15-5.2c-8.3-2.1-16.7-4.2-25.1-6.3c-8.3-2.1-16.5-4.5-24.3-7.8c-7.7-3.2-14.9-7.2-21.3-12.6
		c-9.1-7.8-15.3-17.5-18.4-29.1c-1.6-6.1-1.8-12.2-1.1-18.4c0.5-4.4,1.6-8.7,2.9-13c3.1-10.4,9.1-18.7,17.8-25.2
		c6.6-5,14-8.4,21.9-10.9c8.4-2.7,17.1-4.2,25.9-4.9c5.1-0.4,10.3-0.5,15.4-0.3c8.2,0.3,16.3,1.2,24.2,3.6c11.1,3.3,21.1,8.5,30,16
		c6.6,5.6,12.1,12.1,15.7,20c3.2,7,4.5,14.3,3.8,21.9c-0.3,3.4-0.3,2.8-3,2.9C600,123.9,593.8,124.2,585.4,124.5z"/>
	<path class="st1" d="M86.7,118.3c0.5-1.1,1.3-1.6,1.9-2.3c9.9-9.8,19.8-19.7,29.6-29.5c0.4-0.4,0.7-0.8,1.1-1.1
		c1.2-0.9,1.5-2.2,1.5-3.7c0-13.9,0.1-27.7,0.1-41.6c0-1.4,0-2.8,0-4.2c0-1,0.3-1.2,1.3-1.2c0.7,0,1.4,0,2.1,0
		c14-0.1,28.1-0.1,42.1-0.2c0.5,0,1.1-0.1,1.6,0c1.2,0.1,2.1-0.4,3-1.3c3.6-3.9,7.3-7.7,10.9-11.6c5.6-5.9,11.4-11.8,17.3-17.5
		c1.3-1.3,2.7-2.4,4.1-3.6c0.6-0.5,1.3-0.5,1.9,0c1,0.8,2.1,1.6,3,2.5c4,4,8,8,12,12.1c5.3,5.4,10.5,10.9,15.8,16.4
		c1,1.1,2,2.3,3.3,2.9c1.3,0.7,2.9,0.2,4.4,0.2c13.7,0,27.4,0,41.1,0c3.2,0,2.9-0.3,2.9,3c0,13.9,0,27.7,0,41.6c0,0.6,0,1.2,0,1.8
		c-0.1,0.8,0.2,1.5,0.8,2.1c0.4,0.3,0.7,0.7,1.1,1.1c10.3,10.6,20.7,21.2,31,31.8c0.6,0.6,1.3,1.1,1.6,1.9c-0.4,0.9-1.1,1.4-1.7,2.1
		c-10.3,10.7-20.5,21.3-30.9,32c-1.1,1.2-1.6,2.3-1.6,3.9c0,14,0,28-0.1,42.1c0,3.6,0.3,3.3-3.2,3.3c-8.7,0.1-17.4,0.1-26.1,0.2
		c-5.9,0.1-11.9,0.2-17.8,0.3c-1.4,0-2.4,0.5-3.4,1.5c-10.3,10.2-20.6,20.3-30.9,30.4c-2.4,2.3-1.8,2.3-4.2,0
		c-10.6-10.3-21.2-20.7-31.9-31c-0.2-0.2-0.4-0.4-0.6-0.6c-0.7-0.8-1.6-1.3-2.7-1.2c-0.5,0.1-1,0-1.6,0c-13.7,0-27.4,0-41.1-0.1
		c-0.6,0-1.2,0-1.8,0c-1.4,0-1.4-0.1-1.5-1.5c0-0.9,0-1.7,0-2.6c-0.1-14.1-0.2-28.2-0.3-42.3c0-1.5-0.5-2.6-1.5-3.7
		c-10.3-10.2-20.5-20.4-30.8-30.6C88,119.6,87.3,118.9,86.7,118.3z M274.6,117.9c-0.7-0.7-1.5-1.6-2.2-2.4
		c-5.3-5.4-10.6-10.9-15.8-16.3c-2.1-2.2-1.8-1.4-1.8-4.3c0-8.1,0-16.2,0-24.3c0-2.3-0.1-2.3-2.3-2.3c-7.9,0-15.9,0-23.8,0
		c-3.5,0-2.5,0.3-4.8-1.9c-5.9-5.6-11.7-11.2-17.6-16.8c-0.6-0.6-1.2-1.3-2-1.6c-0.8,0.3-1.4,1.1-2,1.6
		c-6.1,5.8-12.1,11.5-18.2,17.3c-1,1-2,1.4-3.5,1.4c-7.7-0.1-15.3,0-23,0c-0.7,0-1.4,0-2.1,0.1c-0.4,0-0.7,0.3-0.7,0.6
		c-0.1,0.5-0.1,1-0.1,1.6c0,2.7,0,5.4,0,8.1c0,5.7,0,11.3,0,17c0,1.2-0.3,2.2-1.2,3c-0.5,0.4-0.9,0.9-1.3,1.3
		c-5.5,5.5-11,10.9-16.5,16.4c-0.6,0.6-1.3,1.1-1.7,1.9c0.4,0.8,1.1,1.3,1.7,1.9c5.5,5.3,11,10.7,16.6,15.9c1.7,1.6,2.5,3.2,2.5,5.6
		c-0.2,7.7-0.1,15.5-0.1,23.3c0,0.7,0,1.4,0,2.1c0,0.8,0.2,1,1.1,1c0.7,0,1.4,0,2.1,0c7.8,0,15.7,0,23.5,0c1.4,0,2.5,0.4,3.5,1.4
		c4.4,4.3,8.9,8.6,13.3,12.9c1.8,1.7,3.5,3.4,5.3,5.1c0.7,0.6,0.9,0.6,1.5,0c0.4-0.3,0.8-0.7,1.1-1.1c5-4.7,10-9.5,15-14.2
		c1.1-1.1,2.3-2.1,3.4-3.2c0.6-0.6,1.2-0.9,2.1-0.9c0.6,0,1.2,0,1.8,0c8,0,16,0,24.1,0c2,0,2,0,2-2c0-0.5,0-1,0-1.6
		c0-6.9,0.1-13.8,0-20.6c0-1.6,0.4-2.9,1.5-4c0.3-0.2,0.5-0.5,0.7-0.8c5.5-6.4,11-12.8,16.5-19.2
		C273.9,119.2,274.5,118.8,274.6,117.9z"/>
	<path class="st0" d="M652.4,274.1c-0.4-1-0.2-2.1-0.2-3.1c0-26.5,0-53,0-79.4c0-41.5,0-83.1-0.1-124.6c0-4-0.5-3.4,3.5-3.4
		c49.5,0,99,0,148.5,0c0.8,0,1.6,0,2.4,0c0.6,0,0.9,0.4,0.9,1c0,0.5,0,1,0,1.6c0,10-0.1,20-0.1,30.1c0,0.5,0,1,0,1.6
		c-0.1,0.9-0.3,1.1-1.1,1.1c-0.8,0-1.6,0-2.4,0c-32.5,0.1-65,0.2-97.5,0.3c-3.2,0-6.4,0.1-9.7,0.1c-0.5,0-1,0-1.6,0.1
		c-0.4,0-0.6,0.3-0.6,0.7c0,0.5-0.1,1-0.1,1.6c0,13.9,0,27.9,0.1,41.8c0,0.2,0,0.3,0,0.5c0,1.7,0,1.7,1.8,1.7c6,0.1,12,0.1,18,0.2
		c27.3,0.1,54.6,0.2,81.8,0.3c3.8,0,3.4-0.4,3.4,3.3c0,9.9-0.1,19.9-0.2,29.8c0,0.6,0,1.2,0,1.8c0,0.5-0.3,0.8-0.8,0.8
		c-0.8,0-1.6,0-2.4,0c-22.8,0.1-45.7,0.2-68.5,0.3c-10.2,0-20.4,0.1-30.6,0.2c-0.4,0-0.9,0-1.3,0c-1.1,0-1.2,0.2-1.3,1.2
		c0,0.4,0,0.9,0,1.3c0.1,17.2,0.3,34.3,0.4,51.5c0,2.8,0,2.6,2.6,2.6c22.2,0.1,44.4,0.1,66.7,0.2c13.6,0.1,27.2,0.2,40.8,0.2
		c0.6,0,1.2,0,1.8,0c0.5,0,0.8,0.3,0.8,0.8c0,0.3,0,0.5,0,0.8c0,10.6-0.1,21.3-0.2,31.9c0,0.3,0,0.5,0,0.8c0,0.6-0.4,0.9-1,0.9
		c-0.5,0-1,0-1.6,0c-49.6-0.1-99.2-0.2-148.8-0.4C654.8,274.4,653.6,274.5,652.4,274.1z"/>
	<path class="st0" d="M105.7,146.8c-0.2,0.2-0.4,0.5-0.6,0.7c-2.7,2.6-5.5,5.1-8.2,7.7c-0.7,0.7-1.5,1.1-2.6,1
		c-2.4,0-4.7,0.1-7.1,0.1c-5.9,0.1-11.9,0.1-17.8,0.2c-0.6,0-1.2,0-1.8,0c-0.8,0.1-1,0.3-1.1,1.2c0,0.7,0,1.4,0,2.1
		c0,7.8,0,15.5,0,23.3c0,0.4,0,0.9,0,1.3c0.1,1.2-0.4,2.1-1.2,3c-4.7,4.8-9.4,9.6-14,14.4c-1.3,1.4-2.7,2.7-4,4.1
		c-0.3,0.3-0.5,0.6-0.8,0.9c0.4,0.9,1.1,1.5,1.7,2.1c5.6,6,11.2,12,16.8,17.9c1,1.1,1.5,2.2,1.5,3.7c0,7.8,0.2,15.7,0.3,23.5
		c0,0.6,0,1.2,0,1.8c0,0.5,0.3,0.8,0.8,0.8c0.7,0,1.4,0,2.1,0c7.8,0,15.7,0,23.5,0c3.7,0,2.5-0.4,5,2c5.7,5.5,11.3,11.1,17,16.6
		c0.6,0.6,1.1,1.3,2,1.7c0.9-0.4,1.4-1.2,2.1-1.9c5-5,10-10,15-15c0.9-0.9,1.8-1.6,2.7-2.5c0.7-0.6,1.4-0.9,2.4-0.9c0.5,0,1,0,1.6,0
		c7.7,0,15.3-0.1,23-0.1c0.7,0,1.4,0,2.1,0c0.4,0,0.7-0.2,0.7-0.6c0.1-0.5,0.1-1,0.1-1.6c0.1-8.2,0.3-16.4,0.3-24.6
		c0-1.5,0.4-2.6,1.5-3.7c2.3-2.1,4.4-4.4,6.6-6.7c0.5-0.5,1-0.9,1.5-1.4c0.8,0.3,1.2,0.9,1.7,1.4c6.6,6.5,13.2,12.9,19.8,19.4
		c0.3,0.3,0.6,0.6,0.9,0.9c0.6,0.6,0.9,1.3,0.8,2.1c0,0.5,0,1,0,1.6c0.1,14.5,0.1,29.1,0.2,43.6c0,0.7,0,1.4,0,2.1
		c0,0.5-0.3,0.8-0.8,0.8c-0.8,0-1.6,0-2.4,0c-14,0-28.1,0.1-42.1,0.1c-0.4,0-0.9,0.1-1.3,0c-1.5-0.2-2.6,0.4-3.7,1.5
		c-10.3,10.3-20.6,20.6-30.9,30.8c-2.4,2.4-1.8,2.3-4.1,0c-10-9.9-20-19.9-30.1-29.8c-0.4-0.4-0.9-0.8-1.3-1.3
		c-0.5-0.6-1.1-0.8-1.8-0.8c-0.3,0-0.7,0-1,0c-14.6-0.1-29.3-0.3-43.9-0.4c-3.2,0-2.9,0.3-2.9-3c0-14.5,0-28.9,0-43.4
		c0-0.6,0-1.2,0-1.8c0.1-0.8-0.2-1.5-0.8-2.1c-0.5-0.5-1-1-1.5-1.5c-10-9.8-20-19.7-30-29.5c-2.3-2.3-2.2-1.7-0.1-3.9
		c10-10.2,20-20.4,29.9-30.7c0.5-0.5,1-1,1.5-1.5c0.4-0.4,0.6-0.9,0.6-1.4c0-0.5,0-1,0-1.6c0.1-14.5,0.2-28.9,0.3-43.4
		c0-3.2-0.3-2.9,3-2.9c14.6,0.1,29.3,0.2,43.9,0.3c1.7,0,3,0.5,4.2,1.7c1.3,1.4,2.8,2.6,4.1,4c5.1,5.2,10.3,10.4,15.4,15.7
		C105,145.8,105.5,146.1,105.7,146.8z"/>
	<path class="st1" d="M591.3,299.5c-1.9,1.9-3.6,3.7-5.4,5.5c-0.5,0.5-1,1-1.4,1.5c-0.3,0.4-0.4,0.8-0.1,1.2
		c0.5,0.7,0.9,1.5,1.4,2.2c1.9,2.9,3.8,5.8,5.7,8.7c0.4,0.6,0.8,0.5,1.1-0.1c1.4-3.5,2.7-7,4.1-10.4c1-2.5,2-5,2.9-7.5
		c0.4-1,0.9-1.5,2.1-1.5c3.6,0.1,2.8-0.4,4.1,2.8c2,5,4,10,6,15c0.3,0.8,0.6,1.6,0.9,2.5c-1.3,0.7-2.6,0.4-3.8,0.3
		c-0.4,0-0.6-0.3-0.7-0.7c-0.3-0.9-0.7-1.8-1-2.7c-0.3-0.8-0.8-1.3-1.7-1.3c-2,0-4,0-6,0c-0.7,0-1.1,0.4-1.4,1
		c-0.3,0.7-0.6,1.5-0.8,2.2c-0.3,1.1-0.8,1.6-2,1.5c-2.3-0.2-4.7,0-7,0c-1.1,0-1.7-0.5-2.3-1.4c-1.3-2.3-2.6-4.5-4-6.8
		c-0.2-0.3-0.4-0.6-0.6-0.9c-0.3-0.3-0.6-0.4-0.9-0.1c-0.7,0.7-1.4,1.4-2.1,2c-0.6,0.5-0.7,1.1-0.7,1.9c0,1.4,0,2.8,0,4.2
		c0,0.6-0.4,1-1,1c-0.7,0-1.4,0-2.1,0c-1,0-1.2-0.2-1.2-1.3c0-6,0-12,0-18c0-1.2,0.2-1.3,1.4-1.3c0.1,0,0.2,0,0.3,0
		c2.6,0,2.6-0.2,2.6,2.5c0,1.7,0,3.5,0,5.2c0,0.2,0.1,0.4,0.2,0.4c0.2,0.2,0.5,0,0.7-0.1c1.8-1.9,3.5-3.8,5.3-5.7
		c2.6-2.8,1.4-2.2,5.3-2.3C589.9,299.1,590.5,298.9,591.3,299.5z M599.8,311.4c1.8,0.3,3.2,0.2,4.7,0.1c0.4,0,0.6-0.4,0.5-0.7
		c-0.7-2-1.3-4.1-2.4-6c0,0-0.2,0-0.4-0.1C601.4,306.8,600.5,308.9,599.8,311.4z"/>
	<path class="st1" d="M523.5,305.2c-0.6,1.1-0.8,1.8-1,2.4c-0.9,3.5-1.8,7.1-2.6,10.6c-0.4,1.5-0.4,1.5-2,1.5
		c-2.5,0.1-2.5,0.1-3.1-2.4c-0.8-3-1.5-6.1-2.2-9.1c-0.2-0.8-0.4-1.6-1-2.4c0,0.6-0.1,1.3-0.1,1.9c0,3.1,0,6.3,0,9.4
		c0,0.6,0,1.2,0,1.8c0,0.4-0.3,0.6-0.7,0.7c-0.7,0.1-1.4,0.1-2.1,0.1c-0.9,0-1.2-0.3-1.2-1.3c0-6,0-12,0-18c0-1.1,0.2-1.3,1.1-1.3
		c1.6,0,3.3-0.2,4.9,0.1c0.9,1.3,1,2.9,1.4,4.4c0.7,2.2,1.2,4.5,1.8,6.8c0.2,0.6,0.2,1.2,0.9,1.7c0.3-0.9,0.5-1.7,0.7-2.5
		c0.8-3.2,1.7-6.4,2.5-9.6c0.2-0.7,0.6-1,1.3-1c6.4,0.2,5.2-1.3,5.3,5c0.1,4.3,0,8.5,0,12.8c0,0.7,0,1.4,0,2.1
		c0,0.5-0.4,0.8-0.9,0.8c-0.6,0-1.2,0-1.8,0c-1,0-1.2-0.2-1.2-1.3c0-3.6,0-7.1,0-10.7C523.5,307.1,523.5,306.5,523.5,305.2z"/>
	<path class="st1" d="M619.5,306.9c-0.5,1.1-0.3,1.9-0.3,2.7c0,3,0,5.9,0,8.9c0,1-0.2,1.2-1.2,1.3c-0.5,0-1,0-1.6,0
		c-1-0.1-1.2-0.3-1.2-1.3c0-6,0-12,0-18c0-1.1,0.2-1.3,1.4-1.3c0.3,0,0.7,0,1,0c1.2-0.2,1.9,0.3,2.5,1.3c1.7,2.9,3.4,5.7,5.2,8.5
		c0.6,0.9,0.8,2.3,2.2,2.7c0.5-1.1,0.2-2.2,0.2-3.3c0-2.6,0-5.2,0-7.8c0-1,0.2-1.2,1.2-1.3c0.5,0,1,0,1.6,0c1,0,1.2,0.2,1.2,1.3
		c0,6.1,0,12.2,0,18.3c0,0.8-0.2,1-1.1,1.1c-0.3,0-0.5,0-0.8,0c-2.6,0-2.2,0.1-3.5-1.9c-1.8-3-3.7-5.9-5.5-8.9
		C620.5,308.4,620.1,307.8,619.5,306.9z"/>
	<path class="st1" d="M717.6,311c2.7,2.2,4.1,5.5,6.2,8.5c-1.6,0.6-3,0.3-4.5,0.2c-0.5,0-0.7-0.4-1-0.8c-0.9-1.4-1.8-2.8-2.8-4.1
		c-0.5-0.8-1.1-1.6-1.7-2.3c-0.6-0.7-1.3-1.2-2.2-1.2c-2-0.2-2.2-0.1-2.1,1.8c0,1.8,0,3.7,0,5.5c0,1-0.2,1.2-1.3,1.2
		c-3.3,0-3,0.3-3-2.9c0-5,0-9.9,0-14.9c0-0.7,0-1.4,0-2.1c0-0.5,0.3-0.8,0.8-0.8c1.2,0,2.4,0,3.7,0c2.4,0,4.9-0.1,7.3,0.1
		c4,0.4,6.2,4.1,4.8,7.8c-0.5,1.4-1.5,2.3-2.8,3C718.6,310.3,717.9,310.2,717.6,311z M712.9,302.5
		C712.9,302.5,712.9,302.5,712.9,302.5c-0.8,0.1-1.6,0.1-2.3,0.1c-0.6,0-1,0.3-1,0.9c0,1.1,0,2.2,0,3.4c0,0.6,0.3,1,0.9,1
		c1.8,0,3.6,0.1,5.4-0.2c1.3-0.2,2.1-1.2,2.1-2.6c0-1.2-0.7-2.1-2-2.3C714.9,302.5,713.9,302.5,712.9,302.5z"/>
	<path class="st1" d="M564.8,310.9c2.5,2.6,4.9,6.1,5.8,8.7c-1.4,0.3-2.8,0.2-4.1,0.1c-0.5,0-0.7-0.4-1-0.8
		c-0.9-1.4-1.8-2.8-2.8-4.1c-0.5-0.8-1.1-1.6-1.7-2.3c-0.6-0.7-1.3-1.2-2.2-1.2c-2-0.2-2.2,0-2.2,1.9c0,1.8,0,3.7,0,5.5
		c0,1-0.2,1.2-1.3,1.2c-3.3,0-3,0.2-3-2.9c0-5,0-9.9,0-14.9c0-0.6,0-1.2,0-1.8c0-0.6,0.3-1,0.9-1c3.7,0,7.5-0.2,11.2,0.1
		c2.7,0.3,4.4,2.1,4.8,4.7c0.4,2.6-0.8,4.8-3.1,6C565.9,310.2,565.3,310.2,564.8,310.9z M559.6,307.9c1.2-0.1,2.4-0.2,3.6-0.3
		c0.8-0.1,1.4-0.6,1.7-1.4c0.7-1.7-0.1-3.2-1.9-3.5c-1.3-0.2-2.6-0.2-3.9-0.2c-2.5,0-2.5,0-2.5,2.4
		C556.7,308,556.4,307.9,559.6,307.9z"/>
	<path class="st1" d="M725.4,309.3c0-1.3,0.1-2.6,0.5-3.9c1.2-4,4.3-6.4,8.4-6.7c0.7,0,1.4,0,2.1,0c4.3,0.3,7.6,2.9,8.6,7.1
		c0.6,2.6,0.6,5.2-0.1,7.7c-1.1,3.5-3.4,5.6-6.9,6.4c-1.7,0.4-3.5,0.4-5.2,0c-4-0.9-6.8-4-7.3-8.2
		C725.4,310.9,725.4,310.1,725.4,309.3z M741.1,309.6c0-1.3,0-2.6-0.6-3.9c-0.9-2.1-2.5-3.3-4.8-3.4c-2.4-0.1-4.3,0.8-5.3,3
		c-1.2,2.7-1.2,5.4,0,8.1c1,2.2,2.8,3.2,5.2,3.1c2.3-0.1,3.9-1.3,4.8-3.4C741,312,741.2,310.8,741.1,309.6z"/>
	<path class="st1" d="M636.1,309.5c0-3,0-6.1,0-9.1c0-1,0.2-1.3,1.2-1.3c2.8,0,5.6,0,8.4,0c3.4,0.1,5.8,1.9,6.9,5
		c1.2,3.4,1.3,6.8,0.1,10.2c-1.1,3.2-3.4,5-6.8,5.2c-2.9,0.2-5.7,0.1-8.6,0.1c-0.9,0-1.1-0.2-1.1-1.3
		C636.1,315.5,636.1,312.5,636.1,309.5C636.1,309.5,636.1,309.5,636.1,309.5z M640.3,309.2C640.3,309.2,640.3,309.2,640.3,309.2
		c0,2,0,4,0,6c0,0.6,0.3,1,0.9,1c1.6,0,3.1,0.2,4.7-0.2c1.3-0.3,2.2-1.1,2.6-2.3c0.2-0.6,0.5-1.3,0.5-2c0.1-1.5,0.1-3,0-4.4
		c0-0.7-0.2-1.4-0.5-2c-0.5-1.4-1.5-2.3-3.1-2.5c-1.2-0.2-2.4-0.2-3.6-0.3c-1.4,0-1.5,0.2-1.6,1.5
		C640.3,305.8,640.3,307.5,640.3,309.2z"/>
	<path class="st1" d="M784.1,320.2c-1.3,0-2.6-0.1-3.9-0.6c-2.6-0.9-4-2.9-4.6-5.6c-0.1-0.6,0.2-1,0.8-1.1c0.4-0.1,0.9-0.1,1.3-0.1
		c1.2-0.2,1.8,0.1,2.3,1.4c1,2.4,4.5,3.2,6.7,1.7c0.3-0.2,0.7-0.6,0.9-0.9c0.7-1.1,0.5-2.3-0.6-2.9c-0.8-0.4-1.6-0.6-2.4-0.9
		c-1.5-0.5-3-0.9-4.5-1.4c-1.3-0.4-2.3-1.2-3-2.4c-1.6-2.5-0.9-5.7,1.5-7.4c2.6-1.8,7.8-1.8,10.5,0c1,0.7,1.7,1.5,2.1,2.6
		c0.7,2.1,0.9,2.5-1.5,2.5c-0.4,0-0.9,0-1.3,0.1c-0.5,0-0.9-0.2-1-0.7c-0.3-1-0.9-1.7-1.9-2c-1.2-0.3-2.4-0.3-3.6,0
		c-0.8,0.2-1.5,0.7-1.5,1.6c-0.1,0.9,0.5,1.5,1.3,1.8c1.1,0.4,2.1,0.7,3.2,1c1.4,0.4,2.9,0.7,4.2,1.4c3.9,1.9,4.1,6.7,1.9,9.4
		c-0.8,0.9-1.7,1.5-2.8,1.9c-0.5,0.2-1,0.3-1.5,0.4C785.8,320.1,785,320.1,784.1,320.2z"/>
	<path class="st1" d="M474.8,320.1c-1.4,0-2.5-0.1-3.6-0.4c-2.8-0.9-4.3-2.8-4.9-5.6c-0.1-0.7,0.1-1.1,0.7-1.1
		c0.8-0.1,1.6-0.1,2.3-0.2c0.5,0,0.8,0.2,1,0.6c0,0.1,0.1,0.2,0.1,0.2c1.3,2.6,2.9,3.4,5.7,2.8c0.8-0.2,1.5-0.6,2-1.2
		c0.9-1.1,0.6-2.7-0.7-3.3c-0.7-0.3-1.5-0.5-2.2-0.8c-1.3-0.4-2.7-0.7-4-1.2c-1.1-0.4-2.1-0.9-2.9-1.8c-2.4-2.5-1.9-6.6,1.1-8.3
		c3.3-1.8,6.7-1.7,10,0c1.2,0.6,2,1.7,2.4,3c0.6,1.7,0.3,2.1-1.5,2.2c-0.4,0-0.9,0.1-1.3,0.1c-0.6,0-1-0.2-1.2-0.8
		c-0.3-1-0.9-1.7-1.9-1.9c-1.3-0.3-2.6-0.3-3.8,0.2c-0.7,0.3-1.1,0.8-1.1,1.6c0,0.8,0.5,1.3,1.2,1.6c1,0.4,2,0.7,3,1
		c1.4,0.4,2.9,0.8,4.2,1.3c3.4,1.4,4.1,4.9,3.3,7.3c-0.6,2-1.9,3.3-3.8,4C477.6,320,476.1,320.2,474.8,320.1z"/>
	<path class="st1" d="M849.5,309.5c0-3,0-6.1,0-9.1c0-1,0.2-1.2,1.2-1.3c4.4,0,8.7,0,13.1,0c0.8,0,1.1,0.3,1.1,1.1
		c0.1,2.2,0.1,2.4-2.2,2.4c-2.5,0-5.1,0-7.6,0c-1.1,0-1.3,0.3-1.4,1.4c0,0.1,0,0.2,0,0.3c0,3-0.3,2.9,2.8,2.9c2.1,0,4.2,0,6.3,0
		c1.2,0,1.3,0.2,1.3,1.4c0,0.5,0,1-0.1,1.6c0,0.2-0.3,0.5-0.5,0.5c-0.6,0.1-1.2,0.1-1.8,0.1c-2.3,0-4.5,0-6.8,0
		c-0.9,0-1.1,0.3-1.1,1.1c0,0.1,0,0.2,0,0.3c0.1,4.9-0.7,4.2,4,4.3c2.2,0,4.4,0,6.5,0c0.6,0,1,0.3,1,0.9c0,0.2,0,0.3,0,0.5
		c0,1.9,0,2-1.8,2c-2.8,0-5.6,0-8.4,0c-1.5,0-3,0-4.4,0c-0.9,0-1.1-0.3-1.1-1.1C849.5,315.6,849.5,312.6,849.5,309.5
		C849.5,309.5,849.5,309.5,849.5,309.5z"/>
	<path class="st1" d="M931.5,309.4c0-3,0-6.1,0-9.1c0-0.9,0.2-1.1,1.1-1.1c4.4,0,8.9,0,13.3,0c0.5,0,0.8,0.3,0.8,0.8
		c0.1,2.7,0.2,2.7-2.4,2.7c-2.3,0-4.5,0-6.8,0c-1.8,0-1.8,0.1-1.9,2c0,0.3,0,0.5,0,0.8c0,1.7,0,1.7,1.8,1.8c2.5,0,5.1,0,7.6,0
		c0.6,0,1,0.3,1,0.9c0,0.1,0,0.2,0,0.3c0.1,2.3,0.1,2.3-2.2,2.4c-2.4,0-4.7,0-7.1,0c-0.9,0-1.1,0.2-1.1,1.1c0.1,5.3-0.9,4.5,4.2,4.5
		c2.1,0,4.2,0,6.3,0c0.6,0,1,0.3,1,0.9c0,0.5,0,1,0,1.6c0,0.5-0.3,0.8-0.8,0.8c-0.3,0-0.7,0-1,0c-4,0-8,0-12,0
		c-1.7,0-1.8-0.1-1.8-1.7c0-1.8,0-3.7,0-5.5C931.5,311.5,931.5,310.4,931.5,309.4C931.5,309.4,931.5,309.4,931.5,309.4z"/>
	<path class="st1" d="M665.2,309.3c0-3,0-5.9,0-8.9c0-1.1,0.2-1.3,1.2-1.3c4.3,0,8.5,0,12.8,0c1.2,0,1.3,0.1,1.3,1.4c0,2,0,2-2,2
		c-2.6,0-5.2,0-7.8,0c-1,0-1.2,0.2-1.2,1.2c0,0.7,0,1.4,0,2.1c0,1,0.2,1.2,1.3,1.2c2.6,0,5.2,0,7.8,0c0.8,0,1.1,0.3,1.2,1
		c0,0.4,0,0.9,0,1.3c0,1-0.2,1.2-1.3,1.2c-2.5,0-5,0-7.6,0c-1.3,0-1.4,0.1-1.5,1.5c0,1,0,2.1,0,3.1c0,0.6,0.4,0.9,1,1
		c0.6,0,1.2,0,1.8,0c2.3,0,4.5,0,6.8,0c1.9,0,1.9,0.1,1.9,1.9c0,1.3-0.2,1.5-1.5,1.5c-4.2,0-8.4,0-12.5,0c-1.6,0-1.7-0.1-1.7-1.6
		C665.1,315.2,665.1,312.2,665.2,309.3C665.1,309.3,665.2,309.3,665.2,309.3z"/>
	<path class="st1" d="M539.8,299.1c0.4,0,0.9,0,1.3,0c0.6,0,1,0.2,1.2,0.8c0.1,0.2,0.1,0.3,0.2,0.5c2.4,6,4.8,12.1,7.3,18.1
		c0.4,0.9,0.2,1.2-0.9,1.3c-0.3,0-0.5,0-0.8,0c-2.9,0-2.3,0-3.2-2.1c-1.2-2.9-0.7-2.6-3.9-2.6c-1.4,0-2.8,0-4.2,0
		c-0.8,0-1.3,0.3-1.6,1.1c-0.3,0.9-0.7,1.8-1,2.7c-0.2,0.6-0.7,1-1.4,1c-0.8,0-1.6,0-2.3,0c-0.7,0-0.9-0.4-0.7-1
		c0.8-2.1,1.6-4.2,2.5-6.3c1.5-4,3.1-7.9,4.6-11.9c0.4-1.1,1-1.6,2.1-1.4C539.3,299.1,539.6,299.1,539.8,299.1
		C539.8,299.1,539.8,299.1,539.8,299.1z M539.7,311.5c0.7,0,1.4,0,2.1,0c0.4,0,0.6-0.4,0.5-0.8c-0.6-1.7-1.3-3.4-1.9-5.1
		c-0.1-0.4-0.1-1-0.7-0.9c-0.4,0.1-0.4,0.5-0.5,0.8c-0.4,1.1-0.9,2.3-1.3,3.4C536.9,311.7,536.7,311.6,539.7,311.5z"/>
	<path class="st1" d="M495,299.1c0.3,0,0.5,0,0.8,0c0.9-0.1,1.4,0.4,1.7,1.2c1.7,4.3,3.4,8.6,5.1,12.8c0.7,1.9,1.5,3.7,2.2,5.6
		c0.3,0.6,0,1-0.7,1c-0.4,0-0.9,0-1.3,0c-2.5,0-2.1-0.1-2.8-1.9c-1.3-3.2-0.7-2.8-4.3-2.8c-1.3,0-2.6,0-3.9,0
		c-0.8,0-1.3,0.4-1.6,1.1c-0.3,0.9-0.7,1.8-1,2.7c-0.2,0.5-0.5,0.9-1.1,0.9c-4,0.1-3.8,0.4-2.4-3.1c2-5.3,4.1-10.6,6.1-15.8
		c0.6-1.6,0.3-1.8,2.6-1.8C494.6,299.1,494.8,299.1,495,299.1C495,299.1,495,299.1,495,299.1z M494.9,311.6c0.5,0,1,0,1.6,0
		c0.7,0,1-0.4,0.8-1c-0.7-1.9-1.4-3.7-2.1-5.6c0-0.1-0.3-0.2-0.4-0.3c-0.1,0-0.3,0.1-0.4,0.2c-0.5,1.3-1,2.6-1.5,3.9
		C491.9,311.8,491.7,311.6,494.9,311.6z"/>
	<path class="st1" d="M700.8,306.9c0,2,0.1,4,0,6c-0.2,4.8-2.6,7.1-7.4,7.2c-1,0-1.9,0-2.9-0.1c-3.6-0.4-5.7-2.6-6-6.1
		c-0.4-4.5-0.2-9-0.2-13.6c0-1,0.2-1.2,1.3-1.2c3.2,0,3-0.3,3,2.9c0,2.7,0,5.4,0,8.1c0,0.8,0,1.6,0,2.3c0.2,3.3,2.7,5,5.8,3.8
		c1.1-0.4,1.7-1.2,2-2.3c0.1-0.8,0.2-1.6,0.2-2.3c0-3.2,0-6.4,0-9.7c0-0.7,0-1.4,0-2.1c0-0.5,0.3-0.8,0.8-0.8c0.4,0,0.9,0,1.3,0
		c2,0,2,0,2,2C700.9,303,700.9,305,700.8,306.9C700.8,306.9,700.8,306.9,700.8,306.9z"/>
	<path class="st1" d="M885.5,319.5c-1.3,0.4-2.7,0.2-4.1,0.2c-0.6,0-0.9-0.5-1.2-1c-0.9-1.3-1.7-2.6-2.6-3.9
		c-0.4-0.6-0.7-1.2-1.4-1.6c-1.1,1.1-1.8,2.5-2.7,3.8c-2.2,3.2-1.1,2.8-5.4,2.8c-0.3,0-0.7,0-0.9-0.3c-0.1-0.7,0.5-1.1,0.8-1.6
		c1.7-2.6,3.3-5.1,5-7.6c0.7-0.9,0.6-1.7,0-2.6c-1.3-1.9-2.6-3.9-3.9-5.9c-0.5-0.7-0.9-1.5-1.4-2.2c1.2-0.4,3.3-0.6,4.1-0.4
		c0.5,0.1,0.7,0.4,1,0.8c0.6,0.9,1.2,1.9,1.9,2.8c0.5,0.7,0.8,1.5,1.6,2.1c0.6-0.2,0.9-0.8,1.2-1.3c0.8-1.2,1.6-2.3,2.3-3.5
		c0.4-0.7,1-0.9,1.7-0.9c0.8,0,1.6,0,2.4,0c1.1,0,1.2,0.3,0.6,1.3c-1.6,2.4-3.1,4.9-4.7,7.2c-0.7,1-0.6,1.8,0,2.8
		c1.6,2.3,3.1,4.6,4.6,7C884.8,318,885.4,318.6,885.5,319.5z"/>
	<path class="st1" d="M820.2,319.8c-0.4,0-0.9,0-1.3,0c-0.6,0-1-0.3-1.2-0.9c-0.4-1-0.8-1.9-1.1-2.9c-0.2-0.6-0.7-1-1.4-1
		c-2.1,0-4.2,0-6.3,0c-0.7,0-1.1,0.4-1.4,1c-0.2,0.7-0.5,1.3-0.7,2c-0.7,1.8-0.7,1.8-2.6,1.8c-0.4,0-0.9,0-1.3,0
		c-0.7-0.1-0.9-0.4-0.7-1c0.2-0.7,0.5-1.3,0.7-2c1.9-4.9,3.8-9.9,5.8-14.8c0.2-0.6,0.5-1.1,0.7-1.7c0.2-0.8,0.7-1.1,1.5-1.1
		c4,0.1,3.2-0.5,4.5,2.8c2,4.9,4,9.8,5.9,14.8c0.3,0.6,0.5,1.3,0.8,1.9c0.3,0.8,0,1.1-0.9,1.1C820.9,319.8,820.6,319.8,820.2,319.8
		C820.2,319.8,820.2,319.8,820.2,319.8z M815,311.6c-1.2-2.6-1.6-5-3.1-7.2c-0.8,2.2-1.5,4.2-2.2,6.2c-0.2,0.6,0.1,1,0.7,1.1
		C811.8,311.6,813.2,311.6,815,311.6z"/>
	<path class="st1" d="M754,319.5c-0.2-0.5,0.1-0.9,0.2-1.3c2.2-5.8,4.5-11.5,6.7-17.3c0.2-0.4,0.3-0.8,0.5-1.2
		c0.2-0.5,0.6-0.6,1-0.6c0.5,0,1,0,1.6,0c2.1,0,2-0.2,2.8,1.9c2.3,5.8,4.7,11.6,7,17.4c0.4,1.1,0.3,1.3-1,1.4c-0.1,0-0.2,0-0.3,0
		c-3.3,0-2.6,0.3-3.7-2.5c-1-2.5-0.7-2.3-3.4-2.3c-1.3,0-2.6,0-3.9,0c-1.9,0-1.9,0.2-2.5,1.7c-0.2,0.7-0.5,1.3-0.7,2
		c-0.2,0.8-0.7,1.2-1.5,1.2c-0.8,0-1.6,0-2.3,0C754.4,319.7,754.1,319.6,754,319.5z M761.2,311.4c1.8,0.2,3.4,0.3,5,0
		c0.3-1.6-0.7-2.8-1.1-4.1c-0.3-0.9-0.5-2-1.3-2.9C762.7,306.7,761.9,309,761.2,311.4z"/>
	<path class="st1" d="M836.4,311c0-2.4,0-4.9,0-7.3c0-0.8-0.3-1.1-1.1-1.1c-1.4,0-2.8,0-4.2-0.1c-0.4,0-0.6-0.2-0.7-0.6
		c0-0.3-0.1-0.5-0.1-0.8c-0.1-2,0-2,2-2c4.1,0,8.2,0,12.3,0c0.5,0,1,0,1.6,0.1c0.2,0,0.3,0.1,0.4,0.3c0.3,0.4,0.3,2.5,0,2.8
		c-0.2,0.2-0.6,0.3-0.9,0.3c-1.3,0.1-2.6,0-3.9,0.1c-0.6,0-1,0.3-1,0.9c0,0.7,0,1.4,0,2.1c0,3.9,0,7.8,0,11.7c0,0.5,0,1,0,1.6
		c0,0.5-0.3,0.8-0.8,0.8c-0.2,0-0.3,0-0.5,0c-3.2,0-2.8,0.1-2.9-2.8C836.4,315,836.4,313,836.4,311C836.4,311,836.4,311,836.4,311z"
		/>
	<path class="st1" d="M913.9,309.5c0-2.7,0-5.4,0-8.1c0-0.5,0-1,0.1-1.6c0-0.2,0.2-0.5,0.5-0.5c0.2,0,0.3-0.1,0.5-0.1
		c3.4,0,3.2-0.5,3.2,3c0,3.7,0,7.5,0,11.2c0,0.7,0,1.4,0.1,2.1c0,0.4,0.3,0.6,0.7,0.7c0.7,0.1,1.4,0.1,2.1,0.1c2.2,0,4.4,0,6.5,0
		c0.6,0,0.9,0.3,1,1c0,0.3,0,0.5,0,0.8c0,1.7-0.1,1.7-1.8,1.8c-3.8,0-7.7,0-11.5,0c-1.2,0-1.4-0.2-1.4-1.4
		C913.9,315.4,913.9,312.5,913.9,309.5C913.9,309.5,913.9,309.5,913.9,309.5z"/>
	<path class="st1" d="M895,299.1c2.3,0,4.7,0,7,0c0.8,0,1,0.3,1.1,1.1c0,0.1,0,0.2,0,0.3c0.1,1.9,0,2-2,2.1c-1,0-2.1,0-3.1,0
		c-0.6,0-1,0.3-1,1c0,0.6,0,1.2,0,1.8c0,3.9,0,7.8,0,11.7c0,0.6,0,1.2-0.1,1.8c0,0.4-0.3,0.7-0.6,0.7c-1,0-1.9,0-2.9,0
		c-0.4,0-0.6-0.3-0.6-0.7c0-0.6,0-1.2,0-1.8c0-2.6,0-5.2,0-7.8c0-1.2,0-2.4,0-3.6c0-3.2,0.3-3-2.9-3c-0.7,0-1.4,0-2.1,0
		c-1-0.1-1.2-0.3-1.2-1.3c0-0.3,0-0.7,0-1c0-0.8,0.2-1.1,1.1-1.1c0.5,0,1,0,1.6,0C891.2,299.1,893.1,299.1,895,299.1
		C895,299.1,895,299.1,895,299.1z"/>
	<path class="st1" d="M795.7,309.6c0-2.9,0-5.9,0-8.8c0-1.7,0-1.7,1.8-1.7c0.3,0,0.5,0,0.8,0c1.6,0,1.6,0.1,1.7,1.6c0,0.5,0,1,0,1.6
		c0,4.9,0,9.7,0,14.6c0,0.6,0,1.2,0,1.8c0,0.9-0.2,1.2-1,1.2c-3.6,0.1-3.2,0.3-3.2-2.9C795.7,314.5,795.7,312,795.7,309.6z"/>
	<path class="st1" d="M909.9,309.6c0,2.8,0,5.6,0,8.3c0,1.8-0.1,1.8-1.9,1.9c-2.4,0-2.3,0-2.3-2.3c0-5.4,0-10.8,0-16.2
		c0-0.5,0-1,0.1-1.6c0-0.4,0.3-0.6,0.7-0.7c3.1-0.5,3.5-0.1,3.5,2.9C909.9,304.5,909.9,307.1,909.9,309.6z"/>
</g>
</svg>
