<?xml version="1.0" encoding="utf-8"?>
<!-- Generator: Adobe Illustrator 26.0.2, SVG Export Plug-In . SVG Version: 6.00 Build 0)  -->
<svg version="1.1" id="Слой_1" xmlns="http://www.w3.org/2000/svg" xmlns:xlink="http://www.w3.org/1999/xlink" x="0px" y="0px"
	 viewBox="0 0 1000 314" style="enable-background:new 0 0 1000 314;" xml:space="preserve">
<style type="text/css">
	.st0{fill:#234182;}
	.st1{fill:#1A9FDB;}
</style>
<g>
	<path class="st0" d="M1000,114v86.8c-2.3,2.2-4.8,4-7.3,5.9c-17.1,12.4-36.1,20.5-56.8,24.6c-11.3,2.2-22.7,2.9-34.1,2.1
		c-9.6-0.6-19.1-2.2-28.4-5.1c-19.3-6.1-33.8-18.1-43.4-35.9c-4.6-8.5-8-17.5-10.5-26.8c-1.2-4.4-2.3-8.8-3.2-13.3
		c-1-5-1.3-10.1-1.6-15.2c-0.3-6.2-0.4-12.3,0-18.5c0.9-16.3,4.2-32,11.3-46.8c5.2-11,12.1-20.6,21.6-28.3
		c7.2-5.9,15.1-10.5,23.6-14.1c10.5-4.4,21.5-7.1,32.8-8.2c5.6-0.5,11.2-0.7,16.9-0.3c19.3,1.2,36.9,7.2,52.1,19.4
		c11.4,9.2,19.2,20.7,23.1,34.9c0.4,1.5,1,3.1,0.9,4.7c-0.7,0.6-1.5,0.6-2.3,0.7c-11.1,2.2-22.2,4.4-33.3,6.6
		c-4.9,1-9.8,1.9-14.7,2.9c-0.4,0.1-0.9,0.2-1.3,0.3c-0.8,0.2-1.2-0.2-1.5-0.8c-0.2-0.6-0.5-1.2-0.7-1.7c-0.7-1.5-1.4-3.1-2.2-4.6
		c-5.7-10.4-14.7-15.7-26.4-16.5c-6.4-0.4-12.4,1.2-18,4.2c-11.8,6.5-19.6,16.1-23,29.2c-3.2,12.4-4.4,24.9-3.7,37.7
		c0.5,9,2.3,17.7,5.8,26c2,4.7,4.6,9.1,8,12.9c6.5,7.3,14.6,11.2,24.4,11.9c7,0.5,13.7-0.6,20.3-2.7c7.3-2.3,14.1-5.5,20.7-9.2
		c0.9-0.5,1.5-1.1,1.4-2.3c-0.1-5.4,0-10.9,0-16.3c0-0.3,0-0.5-0.1-0.8c-0.1-0.4-0.3-0.7-0.7-0.7c-0.8,0-1.6-0.1-2.4-0.1
		c-10.2,0-20.4,0.1-30.5,0.1c-0.6,0-1.3,0-1.9,0c-1.7,0-1.8-0.1-1.8-1.8c0.1-12.9,0.1-25.7,0.2-38.6c0-0.4,0-0.7,0-1.1
		c0.1-0.5,0.3-0.8,0.8-0.9c0.6,0,1.2,0,1.9,0C944.1,114.1,972,114,1000,114z"/>
	<path class="st1" d="M396.2,242c-1.5,1.5-2.9,2.9-4.4,4.3c-1.2,1.2-2.5,2.3-3.7,3.5c-15.2,15.1-30.4,30.2-45.6,45.3
		c-5.6,5.6-11.3,11.1-17,16.7c-0.6,0.6-1.2,1.3-1.8,2h-0.5c0-0.7-0.6-1-1.1-1.5c-12.5-12.4-25-24.8-37.5-37.1
		c-10.8-10.7-21.6-21.3-32.4-32c-1.8-1.7-1.7-1.6-0.1-3.3c6.9-7.1,13.8-14.2,20.7-21.4c10.2-10.5,20.3-21.1,30.5-31.6
		c4.1-4.3,8.3-8.6,12.4-12.9c1.9-1.9,3.7-3.9,5.5-5.8c2.2-2.3,1.8-2.1,4,0.1c0.6,0.6,1.1,1.1,1.7,1.7c13.6,13.8,27.1,27.6,40.7,41.5
		c8.6,8.7,17.1,17.5,25.7,26.2c0.9,1,1.8,2,2.7,2.9C396.6,241.1,396.6,241.6,396.2,242z"/>
	<path class="st1" d="M799.7,305.2c0,0.7-0.3,1.2-0.8,1.6c-3.9,2.6-7.9,4.9-12.5,6c-1,0.2-1.9,0.4-2.9,0.6c-0.2,0.1-0.4,0.3-0.6,0.5
		h-12.3c-0.2-0.5-0.7-0.5-1.1-0.6c-2-0.5-4-1.1-5.8-2c-5-2.5-8.3-6.4-10.1-11.6c-2.3-6.6-2.4-13.3-0.2-20c2.6-7.7,8-12.5,16.1-14.1
		c5.5-1.1,11-1,16.5,0c6.4,1.1,10.5,5,12.6,11.1c0.1,0.2,0.1,0.3,0.2,0.5c0.2,0.8,0.1,1.1-0.8,1.3c-3.8,0.7-7.5,1.4-11.3,2.1
		c-0.8,0.2-1.6,0.1-2-0.9c-2.2-5.2-9.5-5.5-13.5-2.8c-2.5,1.7-3.7,4.1-4.3,6.9c-0.8,3.7-0.7,7.5,0,11.2c0.8,4.1,3.1,7,7.2,8.2
		c1.9,0.5,3.9,0.6,5.8,0.1c2-0.5,3.9-1.1,5.7-2.1c0.9-0.6,1.4-1.3,1.3-2.4c0-0.4,0-0.9,0-1.3c-0.1-1.3-0.3-1.5-1.7-1.5
		c-2.2,0-4.5,0-6.7,0c-1.2,0-1.5-0.3-1.5-1.3c0-2.3,0-4.6,0-7c0-1.1,0.3-1.4,1.5-1.4c4.3,0,8.6,0,12.9,0c2.2,0,4.5,0,6.7,0
		c1.2,0,1.4,0.3,1.4,1.4c0,4.9,0,9.8,0,14.7C799.7,303.2,799.7,304.2,799.7,305.2z"/>
	<path class="st1" d="M550.4,279.9c0,4.6,0,9.1,0,13.7c0,2.7-0.4,5.4-1.3,7.9c-2.1,5.7-5.8,9.7-11.8,11.4c-1,0.3-2.1,0.1-2.9,1
		h-11.8c-0.3-0.6-0.9-0.5-1.4-0.6c-3.3-0.4-6.4-1.4-9.1-3.6c-2.5-2-4.3-4.5-5.4-7.5c-1-3-1.6-6.2-1.6-9.5c0-8.2,0-16.4,0-24.6
		c0-2.4,0.1-2.4,2.4-2.4c3.4,0,6.8,0,10.2,0c0.4,0,0.7,0,1.1,0c0.6,0,1,0.3,1,1c0,0.7,0,1.4,0,2.1c0,8.1,0,16.2,0,24.4
		c0,1,0,2,0.1,2.9c0.4,3.6,3,6.2,6.7,6.5c1.2,0.1,2.5,0.1,3.7-0.2c2.7-0.7,4.5-2.4,5.2-5.2c0.3-1.3,0.4-2.6,0.4-4
		c0-8.1,0-16.2,0-24.4c0-3.6-0.3-3.3,3.3-3.3c3.1,0,6.3,0,9.4,0c1.7,0,1.8,0.1,1.8,1.9C550.4,271.7,550.4,275.8,550.4,279.9z"/>
	<path class="st1" d="M719,302.3c-1.9-1.3-1.9-1.3-1-3.4c0.2-0.3,0.3-0.6,0.5-1c0.5-1.3,1.1-2.6,1.6-4c0.4-1.2,0.2-1.7-1-2
		c-2.4-0.6-4.8-1.2-7.3-1.7c-1.1-0.3-1.3-0.1-1.8,1c-0.4,0.9-0.6,1.9-1.3,2.6c-0.2,0-0.4,0-0.5-0.1c-2-1.5-3.9-3.1-5.6-4.9
		c-0.8-0.8-0.7-1.1,0.3-1.9c1.1-0.8,2.2-1.5,3.3-2.3c1.5-1.1,2.8-2.5,3.7-4.2c2.2-3.7,1.7-8.2-1.2-11.4c-1.7-1.9-3.8-2.9-6.2-3.5
		c-3.6-0.9-7.3-0.8-10.9-0.4c-2,0.2-4,0.8-5.8,1.9c-3.1,2-5,4.8-5.2,8.5c-0.1,2.9,0.6,5.5,2.2,7.8c0.5,0.8,1.1,1.6,1.6,2.5
		c0.2,0.3,0.1,0.7-0.2,0.9c-0.9,0.5-1.9,1-2.8,1.5c-3.1,1.7-5.5,3.9-6.8,7.3c-1.6,4.2-1.3,8.2,1.4,11.9c1.6,2.1,3.6,3.8,6.1,4.6
		c1.3,0.4,2.6,0.8,3.8,1.1c0.4,0.1,0.7,0.2,0.8,0.6h10.7c0.2-0.3,0.5-0.5,0.9-0.5c3.7-0.5,7.2-1.6,10.4-3.6c0.7-0.4,1.2-0.5,1.9,0
		c1.8,1.2,3.7,2.4,5.6,3.6c0.2,0.1,0.3,0.4,0.4,0.6h1.1c-0.1-0.7,0.5-1.1,0.8-1.6c1.5-1.7,2.9-3.4,4.4-5.1c0.4-0.5,1-0.8,1-1.7
		C722.3,304.5,720.6,303.4,719,302.3z M695.3,272.1c0.3-0.1,0.7-0.1,1.1-0.1c0.9,0,1.8,0.1,2.6,0.6c1.7,1,2.3,2.8,1.4,4.6
		c-1,1.9-2.5,3.2-4.3,4.2c-0.4,0.2-0.7,0.1-1-0.2c-1-1-1.8-2.1-2.5-3.4C690.9,275,693,272.5,695.3,272.1z M700.3,303.3
		c-2.1,1.1-4.3,2.1-7,2c-1.4,0.1-2.9-0.3-4.2-1.1c-3.6-2.3-3.3-6.8-1.1-8.7c0.4-0.3,0.7-0.6,1-0.9c0.1-0.1,0.3-0.2,0.4-0.3
		c0.3-0.3,0.5-0.4,0.7-0.6c0,0,0.1-0.1,0.1-0.1c0.1,0,0.2-0.1,0.2-0.1c0,0,0.1,0,0.1,0c0.1,0,0.1,0,0.2,0c0.1,0,0.1,0,0.2,0.1
		c0.3,0.1,0.5,0.3,0.9,0.7c0.2,0.2,0.4,0.4,0.7,0.7c0.1,0.1,0.3,0.3,0.5,0.4c0.6,0.6,1.2,1.1,1.8,1.6c1.8,1.6,3.7,3.3,5.5,4.9
		c0.1,0.1,0.1,0.1,0.2,0.2c0.1,0.1,0.1,0.1,0.1,0.2c0,0.1,0.1,0.1,0.1,0.2C700.9,302.8,700.8,303.1,700.3,303.3z"/>
	<path class="st1" d="M950.8,299.4c-0.9,7-5.2,11.1-11.6,13.3c-1.1,0.4-2.3,0.5-3.4,0.7c-0.4,0.1-0.9,0.1-1.2,0.5H925
		c-0.3-0.4-0.7-0.4-1.2-0.5c-1.5-0.1-3-0.5-4.4-1c-4.3-1.3-7.3-4-9.2-8c-0.9-1.9-1.4-3.8-1.7-5.9c-0.1-0.8,0.2-1.2,1-1.3
		c3.8-0.2,7.7-0.4,11.5-0.6c1.1,0,1.1,0.1,1.5,1.1c0.2,0.7,0.4,1.4,0.6,2c1.1,2.8,3.2,4.2,6.1,4.5c1,0.1,2,0,2.9,0
		c0.8,0,1.6-0.3,2.3-0.7c3.1-1.8,3.3-5.3,0.5-7.5c-1-0.8-2.2-1.2-3.4-1.5c-2.7-0.7-5.3-1.4-8-2.2c-2.3-0.7-4.6-1.6-6.7-2.7
		c-4-2.3-6.4-5.7-6.6-10.3c-0.2-4.5,1.7-8.1,5.4-10.8c2-1.4,4.2-2.3,6.6-2.8c1.9-0.4,3.9-0.7,5.8-0.7c3.3,0,6.6-0.1,9.8,0.7
		c3,0.7,5.8,1.9,7.9,4.2c1.7,1.9,2.8,4.2,3.3,6.6c0.5,2.2,1,2.4-2,2.6c-3.4,0.2-6.8,0.5-10.1,0.8c-0.8,0.1-1,0-1.3-1
		c-0.3-0.9-0.6-1.9-1.2-2.7c-2.1-2.9-6.7-3-9-1.8c-1.3,0.7-1.9,2.1-1.6,3.7c0.1,0.7,0.5,1.1,1.1,1.5c0.9,0.6,1.9,0.9,3,1.1
		c3.3,0.8,6.6,1.7,9.8,2.6c2.2,0.6,4.4,1.5,6.4,2.6C948.5,288.3,951.6,292.9,950.8,299.4z"/>
	<path class="st1" d="M988.1,312.2c-1.2,0.5-2.6,0.8-3.9,1.1c-0.4,0.1-0.7,0.2-0.8,0.6h-11.8c-0.2-0.4-0.5-0.4-0.9-0.5
		c-1.2-0.3-2.4-0.5-3.6-0.9c-5.6-1.6-8.8-5.5-10.5-10.8c-0.1-0.4-0.3-0.9-0.3-1.3c-0.7-3.4-0.2-3,2.4-3.1c2.7-0.1,5.3-0.3,8-0.5
		c0.5,0,1.1-0.1,1.6,0c1.3,0,1.4,0.1,1.7,1.2c0.2,0.7,0.3,1.4,0.6,2c1.1,2.7,3.2,4,5.9,4.3c1.1,0.1,2.1,0,3.2,0
		c0.9,0,1.7-0.4,2.5-0.9c2.7-1.8,2.9-5.2,0.3-7.2c-0.6-0.5-1.4-0.9-2.1-1.1c-1.9-0.6-3.8-1.2-5.7-1.6c-3.6-0.9-7.2-2-10.5-3.9
		c-3.1-1.8-5.3-4.2-6.2-7.7c-1.2-4.7,0.6-10,4.4-12.9c3.1-2.4,6.8-3.4,10.7-3.8c2.8-0.3,5.7-0.2,8.6,0c2.6,0.2,5.1,0.8,7.5,1.9
		c2.8,1.3,4.8,3.3,6.1,6.1c0.7,1.5,1.3,3.1,1.5,4.8c0.1,0.7-0.2,1-0.8,1.1c-1.7,0.2-3.4,0.3-5.1,0.5c-2.1,0.2-4.3,0-6.4,0.4
		c-0.6,0.1-1-0.1-1.3-0.7c-0.2-0.5-0.3-1-0.5-1.5c-0.8-1.9-2.1-3.1-4-3.6c-1.7-0.5-3.3-0.5-5,0.1c-0.3,0.1-0.7,0.3-1,0.4
		c-2.2,1.5-2.1,4.3,0.3,5.3c1.3,0.6,2.7,0.9,4.1,1.2c3.4,0.8,6.7,1.7,10,2.8c2,0.7,4,1.6,5.7,2.8c3.5,2.5,5.3,5.8,5.5,10.2
		C998.8,304,994.3,309.8,988.1,312.2z"/>
	<path class="st0" d="M587.7,199.7c-5.3,8.9-12.4,16.2-21.5,21.1c-10.9,5.9-22.4,10.1-34.8,11.7c-18.9,2.5-37.2,0.3-54.7-7.7
		c-11.4-5.2-21.2-12.5-28.9-22.4c-7-9.1-11.4-19.3-13.2-30.6c-0.5-2.8-0.7-5.7-0.9-8.5c0-0.6,0-1.2,0-1.9c0-0.4,0.3-0.6,0.7-0.7
		c0.3,0,0.5-0.1,0.8-0.1c6.1-0.4,12.1-0.8,18.2-1.2c6.7-0.4,13.4-0.9,20-1.4c3.7-0.3,7.5-0.5,11.2-0.7c0.6,0,1.2-0.2,1.9,0.2
		c0.4,2.3,0.7,4.7,1.2,7c0.9,4.1,2.3,8.1,4.3,11.8c1.4,2.6,3.1,5,5.2,7.1c3.2,3.3,6.9,5.6,11.3,6.8c6.6,1.8,13.2,2.2,19.8,0.3
		c4.4-1.3,8.2-3.5,11.2-7c7-7.8,6.8-18.6-0.4-26.2c-2.4-2.5-5.2-4.4-8.2-5.9c-5.4-2.7-11.1-4.8-16.9-6.6c-7.8-2.4-15.6-4.6-23.3-7
		c-6.1-1.9-12.2-4.1-18-6.8c-3.3-1.6-6.5-3.4-9.5-5.4c-11-7.4-17.9-17.5-20.9-30.3c-1.5-6.4-2.1-12.8-1.8-19.4
		c0.6-11.4,4.5-21.6,11.8-30.4c5-6.1,11.1-10.8,17.9-14.7c7.9-4.4,16.3-7.3,25-9.1c7.8-1.6,15.7-2.4,23.7-2.1
		c12.7,0.4,25,2.7,36.6,8c7.5,3.3,14.3,7.7,20.1,13.5c7.5,7.4,12.4,16.3,14.8,26.5c0.8,3.3,1.4,6.6,2,10c0.2,1.1,0.3,2.1,0.2,3.2
		c0,0.4-0.3,0.6-0.7,0.7c-0.3,0.1-0.5,0.1-0.8,0.1c-2.8,0.2-5.5,0.3-8.3,0.5c-10.8,0.6-21.6,1.2-32.4,1.8c-3,0.2-6.1,0.4-9.1,0.5
		c-1.2,0.1-1.4-0.1-1.7-1.2c-0.4-1.6-0.8-3.3-1.2-4.9c-0.6-2.3-1.3-4.4-2.3-6.6c-2.4-5.4-6.4-9.2-11.9-11.4
		c-7.1-2.8-14.3-2.9-21.5-0.6c-5.7,1.8-9,5.9-10.4,11.6c-1.2,4.8,0.4,8.8,3.9,12.1c1.6,1.5,3.6,2.6,5.6,3.6
		c3.3,1.6,6.8,2.8,10.3,3.8c7.3,2,14.7,3.9,22,5.9c8.6,2.3,17.1,4.9,25.3,8.6c7.5,3.3,14.6,7.5,20.8,13c1.2,1.1,2.4,2.2,3.5,3.3
		c3.4,3.4,6,7.3,7.9,11.7c3.3,7.5,5.3,15.3,5.9,23.5C598.8,172.2,595.6,186.5,587.7,199.7z"/>
	<path class="st0" d="M806.2,227.3c-20.6-61.8-41.3-123.5-61.9-185.3c-1.6-4.8-3.2-9.6-4.8-14.5c-0.5-1.4-0.5-1.4-2.1-1.5h-0.3
		c-18.4,0-36.8-0.1-55.2-0.1c-2,0-2,0-2.8,2c-0.1,0.2-0.1,0.3-0.2,0.5c-18.7,54.2-37.4,108.4-56.1,162.6
		c-4.2,12.1-8.3,24.1-12.5,36.2c-0.3,0.8-0.8,1.6-0.5,2.7c0.8,0,1.7,0.1,2.6,0.1c17.2,0,34.5,0,51.7,0c0.4,0,0.7,0,1.1,0
		c0.7,0,1.2-0.3,1.4-1c0.1-0.6,0.3-1.2,0.5-1.8c2.6-9.4,5.1-18.8,7.7-28.1c0.9-3.1,0.2-2.8,3.7-2.8c18.8,0,37.5,0,56.3,0.1
		c1.4,0,3.1-0.5,4.2,0.2c1.3,0.8,1.2,2.7,1.6,4.1c2.4,8.8,4.8,17.6,7.2,26.3c1,3.6,0.5,3,3.9,3c17.7,0,35.4,0,53,0h2.3
		C806.7,229,806.5,228.2,806.2,227.3z M725.2,152.4c-11.9,0-23.7,0-35.6,0c-0.5,0-1.1,0.1-1.5-0.3c0,0,0-0.1-0.1-0.1
		c0-0.1,0-0.2-0.1-0.2c0-0.3,0.1-0.6,0.2-0.9c0.2-0.7,0.5-2.2,1.1-4.2c0.1-0.3,0.2-0.6,0.2-0.9c0-0.2,0.1-0.3,0.1-0.5
		c0.1-0.3,0.2-0.6,0.3-0.9c0.1-0.3,0.2-0.7,0.3-1c0.1-0.5,0.3-1,0.4-1.6c0.1-0.4,0.2-0.7,0.3-1.1c0.3-1,0.5-2,0.8-3
		c0.1-0.4,0.2-0.9,0.4-1.3c0.2-0.7,0.4-1.3,0.5-2c0.1-0.3,0.1-0.5,0.2-0.8c0-0.1,0-0.2,0.1-0.3h0c0-0.2,0.1-0.3,0.1-0.5
		c0.1-0.5,0.3-1,0.4-1.6c0.1-0.4,0.2-0.7,0.3-1.1c0.2-0.7,0.4-1.5,0.6-2.2c0.3-1.1,0.6-2.2,0.9-3.3c0,0,0-0.1,0-0.1h0
		c0-0.1,0.1-0.3,0.1-0.4c0.1-0.4,0.2-0.9,0.4-1.3c0.2-0.6,0.3-1.2,0.5-1.7c2.9-10.3,5.9-21.3,8.2-29.3c0.3-1,0.6-1.9,0.8-2.8
		c0.1-0.4,0.2-0.8,0.3-1.2c0.1-0.4,0.2-0.7,0.3-1c0,0,0,0,0-0.1h0c0-0.1,0.1-0.3,0.1-0.4c0-0.2,0.1-0.3,0.1-0.5c0,0,0-0.1,0-0.1h0
		c0-0.2,0.1-0.3,0.1-0.5c0-0.2,0.1-0.3,0.1-0.5c0.2-0.5,0.3-1,0.4-1.5c0.1-0.2,0.1-0.4,0.2-0.7c0.2-0.8,0.4-1.5,0.6-1.9
		c0.1-0.3,0.1-0.4,0.2-0.5c0.6,0.5,0.6,1.2,0.8,1.9c4.1,15.1,8.2,30.1,12.2,45.2c2,7.6,4.1,15.1,6.1,22.7
		C727.6,152.3,727.6,152.4,725.2,152.4z"/>
	<path class="st0" d="M150.6,159c-0.4,0.5-0.9,0.9-1.3,1.4c-23.2,23.7-46.3,47.3-69.5,71c-0.6,0.6-1.1,1.1-1.9,1.8
		c-0.7-0.6-1.1-1-1.6-1.4C51.5,208,26.7,184.2,1.9,160.5c-2.5-2.4-2.4-1.8,0-4.1c24.8-23.7,49.5-47.4,74.3-71.1
		c0.6-0.5,1.1-1.2,1.8-1.5c0.8,0.4,1.4,1.2,2,1.8c23.2,23.7,46.3,47.4,69.5,71c0.4,0.4,0.7,0.8,1.1,1.2
		C150.9,158.2,151,158.6,150.6,159z"/>
	<path class="st0" d="M232.9,75.1c0,0.1-0.1,0.2-0.1,0.2c-23.8,24.4-47.6,48.8-71.4,73.2c-0.2,0.3-0.5,0.5-0.8,0.7
		c-0.1,0.1-0.3,0.1-0.5,0.2c-0.8-0.4-1.3-1.1-2-1.8c-23-23.6-46-47.1-69-70.7c-2.3-2.3-2.3-1.8-0.1-4.1
		c23.1-23.6,46.1-47.3,69.2-70.9c0.6-0.6,1.1-1.2,1.7-1.9c2,1.7,71.4,72.8,73,74.7C232.9,75,233,75,232.9,75.1z"/>
	<path class="st1" d="M396,75.9c-0.2,0.2-0.4,0.4-0.6,0.6c-4.6,4.7-9.2,9.5-13.8,14.2c-15,15.3-30,30.6-45,45.9
		c-3.9,4-7.7,7.9-11.6,11.9c-0.4,0.4-0.7,0.8-1.3,0.9c-0.2-0.1-0.4-0.1-0.5-0.2c-0.5-0.5-1-1-1.5-1.5
		c-11.9-12.2-23.8-24.4-35.8-36.6c-6.5-6.6-13-13.3-19.4-19.9c-4.8-4.9-9.6-9.8-14.4-14.8c-0.3-0.3-0.5-0.5-0.7-0.8
		c-0.5-0.5-0.4-0.9,0.1-1.4c0.4-0.4,0.9-0.9,1.3-1.3c2.4-2.5,4.9-5,7.3-7.4c10.4-10.6,20.7-21.2,31.1-31.8
		c7.1-7.3,14.2-14.6,21.3-21.8c3.2-3.3,6.3-6.5,9.5-9.8c0.4-0.4,0.9-0.9,1.4-1.3c0.2-0.2,0.5-0.2,0.7,0c0.3,0.2,0.6,0.5,0.8,0.7
		c7.9,8.1,15.9,16.2,23.8,24.3c8.9,9.1,17.9,18.2,26.8,27.3c6.5,6.6,13,13.3,19.5,19.9c0.4,0.4,0.8,0.7,1.1,1.1
		C396.7,74.9,396.7,75,396,75.9z"/>
	<path class="st1" d="M314.6,159.1c-0.4,0.4-0.9,0.9-1.3,1.3c-3.1,3.2-6.3,6.4-9.4,9.6c-12.2,12.4-24.4,24.9-36.6,37.3
		c-7.7,7.8-15.4,15.7-23,23.5c-0.7,0.7-1.4,1.4-2,2c-0.8-0.1-1.2-0.7-1.6-1.1c-12.2-12.4-24.4-24.9-36.5-37.3
		c-3.2-3.3-6.4-6.7-9.7-10c-7.9-8.1-15.7-16.1-23.6-24.2c-0.4-0.4-0.7-0.8-1.1-1.2c-0.3-0.4-0.4-0.8,0-1.2c0.2-0.3,0.5-0.5,0.7-0.8
		c3.4-3.5,6.8-7.1,10.3-10.6c12.6-12.9,25.2-25.8,37.8-38.7c7.1-7.3,14.2-14.6,21.3-21.9c0.7-0.7,1.2-1.5,2.2-2
		c1.1,0.6,1.9,1.6,2.7,2.5c6.1,6.2,12.1,12.4,18.2,18.6c9.7,10,19.5,19.9,29.2,29.9c7.1,7.2,14.1,14.4,21.2,21.6
		c0.4,0.4,0.7,0.8,1.1,1.2C315,158.1,315.1,158.6,314.6,159.1z"/>
	<path class="st0" d="M232.9,241.8c-0.5,0.5-1,1.1-1.6,1.6c-23.1,22.8-46.2,45.7-69.4,68.5c-2.1,2-1.7,2-3.7,0.1
		c-23.1-22.8-46.2-45.7-69.3-68.5c-2.1-2.1-2.2-1.6,0-3.8c22.8-23.4,45.6-46.8,68.4-70.2c0.8-0.8,1.5-1.8,2.6-2.4
		c24.2,24.6,48.3,49.2,72.4,73.8C232.7,241,233,241.2,232.9,241.8z"/>
	<path class="st1" d="M405.3,87.3c0,47.3,0,94.6,0,142c0,0.8,0,1.6-0.1,2.4c0,0.2-0.1,0.6-0.4,0.6c-0.2,0-0.6,0-0.7-0.2
		c-1.3-1.3-2.7-2.6-3.9-4c-1-1.2-2.1-2.2-3.1-3.3c-6-6.1-11.9-12.3-17.9-18.4c-5-5.2-10.1-10.3-15.2-15.5
		c-6.1-6.2-12.1-12.4-18.1-18.6c-3.9-4-7.5-8.1-11.6-11.9c-0.1-0.1-0.3-0.2-0.4-0.4c-1.5-1.7-1-1.9,0.1-3.1
		c4.1-4.4,8.3-8.6,12.5-12.9c6.9-7,13.7-14.1,20.5-21.1c8.5-8.7,17.1-17.3,25.4-26.1c3.7-3.9,7.5-7.7,11.2-11.5
		c0.4-0.4,0.8-0.7,1.4-1.3C405.5,85.3,405.3,86.3,405.3,87.3z"/>
	<path class="st1" d="M905.6,311.5c-0.1-0.5-0.4-1-0.5-1.5c-2.7-7.2-5.3-14.4-8-21.6c-2.6-6.9-5.2-13.9-7.8-20.8
		c-0.7-2-0.8-1.9-2.9-1.9c-3.8,0-7.7,0-11.5,0c-0.4,0-0.9,0-1.3,0c-0.6,0-1,0.3-1.2,0.8c-0.2,0.4-0.3,0.8-0.5,1.2
		c-4.8,12.7-9.5,25.4-14.3,38.1c-0.8,2.1-1.6,4.1-2.4,6.2c-1.1-0.3-1.2-1.2-1.6-1.9c-1.7-3.2-3.3-6.5-5-9.7c-1.8-3.3-3.9-6.5-7.6-8
		c-0.1,0-0.1-0.1-0.3-0.4c0.7-0.3,1.3-0.5,1.9-0.7c4.4-1.2,8.8-6.5,8.5-12c0-0.7,0-1.4-0.1-2.1c-0.6-5.1-3.3-9.3-8.8-10.5
		c-2.6-0.6-5.3-1-8-1c-7.7,0-15.4,0-23,0c-2.7,0-2.7-0.1-2.6,2.6c0,0.2,0,0.4,0,0.5v40.7c0,0.7,0,1.4,0,2.1c0,0.9,0.3,1.1,1.1,1.2
		c0.3,0,0.5,0,0.8,0c3.6,0,7.1,0,10.7,0c1.8,0,1.9-0.1,1.9-2c0-0.6,0-1.3,0-1.9c0-4.3,0-8.6,0-12.9c0-2.1,0-2.4,2.5-2.1
		c1.3,0.2,2.4,0.8,3.2,1.8c0.6,0.8,1.2,1.6,1.6,2.4c2,3.8,4,7.6,6,11.3c0.4,0.8,0.9,1.5,1.3,2.3c0.4,0.7,0.9,1,1.7,1
		c0.6,0,1.3,0,1.9,0h19.8c2,0,3.9,0,5.9,0c2.9,0,2.5,0.1,3.4-2.6c0.4-1.2,0.7-2.4,1.1-3.6c0.5-1.4,0.5-1.4,1.8-1.4
		c4.5,0,8.9,0,13.4,0c1.6,0,1.6,0.1,2.1,1.5c0.6,1.7,1.1,3.4,1.6,5.1c0.2,0.7,0.7,1,1.4,1c4.2,0,8.4,0,12.6,0
		C905.6,312.9,905.9,312.4,905.6,311.5z M833.5,284.2c-1.1,0.3-2.3,0.5-3.4,0.6c-1.9,0.1-3.7,0.1-5.6,0c-0.4,0-0.7-0.1-0.9-0.3
		c-0.1-0.1-0.1-0.2-0.2-0.2c0,0,0-0.1,0-0.1c0,0,0-0.1,0-0.1c0-0.1,0-0.1,0-0.2c0-0.1,0-0.2,0-0.3c0-1.3,0-2.5,0-3.8
		c0-1.2,0-2.3,0-3.5c0-0.1,0-0.2,0-0.3c0-0.1,0-0.2,0-0.2c0-0.1,0.1-0.3,0.1-0.4c0-0.1,0.1-0.1,0.1-0.2c0.2-0.2,0.5-0.2,1-0.2
		c2.1,0,4.3,0,6.4,0c0.9,0,1.8,0.2,2.6,0.5c0.1,0,0.2,0.1,0.3,0.1c0.1,0,0.2,0.1,0.3,0.1c0.1,0,0.2,0.1,0.2,0.1
		c0.4,0.2,0.7,0.5,1,0.7c0.2,0.2,0.3,0.3,0.4,0.5c0.5,0.7,0.8,1.6,0.7,2.7C836.5,282.1,835.5,283.7,833.5,284.2z M884.8,294.9
		c-0.3,0.1-0.5,0.1-0.8,0.1c-2.6,0-5.1,0-7.7,0c-0.2,0-0.5-0.1-0.7-0.2c-0.2-0.5,0-0.9,0.1-1.3c0.9-3.1,1.9-6.2,2.8-9.2
		c0.4-1.3,0.8-2.7,1.2-4c0.1-0.3,0.2-0.5,0.3-0.7c0.1-0.1,0.3-0.2,0.4-0.2c0.1,0,0.3,0.1,0.4,0.3c0.3,0.8,0.6,1.7,0.8,2.5
		c1.1,3.6,2.1,7.1,3.2,10.7c0.2,0.5,0.3,1,0.4,1.5C885.3,294.5,885.1,294.8,884.8,294.9z"/>
	<path class="st1" d="M595.9,274.6c0,0.1,0,0.2,0,0.3c0,0.6-0.4,0.9-1,1c-0.7,0-1.4,0-2.1,0c-5.1,0-10.2,0-15.3,0
		c-0.7,0-1.4,0-2.1,0.1c-0.4,0-0.7,0.3-0.7,0.7c0,2.3,0,4.6,0,7c0,0.4,0.4,0.6,0.7,0.6c0.7,0.1,1.4,0.1,2.1,0.1c4,0,8,0,12.1,0
		c0.7,0,1.4,0,2.1,0c0.6,0,1,0.3,1,1c0,2.4,0,4.8,0,7.2c0,0.8-0.3,1-1.2,1.1c-0.7,0-1.4,0-2.1,0h-11.8c-0.6,0-1.3,0-1.9,0
		c-0.8,0.1-1.1,0.4-1.2,1.1c0,0.6,0,1.3,0,1.9v13.1c0,0.6,0,1.3,0,1.9c-0.1,0.9-0.3,1.1-1.1,1.2c-0.4,0-0.7,0-1.1,0
		c-3.4,0-6.8,0-10.2,0c-0.4,0-0.9,0-1.3-0.1c-0.5-0.1-0.8-0.4-0.8-0.9c0-0.7-0.1-1.4-0.1-2.1v-20.6c0-7.1,0-14.1,0-21.2
		c0-2.3,0-2.4,2.4-2.4c10.4,0,20.9,0,31.3,0c0.4,0,0.7,0,1.1,0c0.9,0.1,1.1,0.3,1.2,1.1C595.9,269.4,595.9,272,595.9,274.6z"/>
	<path class="st1" d="M498.5,276.1c0,1-0.2,1.2-1.3,1.2c-3,0-6.1,0-9.1,0c-0.7,0-1.4,0-2.1,0c-2,0-2.1,0-2.1,2.1c0,10,0,20,0,30
		c0,3.8,0.4,3.7-3.6,3.6c-2.7,0-5.4,0-8,0c-0.6,0-1.3,0-1.9,0c-0.8-0.1-1.1-0.4-1.2-1.2c-0.1-0.7,0-1.4,0-2.1c0-9.7,0-19.4,0-29.2
		c0-3.5,0.2-3.2-3.1-3.2c-2.9,0-5.9,0-8.8,0c-0.6,0-1.2,0-1.9-0.1c-0.5,0-0.8-0.3-0.9-0.8c-0.1-0.6-0.1-1.2-0.1-1.9
		c0-2.6,0-5.2,0-7.8c0-0.8,0.3-1.1,1.1-1.2c0.7,0,1.4,0,2.1,0c6.3,0,12.7,0,19,0c6.2,0,12.3,0,18.5,0c0.7,0,1.4,0,2.1,0
		c1,0.1,1.2,0.3,1.2,1.3C498.5,270.1,498.5,273.1,498.5,276.1z"/>
	<path class="st1" d="M644.7,276.1c0,1.1-0.2,1.3-1.5,1.3c-3.2,0-6.4,0-9.6,0c-0.7,0-1.4,0-2.1,0c-1.3,0.1-1.5,0.3-1.6,1.6
		c0,0.7,0,1.4,0,2.1V309c0,0.6,0,1.2,0,1.9c0,1.9-0.1,2-1.9,2c-2.1,0-4.3,0-6.4,0c-1.6,0-3.2,0-4.8,0c-1,0-1.3-0.3-1.3-1.3
		c0-0.7,0-1.4,0-2.1v-29.2c0-3.1,0.2-2.9-2.9-2.9h-9.4c-0.4,0-0.9,0-1.3,0c-1.1-0.1-1.3-0.3-1.4-1.5c0-1.7,0-3.4,0-5.1
		c0-1.2,0-2.3,0-3.5c0-1.4,0.3-1.6,1.5-1.6c0.6,0,1.2,0,1.9,0h18.7c6.4,0,12.8,0,19.3,0c0.7,0,1.4,0,2.1,0.1c0.4,0,0.6,0.3,0.7,0.7
		c0,0.2,0.1,0.4,0.1,0.5C644.7,270,644.7,273,644.7,276.1z"/>
</g>
</svg>
