<?xml version="1.0" encoding="utf-8"?>
<!-- Generator: Adobe Illustrator 26.0.2, SVG Export Plug-In . SVG Version: 6.00 Build 0)  -->
<svg version="1.1" id="Слой_1" xmlns="http://www.w3.org/2000/svg" xmlns:xlink="http://www.w3.org/1999/xlink" x="0px" y="0px"
	 viewBox="0 0 1000 240" style="enable-background:new 0 0 1000 240;" xml:space="preserve">
<style type="text/css">
	.st0{fill-rule:evenodd;clip-rule:evenodd;fill:#6DB758;}
	.st1{fill-rule:evenodd;clip-rule:evenodd;fill:#046033;}
	.st2{fill-rule:evenodd;clip-rule:evenodd;fill:#0B843F;}
	.st3{fill-rule:evenodd;clip-rule:evenodd;fill:#37A344;}
	.st4{fill-rule:evenodd;clip-rule:evenodd;fill:#005028;}
	.st5{fill-rule:evenodd;clip-rule:evenodd;fill:#008A3A;}
</style>
<path class="st0" d="M177.26,27.41c11.55,9.88,28.72,32.43,30.43,56.08c-4.96-11.07-6.4-18.45-13.46-28.95
	c-7.83-11.64-20-23-32.71-29.1c-9.06-4.35-23.16,15.17-20.29,34.77c1.58,10.78,6.77,23.26,11.94,31.27
	c18.29,28.35,39.69,25.39,61.79,64c6.26-8.85,8.53-30.2,10.03-43.63c1.93-17.4,0.67-37.39-5.61-54.28
	c-5.44-14.61-15.7-29.92-26.97-35.19c-3.59-1.68-6.66-2.28-10.76-3.33c-7.77-1.98-7.06-5.15-26.16-11.8
	c-24.21-5.99-43.01-0.8-40.81-0.64C138.02,8.38,158.8,12.92,177.26,27.41L177.26,27.41z"/>
<path class="st1" d="M26.36,62.22C36,50.46,58.4,30.93,82.01,28.72C71.05,33.91,63.7,35.51,53.35,42.8
	c-11.47,8.07-22.57,20.48-28.4,33.32c-4.15,9.15,15.66,22.83,35.19,19.55c10.74-1.81,23.11-7.26,31.01-12.6
	c27.96-18.88,24.54-40.22,62.68-63.13c-8.98-6.07-30.37-7.89-43.84-9.1c-17.44-1.56-37.4,0.12-54.15,6.76
	C41.35,23.33,26.26,33.92,21.23,45.3c-1.6,3.62-2.14,6.71-3.1,10.83C16.32,63.94,14.73,62,7.56,80.17
	c-6.37,19.21-1.37,39.17-1.21,36.96C8.02,94.09,16.02,78.01,26.36,62.22L26.36,62.22z"/>
<path class="st2" d="M57.5,212.59c-11.55-9.88-28.72-32.43-30.43-56.08c4.96,11.07,6.4,18.45,13.46,28.95
	c7.83,11.64,20,23,32.71,29.1c9.06,4.35,23.16-15.17,20.29-34.77c-1.58-10.78-6.77-23.26-11.94-31.27
	c-18.29-28.35-39.69-25.39-61.79-64c-6.26,8.85-8.53,30.2-10.03,43.63c-1.93,17.4-0.67,37.39,5.61,54.28
	c5.44,14.61,15.7,29.92,26.97,35.19c3.59,1.68,6.66,2.28,10.76,3.33c7.77,1.98,7.06,5.15,26.16,11.8
	c24.21,5.99,43.01,0.8,40.81,0.64C96.74,231.62,75.96,227.08,57.5,212.59L57.5,212.59z"/>
<path class="st3" d="M208.4,177.79c-9.64,11.76-32.04,31.28-55.65,33.49c10.96-5.19,18.31-6.79,28.66-14.07
	c11.47-8.07,22.57-20.48,28.4-33.32c4.15-9.15-15.66-22.83-35.19-19.55c-10.74,1.81-23.11,7.26-31.01,12.6
	c-27.96,18.88-24.54,40.22-62.68,63.13c8.98,6.07,30.37,7.89,43.84,9.1c17.44,1.56,37.4-0.12,54.15-6.76
	c14.49-5.75,29.58-16.33,34.61-27.71c1.6-3.62,2.14-6.71,3.1-10.83c1.81-7.81,7.69-11.43,12.81-30.97
	c2.62-17.42-0.38-32.56-0.44-30.36C228.26,146.54,218.74,161.99,208.4,177.79L208.4,177.79z"/>
<path class="st4" d="M349.35,80.21h38.35v74.01c0,7.32-1.16,14.26-3.44,20.77c-2.28,6.54-5.87,12.23-10.76,17.12
	c-4.89,4.89-10.01,8.3-15.36,10.3c-7.46,2.75-16.43,4.14-26.87,4.14c-6.04,0-12.64-0.43-19.78-1.27
	c-7.14-0.84-13.13-2.52-17.93-5.03c-4.8-2.52-9.2-6.07-13.16-10.7c-3.99-4.63-6.71-9.4-8.18-14.32c-2.37-7.9-3.56-14.89-3.56-21
	V80.21h38.35v75.77c0,6.77,1.88,12.06,5.61,15.85c3.76,3.82,8.97,5.73,15.62,5.73c6.56,0,11.74-1.88,15.5-5.64
	c3.73-3.73,5.61-9.05,5.61-15.94V80.21L349.35,80.21z"/>
<polygon class="st4" points="410.08,80.21 518.54,80.21 518.54,105.06 448.9,177.74 521.14,177.74 521.14,204.46 403.32,204.46 
	403.32,178.66 472.24,106.76 410.08,106.76 410.08,80.21 "/>
<polygon class="st5" points="632.02,207.46 608.28,207.46 574.7,123.99 557.23,207.46 533.49,207.46 559.52,83.21 583.26,83.21 
	616.93,166.33 634.31,83.21 658.05,83.21 632.02,207.46 "/>
<path class="st5" d="M685.35,83.21h25.45l-14.75,67.59l-3.73,16.54c-0.2,1.42-0.46,3.24-0.81,5.44c0,4.51,1.94,8.24,5.84,11.19
	c3.9,2.92,9.57,4.4,17.01,4.4c6.68,0,12.2-1.16,16.57-3.5c4.37-2.31,7.75-5.78,10.15-10.35c2.37-4.6,4.8-12.41,7.26-23.4
	l14.23-67.91h25.51l-14.72,70.36c-3.09,13.74-6.68,24.24-10.7,31.52c-4.05,7.29-10.18,13.19-18.36,17.76
	c-8.18,4.57-18.57,6.85-31.09,6.85c-14.98,0-26.46-3.56-34.42-10.67c-7.98-7.11-11.94-16.25-11.94-27.42
	c0.12-2.28,0.41-4.8,0.84-7.49c0.26-1.79,1.27-6.94,3.07-15.41L685.35,83.21L685.35,83.21z"/>
<polygon class="st5" points="837.48,207.46 811.94,207.46 833.6,104.04 797.13,104.04 801.3,83.21 899.17,83.21 895,104.04 
	859.14,104.04 837.48,207.46 "/>
<path class="st5" d="M893.24,167.43l24.29-1.27c0.35,7.72,1.68,12.93,3.99,15.62c3.73,4.4,10.61,6.59,20.68,6.59
	c8.36,0,14.43-1.5,18.16-4.51c3.73-3.01,5.58-6.62,5.58-10.87c0-3.67-1.53-6.8-4.57-9.34c-2.14-1.88-8.04-4.92-17.67-9.08
	c-9.63-4.19-16.66-7.69-21.08-10.5c-4.45-2.81-7.92-6.45-10.47-10.93c-2.55-4.48-3.82-9.72-3.82-15.7c0-10.5,3.79-19.2,11.37-26.12
	c7.55-6.91,18.51-10.35,32.88-10.35c14.58,0,25.86,3.41,33.84,10.27c8.01,6.85,12.41,15.96,13.19,27.33l-24.47,1.1
	c-0.61-5.93-2.78-10.47-6.45-13.65c-3.64-3.15-9.08-4.74-16.25-4.74c-7.06,0-12.09,1.24-15.1,3.73c-3.04,2.49-4.54,5.64-4.54,9.43
	c0,3.59,1.39,6.51,4.14,8.85c2.78,2.37,8.91,5.61,18.36,9.75c14.29,6.19,23.37,11.19,27.27,15.04c5.81,5.67,8.71,12.93,8.71,21.84
	c0,10.99-4.34,20.36-13.01,28.14c-8.68,7.78-20.74,11.68-36.21,11.68c-10.67,0-19.93-1.79-27.76-5.38
	c-7.81-3.59-13.33-8.56-16.57-14.92C894.51,183.05,893.01,175.7,893.24,167.43L893.24,167.43z"/>
</svg>
